<?xml version="1.0" encoding="UTF-8"?>
<svg version="1.1" xmlns="http://www.w3.org/2000/svg" width="50" height="50">
<path d="M0 0 C16.5 0 33 0 50 0 C50 13.2 50 26.4 50 40 C33.5 40 17 40 0 40 C0 26.8 0 13.6 0 0 Z M2 2 C2 8.27 2 14.54 2 21 C4.31 19.02 6.62 17.04 9 15 C9.99 14.67 10.98 14.34 12 14 C12.37125 14.825 12.7425 15.65 13.125 16.5 C13.74375 17.325 14.3625 18.15 15 19 C16.99954746 19.04254356 19.00041636 19.04080783 21 19 C21.598125 19.61875 22.19625 20.2375 22.8125 20.875 C25.63787695 23.61965189 27.96957917 23.82926806 31.78125 24.41015625 C34 25 34 25 38 28 C41.3 28 44.6 28 48 28 C48 19.42 48 10.84 48 2 C32.82 2 17.64 2 2 2 Z M10 18 C8.63151863 19.03857961 7.30629208 20.13420885 6 21.25 C5.2575 21.85328125 4.515 22.4565625 3.75 23.078125 C0.97235813 27.14815228 0.97235813 27.14815228 2 38 C17.18 38 32.36 38 48 38 C48 35.36 48 32.72 48 30 C47.13117187 29.97421875 46.26234375 29.9484375 45.3671875 29.921875 C38.61728191 29.58966488 34.48992888 29.18280296 29 25 C26.67504723 24.61250787 24.34148732 24.27017161 22 24 C21.34 23.34 20.68 22.68 20 22 C18.576875 22.061875 18.576875 22.061875 17.125 22.125 C14 22 14 22 11.8046875 19.9921875 C11.20914062 19.33476562 10.61359375 18.67734375 10 18 Z " fill="#000000" transform="translate(0,5)"/>
<path d="M0 0 C3.5 0.125 3.5 0.125 4.5 1.125 C4.625 4.625 4.625 4.625 4.5 8.125 C3.5 9.125 3.5 9.125 0 9.25 C-3.5 9.125 -3.5 9.125 -4.5 8.125 C-4.625 4.625 -4.625 4.625 -4.5 1.125 C-3.5 0.125 -3.5 0.125 0 0 Z M-1.5 3.125 C-1.5 4.115 -1.5 5.105 -1.5 6.125 C-0.51 6.125 0.48 6.125 1.5 6.125 C1.5 5.135 1.5 4.145 1.5 3.125 C0.51 3.125 -0.48 3.125 -1.5 3.125 Z " fill="#000000" transform="translate(37.5,12.875)"/>
</svg>
