<svg xmlns="http://www.w3.org/2000/svg" width="1558.159" height="2049.492" viewBox="0 0 1558.159 2049.491"><path fill="#0f0f0f" fill-rule="evenodd" d="M873.575 1822.881c80.688-.289 124.317-20.73 161.04-67.61 34.078-43.5 52.68-109.683 44.148-183.788 31.813 5.789 50.55 31.3 53.95 66.992 6.09 64.043-9.25 92.266-6.489 115.094 8.25 68.12 16.668 157.41-19.922 210.707-47.45 69.125-189.2 78.918-226.75-34.676-13.68-41.398-9.418-65.351-5.977-106.719m274.067-212.52c21.371 9.993 29.05 39.31 32.352 63.364 1.91 13.98 2.718 31.977 2.171 46.922-.73 19.852-5.441 19.828-19.43 28.687.04 16.207 20.458 39.766 13.669 139.356-2.88 42.273-16.032 92.89-59.989 96.14 14.93-31.87 20.977-33.738 28.45-77.46 7.968-46.68 3.468-101.446-3.352-149.051-3.121-21.766 1.73-25.645 4.512-44.945 2.41-16.82 3.46-32.536 2.86-50.497-.61-18.32-3.462-30.117-4.942-47.886l-3.399-8.465c9.211 2.133 3.66.176 7.098 3.836m-856.848-99.859 4.23.832c6.31.47.099-.425 2.919 4.227l1.34.094 6.03 5.399c8.321 9.05 17.579 16.316 28.31 28.074 8.113 8.894 18.492 21.086 25.292 31.05 3.25 2.446 2.25-1.175 4.5 7.055 16.078 14.363 33.41 56.79 48.489 75.563l4.71 6.183c16.801 17.196 60.77 79.719 31.961 107.438-13.5 12.984-41.453 13.758-64.21 12.031-24.172-1.832-42.88-8.988-58.75-19.61-5.09-1.726-2.02.462-5.782-2.034-7.43-4.93-1.27.593-5.097-5.532-5.684-2.023-9.672-5.875-13.094-9.984-7.738-3.356-5.059.613-9.02-7.203-7.558-5.73-34.898-34.715-37.84-47.961 22.743-4.465 44.301-10.54 69.793-14.809 11.489-1.926 70.61-7.875 73.758-9.539-19.12-18.656-111.191-6.168-144.699 7.129-13.262 5.266-13.148 3.3-24.539-3.277-14.871-8.594-29.21-16.067-41.742-25.875l-7.36-3.922c-11.386-13.086-126.343-89.469-69.847-145.863 45.277-45.192 146.316-27.586 180.648 10.535zm710.989 12.559c7.351 2.82 5.109 2.93 6.832 8.672 12.898 11.187 31.27-3.977 41.609 30.105 17.129 56.48-1.371 136.106-38.18 177.543-21.55 24.254-56.64 48.137-98.582 52.188-55.68 5.383-72.07-28.031-72.11-78.676l-11.116-9.555c-5.25-3.043-1.274 3.176-5.512-5.593-35.7-33.93-69.04-73.43-96.531-107.485-3.649-2.355-1.82-.105-4.54-3.297-1.44-1.687-2.82-4.601-3.988-6.793-6.21-10.64-28.863-38.214-37.12-51.882-3.423-5.649-2.86-4.778-5.212-10.758 92.59 3.476 174.442-3.582 248.36-63.89 5.05-4.126 7.601-6.806 12.12-10.345 8.86 4.504 54.65 67.09 63.97 79.766m-561.489 151.188c-4.289-2.188-2.41 1.695-5.09-6.09-24.27-21.766-96.949-206.5-237.449-213.73-32.48-1.673-64.562 5.085-89.281 23.921-13.535 10.313-9.57 13.734-20.844 19.895 1.469-72.282 67.637-91.754 129.535-86.614 81.02 6.735 145.809 79.051 184.297 140.727l40.602 67.926c17.289 21.789 32.48 39.789 42.8 65.738 10.989 27.644 11.008 68.57-14.41 79.117 4.23-50.043-12.09-58.023-30.16-90.89m-267.672-376.282c3.215-3.988-1.168-1.187 3.77-4.02 5.96-3.41 2.363-1.136 8.012-2.597 134.18-61.242 232.91 34.219 281.449 132.23 24.512 49.477 35.18 100.262 66.441 159.567 21.25 40.3 38.348 49.121 33.442 79.848-4.543 28.418-30 60.023-52.48 61.203-2.614-28.84-5.302-42.012-18.313-63.637-9.2-15.305-23.75-33.64-35.98-44.715l-4.43-6.539-4.258-7.023c-2.5-2.743-3.012-4.09-3.73-8.051-13.352-24.156-26.442-50.465-42.63-72.074l-3.851-7.582-26.27-33.23c-4.629-2.817-.43 2.03-5.719-4.259-2.773-3.285-2.101-3.394-3.73-6.468-4.812-3.57-18.55-17.16-21.152-20.61-9.02-3.14-3.98-.914-6.309-5.07-62.8-51.363-151.781-71.383-220.933-30.086-9.458 5.648-15.168 14.512-24.938 17.984-2.418-55.27 45.172-120.918 81.61-134.87m220.57-198.566c-1.84 6.437-2.179 5.437-7.57 8.5-66.699 50.976-52.187-120.66 11.172-107.621 11.781 2.43 15.86 15.73 16.719 28.75 1.961 30.09-7.96 53.437-20.32 70.37m246.294 53.527c4.328 2.64 2.187-.02 5.148 3.2 3.031 3.32.629-.25 3.102 5.09l18.367 12.171c9.902 2.961 14.68 6.98 26.93 9.649 10.43 2.28 22.101 3.41 34.222 2.492 20.719-1.563 38.809-8.91 51.547-23.32l9.563-9.36c24.148-40.562 19.328-45.23 22.257-97.89 7.582 2.68 66.871 50.468 72.102 58.859 4.578 2.09 4.05 1.09 8.039 4.52.512.429 1.781 1.75 2.223 2.25 2.347 2.699.898 1.109 3.226 4.64 5.653 4.762 4.281 5.262 10.582 8.21l28.621-21.69c.578.8 1.059 1 1.22 2.03l3.077 7.169 18.332 67.691c21.2 76.61 15.031 175.484-44.492 231.633-2.238 4.07-1.066 3.527-4.988 7.312-3.82 3.7-3.309 2.653-7.442 4.844l.672.399-6.152 4.789c-27.61 20.754-54.09 34.414-90.938 43.758-30.28 7.675-93.859 11.328-123.78-.16-.122-16.985 12.448-35.083 12.14-55.4l-9.32-5.71c-5.31-2.086-4.141-2.195-9.22-1.438-7.991.309-.1-3.28-7.882 2.899-4.297 23.32-29.219 76.176-42.207 91.91-18.402 22.285-4.582 18.05-9.07 59.867-2.223 20.746-12.403 33-24.813 42.324-2.68 3.926 4.184 2.918-5.059 3.383l-6.789-9.949c-28.312-30.824-51.5-86.855-66.64-129.726-8.922-25.254-15-50.043-25.38-72.352-10.991-23.613-23.25-43.57-35.972-62.762-3.59-2.93-2.52-.883-4.437-7.05-3.012-2.43-25.992-30.833-43.79-47.5-4.863-4.551-11.73-9.43-16.35-14.57 14.91-16.481 36.519-6.38 54.698-3.142-.609-11.64-7.43-15.68-12.12-23.449 6.452-15.64 19.1-30.46 27.812-38.761 3.05-5.098-.723-1.52 3.34-4.79 3.128-2.53.48-.75 5.27-2.78 9.788-11.907 37.257-22.188 52.12-25.919 22.457-5.62 52.149-5.031 75.5.989 21.098 5.44 40.848 12.812 58.86 22.722 19.847 10.91 31.46 21.489 49.277 31.649l7.39 2.468c2.704-10.09.442-2.41 4.454-5.898 2.297-4.129 4.636-7.27 6.937-12.918-4.82-8.113-30.168-24.473-39.93-30-2.57-1.461-4.257-2.082-7.37-3.832l-6.508-5.059c-30.77-8.89-48.063-29.25-109.73-31.453-29.29-1.047-60.54 6.043-86.38 18.871-8.262 4.102-13.93 9.11-21.113 12.64-3.43 5.47 1.203 1.22-3.629 4.63-3.578 2.52-.598.66-5.508 2.46-7.96 9.552-12.93 12.333-21.23 24.09-6.633 9.403-10.633 19.68-16.7 29.102-12.39-.91-19.16.23-31.023.64-10.027-16.241-9.777-49.472-3.289-69.62 38.2-3.25 67.031-24.91 78.61-54.442 10.3-26.257 18.042-84.507 30.581-104.11 23.29-11.48 121.73-5.32 153.641-4.1-.03 15.382-15.25 35.25-15.062 79.44.18 42.481 14.21 50.321 24.453 68.36m25.777-219.508c3.973-5.703-1.39-2.882 7.973-5.12-3.012 10.011.098 3.308-5.594 7.261-1.258 6.559-21.656 34.79-25.617 45.656-24.172.41-50.82-3.937-76.473-4.34-23.937-.378-57.137 2.692-78.977.891 4.668-17.89 13.418-30.73 21.36-45.418 16.367 1.598 50.008 26.86 120.719 11.129 10.25-2.281 29.37-9.64 36.609-10.059m-253.129 55.297-9.23-3.386c1.07-4.133-1.38-.602 1.851-6.192 2.528-4.39 1.09-1.71 3.68-4.36 5.52-9.16 10.668-17.538 16.43-26.35 4.097-6.27 15.968-20.618 17.738-24.911l5.582-6.578 19.187-19.29c8.75 5.849 18.332 14.22 23.723 22.95l-27.77 64.18c-10.261 25.488-17.5 45.949-23.851 68.847-9.031 32.582-19.18 70.98-51.762 85.704-12.957 5.859-27.777 5.23-33.539-8.231 8.402-6.14 18.68.39 39.332-16.941 32.57-27.32 45.387-97.57 18.63-125.442m295.379-68.437c2.93-11.39.262-4.082 4.941-7.11 4.48-1.96 31.739-3.64 40.309-5.203 15.582-2.847 22.992-6.597 37-10.277-17.398 91.871 1.082 110.277-.41 173.629-1.29 54.492-32.059 101.262-94.11 89.34-54.34-10.442-69.628-65.079-53.289-121.559 10.809-37.371 43.38-97.152 65.559-118.82m105.95-31.692c2.331-4.09-2.618-2.09 6.273-5.039 28.36-22.41 20.968-8.27 54.148-1.172 64.55 13.84 136.149-18.468 172.508-69.386 23.062-3.782 59-2.41 83.05-1.793-7.538 23.851-17.827 26.511-30.09 79.832-7.237 31.449-8.07 66.879-3.218 101.12-37.14-1.3-72.781-5.671-109.441 1.169-26.45 4.941-65.418 17.968-79.989 35.851.211 8.528 4.188 18.457 8.95 24.489 8.351-2.91 8.582-4.961 16.421-7.372.52 15.57 2.97 24.641-6.16 33.102-4.96 4.602-14.28 12.469-21.34 16.559-8.96-3.989-13.261-10.887-20.421-17.528-15.38-14.28-48.121-41.652-66.149-53.52-13.062-8.6-13.32-6.991-14.101-26.671-1.2-30.211-.579-83.809 9.558-109.64M639.402 764.46c-.78 30.16-4.511 58.22-20.57 78.59-15.039 19.078-44.879 25.371-66.539 6.61-25.27-21.88 1.848-47.84 16.168-59.098 7.672-6.031 60.723-26.473 70.942-26.102m892.212 170.82-1.7 8.372c-11.453 1.34-1.66.867-5.382-3.672-1.86-6.3-4.61-9.66-8.52-13.52l-6.96-8.52c-4.888-4.401-10.888-10.741-19.81-12.901 1.872 7.57 13.06 23.421 16.922 32.09 17.328 38.98 18.88 82.273-9.62 111.09-2.391 4.581 3.23 3.76-4.762 3.69l-3-9.718c-1.688-15.313-15.938-33.942-28.5-39.871 2.859 21.52 28.761 63.761-8.13 111.308-22.09 28.473-67.37 34.203-108.3 19.692-.82-7.352 6.18-24.75 7.371-39.02 11.851 1.262 10.36 10.54 22.969 13.211.34-.55.82-2.043 1.02-1.64.19.39.773-1.23 1.03-1.52 8-8.883 6.012-2.383 8.79-11.922-11.11-9.39-17.329-17.277-34.989-23.937-12.308-4.653-36.25-11.832-50.39-9.954l-2.192 17.122 29.23 7.601c10.282 86.91-186.59 83.32-155.117-147.691-8.273 4.25-1.261-3.149-7.082 7.719-10.859 20.261-13.78 59.042-13.8 81.48-9.348-.668-4.25-.078-10.95-2.95l-5.738-6.16c-40.16-58.48-5.902-184.5 40.399-216.007 2.32-5.024-3.012-2.473 5.808-5.14 17.442-9.391 29.64-16.93 53.64-11.302.384 9.18 2.75-.28-9.39 18.391-4.379 6.738-9.219 11.899-9.129 21.18 4.242-1.442 22.72-18.192 40.121-27.7 16.598-9.081 30.188-14.8 48.688-20.14 69.922-20.223 177.344-9.371 201.66 54.11 10.012 26.128-6.828-.489 14.652 36.429 13.149 22.582 15.77 41.379 11.16 69.8M500.122 762.55c81.961-.53 92.07-32.21 135.582-23.129 0 13.54-16.941 17.028-26.812 20.809-21.508 8.25-109.848 36.27-108.77 2.32m70.59-29.14c.801-4.79 4.363-10.809 10.352-14.68 5.808 3.91 6.699 3.898 8.761 9.488zm333.551-134.93c2.492-4.012.39-1.91 3.43-4.941 3.32-3.34.332-.52 5.27-3.137 2.952-3.422-.43-1.012 4.421-2.301 1.57 13.617 3.371 26.55 4.39 39.961 1.731 22.789 3.239 19.68-11.14 28.848l-6.34 5.242c-23.62 14.918-38.11 45.918-61.039 57.207-16.16 7.953-36.02 7.203-39.05-13.758-3-20.762 8.968-29.11 17.167-42.05-2.347-10.56-8.886-19.989-1.828-31.981 4.59-7.801 12.02-13.43 24.02-15.34 13.578-2.18 24.43 1.469 36.941-3.39 10.25-3.989 15.188-9.31 23.758-14.36M311.642 638.99c7.832 4.347 4.41 1.617 7.273 9.039 2.27 44.61 5.13 72.039 23.149 105.71 15.8 29.528 34.82 49.75 57.199 70.759l5.902 4.87 20.68 16.84 9.309 7.54 8.28 7.019c1.06 7.68 6.13 10.512 9.259 17.723-5.559 11.02-32.88 35.308-35.668 46.738l-3.903 5.121-5.757-5.82c-13.07-19.52-25.512-36.07-38.84-57.13-22.762-35.94-50.7-83.23-71.5-121.671l-33.371-60.031-3.782-8.078c-5.187-9.18-28.257-51.891-29.23-61.059-6.09-4.594-5.977-3.121-5.367-12.531l14.64-3.012c20.32-2.469 48.059-13.777 64.16-21.68 15.477 17.75-1.5 28.602 7.567 59.653M549.474 468.87c-5.2-11.66 7.39-29.371 14.129-22.903 7.121 6.852-2.86 22.364-5.969 23.91-8.05 4.012-7.941-.886-8.16-1.007m-19.379-2.61c-24.582-5.101 3.238-42.883 9.84-49.949 16.11-17.262 42.91-24.293 41.648 13.399-9.758-4.399-6.34-10.22-20.02-7.692-18.32 3.383-25.948 27.91-31.468 44.242m-95.941-55.32c1.921-6.082 8.039-17.352 11.738-20.902 9.96 4.84 7.242 6.12 16.781 11.64l-7.918 14.2c-6.87-.72-14.383-1.45-20.601-4.938m82.808 32.488-2.379 7.84c-9.41.352-2.5.75-5.21-3.187-4.758-4.243-6.919-5.204-10.95-10.551 3.88-16.07 17.95-37.442 28.922-46.98 16.117-14.032 44.66-11.91 48.2 8.46-30.34-10.59-50.72 24.957-58.583 44.418M816.634 605.44l-4.95 5.3c-4.51 3.739-.6.52-4.64 2.77-4.781 6.207-9.25 12.059-10.89 21.52-2.91 16.738 2.25 17.289 4.129 28.66l-6.208 6.23-4.273 6.48c-22.098 28.067-4.91 77.579 38.281 69.86 16.86-3.011 30.54-14.832 40.97-25.191 7.839-7.781 24.612-26.2 29.331-33.27l6.738-5.172c29.52-21.43 71.082-38.847 108.133-10.238 67.617 52.211 5.438 191.352-122.082 185.75-15.078-.66-27.781-4.871-40.68-12.058-18.808-10.493-11.328-1.282-46 16.25-68.59 34.66-91.539 15.609-124.21 35.488-46.059 28.02-114.07 40.129-164.97 6.398-38.94-25.797-40.6-45.859-50.32-58.238-10.34-13.16-93.57-53.7-115.69-149.66a189 189 0 0 1-3.93-23.93c-2.419-24.129-1.56-17.898 3.03-19.82.391 45.121 16.833 51.308 49.489 48.148 1.25 17.864 15.082 31.684 30.96 35.172 25.661 5.64 33.43-10.71 49.25-16.14 5.59 16.28 14.263 15.492 21.911 27.402l-46.75-1.3c3.352 16.167 17.07 11 24.402 18.917 1.72 1.852 11.899 25.281 14.328 30.152 11.68 23.329 33.149 49.98 34.231 52.598 6.91 3.512.309-1.937 6.512 3.992 4.148 3.969 2.36 3.39 3.937 6.188l3.77 2.68 7.18 4.203c20 19.308 67.542 15.98 88.69-19.5 21.262-35.641 16.34-66.762 15.661-110.903 18.578-9.418 20.07-13.008 28.8-34.558 33.34-.192 52.4-3.993 63.4-28.282 11.401-25.168 6.038-50.808-7.759-69.859-8.953 2.262-15.992 10.691-34.472 18.988-35.23 15.82-99.848 24.903-138.868 21.16 2.86-5.816 3.54-4.18 4.68-11.269-5.672-2.348-2.27-.238-5.781-2.918-4.012-3.063-.43.25-3.27-4.64l-8.671-4.91c-35.258 27.128-41.778 33.109-95.329 31.53-37.332-1.101-70.28-13.691-93.941-32.62-8.39-3.673-4.258-1.102-7.871-8.423-20.817-19.238-29.117-63.277-19.84-97.988 8.902-33.27 28.723-57.36 58.672-67.601 62.36-21.309 138.988 36.03 155.012 85.152 1.238 1.039 3.328 2.469 4.898 3.32.418.23 1.578 1.168 1.91.66.328-.53 1.34.329 2.008.489l11.453-6.239c-1.43-17.492-11.66-13.652.61-31.082 16.808-23.89 30.949-74.09 16.078-104.34-24.649-50.167-80.719-13.07-95.45 39.313l-8.918-1.71-6.12-4.263c5.109-10.73-.231-1.98 5.84-6.597.19-9.012 24.948-48.133 30.94-57.621 9.59-15.18 26.798-43.582 52.688-33.891l8.7 7.36c6.363 9.5 9.171 15.331 14.28 26.71 7.981 17.75 6.29 24.512 13.13 26.11 6.441-17.719 4.02-39.848 4.742-59.239 24.93-1.453 89.738 21.309 108.039 33.059-5.172 12.59-35.25 26.309-39.82 49 13.82-2.898 29.289-10.66 45.671-14.719 15.97-3.96 33.68-6.531 52-4.75 16.297 8.469 32.45 99.04 82.97 129.051 37.89 22.508 51.019 5 57.327 24.207 3.39 10.34 1.633 19.09-4.16 26.39-32.309 40.72-58.988 23.782-88.918 36.282m-113.07-453.602 8.039-5.097.21 10.289 4.411 25.66c14.379-1.563 28.98-14.18 45.36-18.152l-1.981 72.992-76.938-57.04c3.508-11.179 15.41-17.241 20.899-28.652m-124.711 51.403c10.539 2.36 4.621.777 7.32 4.61 14.54 7.608 38.18 25.987 52.86 38.929 7.07 6.23 44.39 40.937 48.21 42.73l7.77 8.5c10.98 12.149 36.922 36.34 40.211 48.34-4.059.04-46.91-19.39-62.582-24.652-86.817-29.16-60.957.722-79.488-35.95-3.168-6.28-6-9.89-9.871-14.378-31.88-37-78.09 19.25-81.829 42.078 5.91 2.652 6.45.441 10.641 4.43-10.07 13.66-30 50.792-37.402 57.66-4.809-2.77-4.25-1.528-7.457-6.93-7.582-2.828-3.653-.379-5.91-5.707-10.551-7.422-30.434-36.492-37.711-49.32-33.16-58.461-47.993-161.73 30.39-182.18 43.52-11.363 115.278 13.316 146.387 27.59 35.293 16.199 72.793 40.777 105.66 68.27 6.813 2.48 3.672.257 6.113 5.82 7.34 2.777 72.07 61.23 77.7 73.597 4.378 2.492 2.07.04 6.488 4.403 4.32 4.25.539.597 2.972 4.68l21.489 26.058c6.05 7.68 4.558 6.191 5.23 9.422 13.86 8.636 37.43 58.219 43.18 70.289 9.351 19.629 28.512 61.199 29.851 85.62-28.312-4.39-51.16-16.241-65.222-38.741-10.629-17-24.43-45.489-32.188-66.48-4.043-3.34-2.472 5.44-4.793-7.72 10.59 2.38 4.993.829 7.442 4.86 18.511 6.148 15.969 18.262 28.37 24.2 8.208-43.15 7.458-35.79-8.089-72.142-14.89-2-7.203-26.648-68.48-15.027-4.09-3.621-7.903-9.582-13.43-14.242l-4.18-6.98c-8.633-7.59-14.941-16.297-24.441-25.81-44.309-44.41-160.04-140.237-218.211-127.25 2.96 7.872 61.75 22.911 83 41.423m-294.328-22.703c7.828 4.09 3.808 0 8.16 7.96 7.84 10.012 16.73 21.66 17.73 38.532-12.62 9.59-29.652 14.87-35.851 26.48l-6.301 4.64-5.918-13.25c-7.21-29.472-65.172-73.651-101.941-59.98 2.664 5.2 7.586 4.688 14.507 7.297 13.325 5.024 25.325 12.442 36.844 21.371 4.63 1.903 3.988-2.468 4.79 1.86l1.468 4.152c15.602 8.34 31.8 39.219 33.262 56.32.828 9.739-7.102 23.25-8.133 37.72-1 14.109 4.191 31.968 2.883 37.96l-6.262 4.84c-9.629 3.45-17.05 8.258-30.89 8.148.792-40.007-2.348-58.23-21.02-85.68-13.145-19.327-37.168-39.648-62.625-40.41l-19.727.063c2.016 1.227 3.508 1.648 5.09 2.5l4.188 2.648c.214-.421.851.731 1.27 1.102 36.745 10.227 82.316 63.719 71.124 115.758-4.87 22.648-30.59 42.808-61.133 30.871-26.527-10.371-30.894-39.082-45.328-49.313-.82 29.282 13.977 61.98 37.774 70.5 30.859 11.051 59.726 1.364 80.789-20.957l4.84-6.671c12.347.742 24.46 1.261 35.968-2.782 10.141-3.558 16.782-10.129 24.11-12.726 38.031 28.797 93.23-1.031 97.742-29.75-19.68 6.129-49.172 36.707-78.692 11.25-8.32-3.461-3.988-.621-7.59-7.871-20.011-25.493 2.782-59.211 16.93-73.532 3.309-4.68-.53-.988 3.551-4.097 2.629-2 2.57-1.172 5.621-2.364 7.98-8.507 49.25-27.167 65.938-18.187 4.23 3.43 4.75 15.777 7.312 24.488 2.438 8.352 4.48 14.34 8.078 22.801 14.903 35 41.242 67.082 38.82 80.602-11.37 63.488-52.14 22.73-95.929 84.386-27.02 38.043-22.211 58.082-25.469 94.25-37.281 20.953-156.949 55.024-156.77-26.078 22.458.192 51.93 1.2 69.708-10.3l-8.27-3.04c-1.918-.32-5.59-.34-7.648-.48-35.239-2.3-63.688-13.379-91.805-35.25-78.027-60.711-100.594-165.45-45.324-253.75l28.89-39.852 8.567-7.699 1.16-1.39 8.059-8.13c6.207-2.769 47.308-43.96 108.832-57.8 48.12-10.82 101.171 3.152 131.109 31.152 5.711 3.219 4.812 2.098 9.93 8.379l2.23 3.191 5.11 6.079c14.82 22.16 7.671 17.39 3.992 61.66l-33.18 1.511-13.223-25.77c-4.437-8.023-12.02-14.401-15.59-20.991-3.68-1.559-3.707-.82-7.019-3.13-7.98-5.55-1 .04-4.75-5.609-16.39-11.671-34.871-19.043-60.371-18.261 8.723 11.351 37.32 15.058 50.383 34.629m387.36-7.54-7.31-3.949c-7.171-3.93-3.132-.359-6.511-6.28 5.781-8.571 37-33.579 48.02-43.34 8.038-7.118 8.331-9.79 17.081-12.348 1.207 6.636 2.11 15.558 3.387 23.238.453 2.742 1.172 7.82 1.82 10.582l3.793 10.187 42.778-21.328c1.87-1.832 1.14-1.86 4.312-3.699 6.27-3.652 1.219-.66 6.52-1.773l2.367 13.703 13.5 107.84c-34.399 14.386-35.727 1.218-34.977-18.782l2.11-73.8c-14.782 4.859-34.32 17.37-47.973 20.082l-6.789-41.512c-8.379 6.719-29.8 31.621-35.438 41.96zm-36.852-21.308c.171-13.95 17.242-33.961 23.53-39.941 38.302-36.418 97.122-35.141 136.782-3.68 67.34 53.41 44.5 156.05 5.09 170.73-5.082-3.949-16.192-13.672-17.64-21.07l25.218-5.5-16.148-136.781c-17.84 2.863-39.551 19.691-56.743 25.62l-7.789-46.859c-14.8 5.239-62.199 55.602-77.84 65.258zm-27.97-43.422 4.692-6.277 18.25-20.114c2.559-5.328.617-3.289 5.938-5.5 11.043-14.378 38.031-28.859 58.902-37C765.892 11.66 866.825 32.6 916.423 85.48c9.602 3.29 3.762.45 6.352 5.43 3.66 2.199 11.16 9.468 17.097 14.941l5.743 6.219c20.039 22.02 46.539 56.308 58.148 83.082.422.476.992 1.09 1.27 1.45 4.542 5.839 4.511 6.05 6.59 12.987 9.269 24.54 19.269 46.02 26.78 71.79 18.301 62.831 25.731 104.23 29.192 171.19 2.367 45.9-2.16 71.27-1.09 95.38 12.059-4.278 14.438-22.11 19.778-36.09 20.12 3.062 70.382 51.941 65.671 114.07-3.59 47.3-52.379 91.492-80.511 98.903-7.59-48.692-29.93-80.864-76.598-89.66-22.582-4.27-31.73 1.398-50.3 1.718-4.47-99.469-44.891-217.828-97.16-298.07-4.54-3.57-1.782 5.031-4.25-6.899l-31.372-40.632c8.05-10.32 19.61-14.07 31.602-37.09 17.539-33.688 15.527-77.219 1.41-111.29-7.403-17.847-12.98-24.679-25.5-40.14-6.512-2.8-3.5-.687-5.762-5.828-32.86-22.172-62.789-40.98-114.469-24.672-50.96 16.082-59.39 42.09-78.101 69.832-6.457-1.371-22.078-9.09-28.32-13.18zm-198.679 18.14-4.7 5.43c-4.8 4.391.4-.02-4.421 2.993-2.938 2.957-4.21 5.546-8.77 8.097-8.918-9.699-11.199-16.77-21.55-25.75l-6.809-5.097c-26.762-26.903-97.25-39.18-141.52-30.872-27.332 5.141-44.93 10.61-68.253 23.008-30.57 16.25-37.856 24.453-54.274 33.864l-5.66 5.168c-17.055 18.03-35.226 31.16-47.98 51.152-3.11 10.2-.403 3.957-5.344 6.75-2.785 9.098-19.719 34.5-24.985 48.828C7.165 268.901 1.622 287.85.365 308.948c-2.422 40.66 7.277 95.922 27.464 119.73l4.223 7.41 7.121 11.813c5.031 2.84 2.168-3.82 5.274 6.719 11.761 13.27 25.59 27.949 40.8 37.53 1.293.95 4.75 3.477 5.301 4.009 3.106 2.968.828.718 3.645 4.601 2.699.969 19.156 11.52 23.36 14.328 3.78 21.18-5.114 38.653 11.413 60.403l4.742 6.27c9.153 9.898 27.512 22.866 45.574 23.66l15.641 3.109 3.57 9.34c2.66 12.71 35.649 74.68 43.82 89.828 15.25 28.261 31.34 57.793 47.97 84.633 8.68 14.019 102.101 162.98 101.64 165.937-6.25 10.71-12.23 22.133-21.988 28.23-22.043 13.782-17.82 17.16-26.211 22.743-2.191 8.527-1.02 4.789-4.649 7.398-11.312 24.121-25.41 50.39-15.023 83.738 4.64 14.903 4.383 10.891 5.273 28.403.72 14.36 5.66 12.949 4.16 31.078-4.921 59.703 4.36 60.91 8.907 93.691-57.707-14.52-98.688-18.148-153.5 3.86-71.598 28.742-133.156 101.511-128.883 181.789.844 15.875 7.188 26.66 7.781 37.511 3.883 70.711-10.574 70.528 38.72 136.344l6.3 5.777c15.746 26.028 86.633 63.047 110.433 78.434 6.192 4.004 27.301 37.648 41.82 53.43 67.141 72.96 174.75 86.86 230.622 21.836 14.98-17.438 4.539-9.594 27.457-19.219 25.582-10.746 37.723-19.461 53.973-39.937 2-6.118-.403-1.825 1.98-5.922 3.16-5.477 2.129-2.965 4.809-5.395 4.332-15.437 8.691-22.098 9.73-39.996 20.758-4.473 35.09-23.7 43.578-42.852 16.774-37.828 10.024-58.582 14.75-71.359 7.07 2.883 10.32 10.695 14.672 16.82 3.008 2.375 1.852.5 4.399 3.711 1.941 2.438 1.882 2.918 3.562 6.434 5.988 7.863 15.867 19.633 20.828 25.656 3.692 2.18 2.04-1.555 5.04 6.09l11.929 14.098c5.351 2.37 3.582.48 5.691 5.695l.48.555 5.352 5.511c3.098 3.895 8.828 10.301 12.68 13.512l8.02 8.258c6.23 12.168 49.199 52.375 59.87 62.367 13.77 12.895 6.13 17.984 12.9 48.48 3.96 17.833 10.308 28.34 20.32 40.07 8.62 10.102 5.738 11.165 4.257 25.223-1.039 9.872-1.52 19.875-1.59 29.805-.148 19.235 1.512 39.54 5.09 56.926 9.332 45.309 16.93 50.309 38.192 82.582 4.949 3.023 2.73.977 6.941 5.203 4.309 4.328 2.348 2.203 5.36 7.16l7.167 5.762c7.211 2.512 4.192 1.363 5.692 4.316l6.469 3.922c31.601 21.38 78.859 29.88 124.91 18.27 28.082-7.078 42.492-19.906 51.93-22.645 25-7.25 35.53-.527 59.62-16.36 51.993-34.16 53.88-117.042 48.743-176.253-2.942-33.898-13.602-55.898-13.782-61.957 13.871-7.941 18.301-12.367 19.63-28.844 4.359-54.082 1.14-113.996-43.18-147.73-9.762-7.426-21.418-11.121-29.68-16.965-14.961-10.594-24.332-32.129-60.54-34.79-6.55-22.843-24.671-28.206-50.91-30.124l-57.19-79.711-4.891-7.152c-1.77-9.301 23.8-38.743 34.191-84.086 17.602-76.809 1.531-129.93-19.559-200.649-8.21-27.55-13.171-75.61-10.183-107.941 35.344-14.008 96.55-15.282 135.352-6.88 21.68 4.7 7.699 24.63 54.07 34.622 4.75 17.36 10.289 27.95 16.379 42.156 2.672 2.242 1.832.473 4.082 3.774 1.469 2.16 2.21 4.527 3.328 7.226 19.39 37.113 82 67.992 128.672 52.613 33.949-11.18 7.347-10.37 44.258-.55 43.011 11.437 113.402-1.7 135.68-43.36 18.23-34.09.452-30.043 18.882-41.34l7.559-4.519c12.082-6.492 23-24.774 26.87-39.781 4.5-17.442-.5-50.43 6.52-62.5 10.98-18.903 12.7-31.082 11.969-56.66-.758-27.04-6.98-31.262-14.598-52.41-3.011-2.391-1 .62-5.39-5.012-4.29-5.5.48 1.07-2.813-5.239-7.84-38.16-21.168-62.718-49.277-82.191-42.723-29.578-112.68-33.129-165.633-21.95-31.25 6.602-28.36 9.18-49.867 16.72-10.992 3.84-67.922-16.758-102.672 13.261l-6.21 4.64-98.958 1.009c2.61-19.57 7.73-27.02 19.059-32.739 7.191-3.62 25.8-16.851 31.18-17.992 3.038-5.258-1.051-1.468 4.73-6.09 3.488-2.796-.16-.238 5.398-2.289 35.5-27.328 66.223-68.23 52.774-132.25-7.332-34.879-28.75-68.027-55.57-88.02-43.231-32.218-25.57-2.339-27.973-81.37-.598-19.637-2.309-41.23-5.07-60.04-15.188-103.37-50.047-201.82-119.989-276.597-8.262-3.812-2.742-.203-5.36-5.742L949.096 67.81l-6.012-5.07c-15.988-18.274-60.418-40.75-87.968-50.082-70.922-24.032-161.73-14.38-222.051 33.52-37.39 29.698-41.031 43.3-65.301 74.59-12.828-1.84-25.648-7.259-38.48-9.708-49.239-9.41-81.278-7.672-120.899 15.348"/><path fill="#fdfdfd" fill-rule="evenodd" d="M957.083 749.018c2.07 1.441 4-.48 6.442 6.59 2.68 7.742.09 5.46-1.332 8.082-8.899-1.762-.91.45-4.598-3.852-13.05-4.96-35.71-11.66-47.293-.668-2.168 2.97.313.809-3.258 4.18-3.34 3.149-3.27 2.578-5.77 4.238-2.511 6.422-9.3 27.61-12.21 30.993-19.18-24.473 16.14-66.332 30.441-77.973 24.278-19.75 73.54-25.488 81.57 7.93-15.582-4.559-20.12-10.637-40.953-7.34-12.23 1.93-25.367 8.02-30.41 15.48 17.68 5.102 15.024 2.102 27.371 12.34m-210.55-162.86-10.93 9.712c-13.29 5.59-17.64 13.289-37.059 14.39-16.441.93-29.261-3.492-40.558-11.41-8.403-2.48-3.942-.41-6.364-5.3-15.308-10.622-20.609-37.9-19.09-63.02 1.391-23.051 9.704-43.36 21.543-62.281 18.31-29.258 60.899-70.848 105.54-44.38l9.289 6.571c7.379 13.52 13.968 15.73 18.05 36.258 3.282 16.492 1.5 32.043-2.652 47.351-11.27 41.59-24.738 49.262-37.77 72.11M479.044 417.492c-3.37 11.379-2.789 2.738.281 10.86l8.918 1.71c14.731-52.383 70.801-89.48 95.45-39.312 14.87 30.25.73 80.449-16.078 104.34-12.27 17.43-2.04 13.59-.61 31.081l-11.453 6.239c-4.43 3.82 5.742 3.25-6.27 3.492l-2.546-7.961c-16.024-49.121-92.653-106.461-155.012-85.152-29.95 10.242-49.77 34.332-58.672 67.601-9.277 34.711-.977 78.75 19.84 97.988l7.871 8.422c23.66 18.93 56.61 31.52 93.941 32.621 53.551 1.579 60.07-4.402 95.329-31.53l8.671 4.91 9.051 7.558c-1.14 7.09-1.82 5.453-4.68 11.27 39.02 3.742 103.637-5.34 138.868-21.16 18.48-8.298 25.52-16.727 34.472-18.989 13.797 19.05 19.16 44.691 7.758 69.86-11 24.288-30.058 28.09-63.398 28.28-8.73 21.551-10.223 25.141-28.801 34.56.68 44.14 5.601 75.26-15.66 110.902-21.149 35.48-68.692 38.808-88.692 19.5l-7.18-4.204-3.769-2.68-10.449-10.179c-1.082-2.617-22.55-29.27-34.23-52.598-2.43-4.87-12.61-28.3-14.329-30.152-7.332-7.918-21.05-2.75-24.402-18.918l46.75 1.3c-7.648-11.91-16.32-11.12-21.91-27.401-15.82 5.43-23.59 21.78-49.25 16.14-15.879-3.488-29.711-17.308-30.961-35.172-32.656 3.16-49.098-3.027-49.488-48.148-4.59 1.922-5.45-4.309-3.032 19.82a189 189 0 0 0 3.93 23.93c22.121 95.96 105.352 136.5 115.691 149.66 9.72 12.379 11.38 32.441 50.32 58.238 50.9 33.73 118.911 21.621 164.97-6.398 32.671-19.88 55.62-.828 124.21-35.488 34.672-17.532 27.192-26.743 46-16.25 12.899 7.187 25.602 11.398 40.68 12.058 127.52 5.602 189.7-133.539 122.082-185.75-37.05-28.61-78.613-11.191-108.133 10.238-2.52 4.543 3.34 2.09-6.738 5.172-4.719 7.07-21.492 25.489-29.332 33.27-10.43 10.36-24.11 22.18-40.969 25.191-43.191 7.719-60.379-41.793-38.28-69.86l4.272-6.48 6.208-6.23c-1.88-11.371-7.04-11.922-4.13-28.66 1.641-9.461 6.11-15.313 10.891-21.52 3.848-6.34 1.11-4.312 9.59-8.07 29.93-12.5 56.61 4.437 88.918-36.281 5.793-7.301 7.55-16.051 4.16-26.391-6.308-19.207-19.437-1.7-57.328-24.207-50.52-30.012-66.672-120.582-82.969-129.05-18.32-1.782-36.03.788-52 4.75-16.382 4.058-31.851 11.82-45.672 14.718 4.57-22.691 34.649-36.41 39.82-49-18.3-11.75-83.109-34.512-108.038-33.059-.723 19.391 1.699 41.52-4.742 59.239-6.84-1.598-5.149-8.36-13.13-26.11-5.109-11.379-7.917-17.21-14.28-26.71-4.048-2.11-2.278-.63-5.16-2.899-3.63-2.86-.84-.582-3.54-4.461-25.89-9.691-43.098 18.711-52.687 33.89-5.993 9.489-30.75 48.61-30.942 57.622"/><path fill="#fff" fill-rule="evenodd" d="M788.365 1152.85c-5.141 8.598-2.172 5.418-9.563 9.36-12.738 14.41-30.828 21.757-51.547 23.32-12.12.918-23.793-.211-34.222-2.492-12.25-2.668-17.028-6.688-26.93-9.649l-.238 3.031 6.507 5.059c3.114 1.75 4.801 2.371 7.371 3.832 9.762 5.527 35.11 21.887 39.93 30-2.3 5.648-4.64 8.789-6.937 12.918-4.371 8.52-1.25 5.719-7.582 8.46-5.579-3.64-1.75-1.222-4.262-5.03-17.817-10.16-29.43-20.739-49.277-31.649-18.012-9.91-37.762-17.281-58.86-22.722-23.351-6.02-53.043-6.61-75.5-.989-14.863 3.73-42.332 14.012-52.12 25.918-3.923 5.672-2.083 3.934-8.61 7.57-8.711 8.301-21.36 23.122-27.813 38.762 4.692 7.77 11.512 11.809 12.121 23.45-18.18-3.239-39.789-13.34-54.699 3.14 4.621 5.14 11.488 10.02 16.352 14.57 17.797 16.668 40.777 45.07 43.789 47.5l4.437 7.051c12.723 19.192 24.98 39.149 35.973 62.762 10.379 22.309 16.457 47.098 25.379 72.352 15.14 42.87 38.328 98.902 66.64 129.726 7.508 7.324 3.43 6.149 11.848 6.566 12.41-9.324 22.59-21.578 24.813-42.324 4.488-41.816-9.332-37.582 9.07-59.867 12.988-15.734 37.91-68.59 42.207-91.91l3.05-6.727c7.813 1.098 2.063-.582 4.833 3.828 5.078-.757 3.91-.648 9.218 1.438l9.32 5.71c.31 20.317-12.26 38.415-12.14 55.4 29.922 11.488 93.5 7.835 123.781.16 36.848-9.344 63.329-23.004 90.938-43.758l6.152-4.79-.672-.398c3.473-5.883 6.473-8.742 12.43-12.156 59.523-56.148 65.691-155.023 44.492-231.633l-18.332-67.691-3.078-7.168c-.16-1.031-.64-1.23-1.219-2.031l-28.62 21.69c-6.302-2.948-4.93-3.448-10.583-8.21l-13.488-11.41c-5.23-8.39-64.52-56.18-72.102-58.86-2.93 52.66 1.891 57.328-22.257 97.891M635.943 76.377l-5.938 5.5-18.25 20.114c-2.781 10.449.098 3.129-4.691 6.277l-14.442 20.652c6.243 4.09 21.864 11.809 28.32 13.18 18.712-27.742 27.141-53.75 78.102-69.832 51.68-16.309 81.61 2.5 114.469 24.672l5.762 5.828c12.52 15.461 18.097 22.293 25.5 40.14 14.117 34.071 16.129 77.602-1.41 111.29-11.993 23.02-23.551 26.77-31.602 37.09l31.371 40.632 4.25 6.899c52.27 80.242 92.691 198.601 97.16 298.07 18.57-.32 27.719-5.988 50.301-1.719 46.668 8.797 69.008 40.97 76.598 89.66 28.132-7.41 76.922-51.601 80.511-98.902 4.711-62.129-45.55-111.008-65.671-114.07-5.34 13.98-7.72 31.812-19.778 36.09-1.07-24.11 3.457-49.48 1.09-95.38-3.46-66.96-10.89-108.359-29.191-171.19-7.512-25.77-17.512-47.25-26.782-71.79-5.129-5.238-5.59-6.16-7.859-14.437-11.61-26.774-38.11-61.063-58.148-83.082-4.942-2.3-2.942.86-5.743-6.219-5.937-5.473-13.437-12.742-17.097-14.941l-6.352-5.43C866.825 32.6 765.892 11.659 694.845 39.377c-20.871 8.141-47.86 22.622-58.902 37"/><path fill="#fdfdfd" fill-rule="evenodd" d="M1302.833 906.69c12.391 1.328 34.371 14.348 39.68 25.73 9.66 20.688-12.25 35.25-29.36 21.57-4.019-2.581-1.53.739-5.57-4.5-3.691-4.773.04.38-2.39-5.44l-7.82-18.15c-6.25-6.82-7.048-11.589-6.84-22.66 8.46-1.14 6.78-2.78 12.3 3.45m18.86-36.711-6.7-4.559c-4.32-5.421-1.128 1.27-3.417-7.73 81.867-30.75 82.18 34.789 39.507 26.559-12.02-2.32-21.058-8.95-29.39-14.27m-.25-57.04c3.582-6.37 1.96-4.401 8.66-9.421 7.672-3.059 15.332-11.957 26.332-15.93 34.039-12.257 49.39 38.39-36.832 29.73zm-141.23-18.429-5.81 5.14c-46.3 31.509-80.558 157.528-40.398 216.009 5.457 2.37 3.43.421 5.738 6.16 6.7 2.87 1.602 2.281 10.95 2.949.02-22.438 2.941-61.219 13.8-81.48 5.82-10.868-1.19-3.47 7.082-7.72-31.472 231.012 165.399 234.602 155.118 147.692l-29.23-7.601 2.19-17.122c14.141-1.878 38.083 5.301 50.391 9.954 17.66 6.66 23.88 14.546 34.989 23.937 2.66 3.402 6.12-6.05 1.55 6.262-.039.098-3.238 3.398-3.39 3.527-2.32 1.973-5.18 3.473-9 5.293-12.61-2.672-11.118-11.949-22.969-13.21-1.191 14.269-8.191 31.667-7.371 39.019 40.93 14.511 86.21 8.781 108.3-19.692 36.891-47.547 10.989-89.789 8.13-111.308 12.562 5.93 26.812 24.558 28.5 39.87 3.43 4.259 2.101-6.062 3.359 7.321l4.402-1.293c28.5-28.816 26.95-72.11 9.621-111.09-3.863-8.668-15.05-24.52-16.922-32.09 8.922 2.16 14.922 8.5 19.81 12.903 2.339 1.879 2.272 1.39 4.12 3.52 2.86 3.289.14-.29 2.84 5 3.91 3.859 6.66 7.218 8.52 13.519 7.222-2 .703 3.191 7.082-4.7 4.609-28.421 1.988-47.218-11.16-69.8-21.481-36.918-4.641-10.3-14.653-36.43-24.316-63.48-131.738-74.332-201.66-54.11-18.5 5.34-32.09 11.06-48.688 20.142-17.402 9.507-35.878 26.257-40.12 27.699-.09-9.281 4.75-14.442 9.128-21.18 12.14-18.672 9.774-9.21 9.39-18.39-24-5.63-36.198 1.91-53.64 11.3M107.072 165.499c-2.727 5.921.132 1.609-3.168 5.23-2.79 3.059-.903.621-4.891 2.898l-1.16 1.391c-3.492 8.152-1.055 3.902-8.567 7.7l-28.89 39.85c-55.27 88.302-32.703 193.04 45.324 253.75 28.117 21.872 56.566 32.95 91.805 35.25 2.058.141 5.73.161 7.648.481l8.27 3.04c-17.778 11.5-47.25 10.492-69.707 10.3-.18 81.102 119.488 47.031 156.77 26.078 3.257-36.168-1.552-56.207 25.468-94.25 43.789-61.656 84.559-20.898 95.93-84.386 2.421-13.52-23.918-45.602-38.82-80.602-3.598-8.46-5.641-14.45-8.079-22.8-2.562-8.712-3.082-21.06-7.312-24.489-16.688-8.98-57.957 9.68-65.938 18.187l-9.172 6.461c-14.148 14.32-36.941 48.04-16.93 73.532l7.59 7.87c29.52 25.458 59.012-5.12 78.692-11.25-4.512 28.72-59.711 58.548-97.742 29.75-7.328 2.598-13.969 9.169-24.11 12.727-11.508 4.043-23.62 3.524-35.968 2.782-3.352 11.16.01 3.359-4.84 6.671-21.063 22.32-49.93 32.008-80.79 20.957-23.796-8.52-38.593-41.218-37.773-70.5 14.434 10.23 18.801 38.942 45.328 49.313 30.543 11.937 56.262-8.223 61.133-30.871 11.192-52.04-34.379-105.531-71.125-115.758-7.648-1.5-9.765-.773-14.328-6.703 3.95-2.809 4.773-5.379 18.398-2.027 7.403 1.82 2.676.937 5.11 2.418 25.457.761 49.48 21.082 62.625 40.41 18.672 27.449 21.812 45.672 21.02 85.68 13.84.109 21.261-4.7 30.89-8.149 2.34-3.711-2.371-1.879 6.262-4.84 1.308-5.992-3.883-23.851-2.883-37.96 1.031-14.47 8.96-27.981 8.133-37.72-1.461-17.101-17.66-47.98-33.262-56.32l-6.258-6.012c-11.52-8.93-23.52-16.347-36.844-21.37-6.921-2.61-11.843-2.098-14.507-7.298 36.77-13.671 94.73 30.508 101.941 59.98 4.82 3.958.258-1.69 5.098 5.43.03.047 1.851 4.098 2.11 4.57l5.01-1.39c6.2-11.61 23.231-16.89 35.852-26.48-1-16.871-9.89-28.52-17.73-38.531l-8.16-7.961c-13.063-19.57-41.66-23.278-50.383-34.63 25.5-.78 43.98 6.59 60.371 18.262 6.621 3.141 7.242 3.22 11.77 8.739 3.57 6.59 11.152 12.968 15.59 20.992l13.222 25.77 33.18-1.512c3.68-44.27 10.828-39.5-3.992-61.66-7.52-3.668-2.98-.301-5.11-6.079l-2.23-3.191c-6.278-3.36-.13 1.48-6.707-4.219-3.692-3.191-1.133-1.312-3.223-4.16-29.938-28-82.988-41.973-131.11-31.152-61.523 13.84-102.624 55.031-108.831 57.8"/><path fill="#fff" fill-rule="evenodd" d="M719.665 1580.17c4.5 3.075 1.13-.82 5.868 4.996 4.562 5.594-.559-1.07 2.66 5.094 27.492 34.055 60.832 73.555 96.531 107.485l5.512 5.593 11.117 9.555c.039 50.645 16.43 84.059 72.11 78.676 41.94-4.051 77.03-27.934 98.581-52.188 36.809-41.437 55.309-121.062 38.18-177.543-10.34-34.082-28.711-18.918-41.61-30.105-4.831-4.613-4.222-4.281-6.831-8.672-9.32-12.676-55.11-75.262-63.97-79.766-4.519 3.54-7.07 6.22-12.12 10.344-73.918 60.309-155.77 67.367-248.36 63.89 2.352 5.981 1.79 5.11 5.211 10.758 8.258 13.668 30.91 41.243 37.121 51.883"/><path fill="#fdfdfd" fill-rule="evenodd" d="m184.404 1291.35-11.782 6.617c-36.437 13.953-84.027 79.602-81.609 134.871 9.77-3.472 15.48-12.336 24.938-17.984 69.152-41.297 158.132-21.277 220.933 30.086l6.309 5.07c2.601 3.45 16.34 17.04 21.152 20.61l9.45 10.726 26.269 33.23 3.851 7.583c16.188 21.609 29.278 47.918 42.63 72.074l3.73 8.05 4.258 7.024 4.43 6.54c12.23 11.073 26.78 29.41 35.98 44.714 13.011 21.625 15.699 34.797 18.312 63.637 22.48-1.18 47.938-32.786 52.48-61.203 4.907-30.727-12.19-39.547-33.44-79.848-31.262-59.305-41.93-110.09-66.442-159.566-48.54-98.012-147.27-193.473-281.45-132.231"/><path fill="#fff" fill-rule="evenodd" d="M873.575 1822.881c-3.44 41.367-7.703 65.32 5.977 106.719 37.55 113.594 179.3 103.8 226.75 34.676 36.59-53.297 28.172-142.586 19.922-210.707-2.762-22.828 12.578-51.051 6.488-115.094-3.398-35.691-22.137-61.203-53.949-66.992 8.531 74.105-10.07 140.289-44.148 183.789-36.723 46.879-80.352 67.32-161.04 67.61M179.993 1645.83l7.36 3.922c12.531 9.809 26.871 17.282 41.742 25.875 11.39 6.579 11.277 8.543 24.54 3.278 33.507-13.297 125.577-25.785 144.698-7.13-3.148 1.665-62.27 7.614-73.758 9.54-25.492 4.27-47.05 10.344-69.792 14.809 2.941 13.246 30.28 42.23 37.84 47.96l9.019 7.204c3.422 4.109 7.41 7.96 13.094 9.984l10.879 7.566c15.87 10.621 34.578 17.778 58.75 19.61 22.757 1.726 50.71.953 64.21-12.032 28.81-27.718-15.16-90.242-31.96-107.437l-4.711-6.184c-15.079-18.773-32.41-61.199-48.489-75.562l-4.5-7.055c-6.8-9.965-17.18-22.156-25.293-31.05-10.73-11.758-19.988-19.024-28.308-28.075-6.82-2.55-3.809-.617-6.031-5.398l-1.34-.094-7.149-5.059c-34.332-38.121-135.37-55.727-180.648-10.535-56.496 56.394 58.46 132.777 69.847 145.863"/><path fill="#fdfdfd" fill-rule="evenodd" d="m461.325 362.9 5.91 5.708c3.208 5.402 2.65 4.16 7.458 6.93 7.402-6.868 27.332-44 37.402-57.66-4.191-3.989-4.73-1.778-10.64-4.43 3.738-22.828 49.949-79.078 81.828-42.078 3.87 4.488 6.703 8.097 9.87 14.379 18.532 36.671-7.328 6.789 79.489 35.949 15.672 5.261 58.523 24.691 62.582 24.652-3.29-12-29.23-36.191-40.211-48.34-6.738-4.02-4.059-.222-7.77-8.5-3.82-1.793-41.14-36.5-48.21-42.73-14.68-12.942-38.32-31.32-52.86-38.93l-7.32-4.61c-21.25-18.511-80.04-33.55-83-41.421 58.172-12.988 173.902 82.84 218.21 127.25 9.5 9.512 15.81 18.219 24.442 25.808l4.18 6.98c5.527 4.661 9.34 10.622 13.43 14.243 61.277-11.621 53.59 13.027 68.48 15.027l1.45.114c-.673-3.23.82-1.742-5.231-9.422l-21.489-26.059c-2.8-2.011-2.25-1.199-4.48-3.32-1.82-1.73-2.93-3.242-4.98-5.762-5.63-12.367-70.36-70.82-77.7-73.597l-6.113-5.82c-32.867-27.493-70.367-52.071-105.66-68.27-31.11-14.274-102.867-38.953-146.387-27.59-78.383 20.45-63.55 123.719-30.39 182.18 7.277 12.828 27.16 41.898 37.71 49.32"/><path fill="#fff" fill-rule="evenodd" d="m819.736 883.55-6.274 5.038c-10.137 25.832-10.758 79.43-9.558 109.641.78 19.68 1.039 18.07 14.101 26.672 18.028 11.867 50.77 39.238 66.149 53.52 7.16 6.64 11.46 13.538 20.421 17.527 7.06-4.09 16.38-11.957 21.34-16.559 9.13-8.46 6.68-17.531 6.16-33.102-7.84 2.41-8.07 4.461-16.421 7.372-4.762-6.032-8.739-15.961-8.95-24.489 14.57-17.883 53.54-30.91 79.989-35.851 36.66-6.84 72.3-2.469 109.441-1.168-4.851-34.242-4.02-69.672 3.219-101.121 12.262-53.32 22.55-55.98 30.09-79.832-24.051-.617-59.989-1.989-83.051 1.793-36.36 50.918-107.957 83.226-172.508 69.386-33.18-7.097-25.789-21.238-54.148 1.172"/><path fill="#fdfdfd" fill-rule="evenodd" d="M439.505 1183.569c4.309-5.102 2.86-3.75 9.137-7.09 7.183-3.531 12.851-8.54 21.113-12.64 25.84-12.829 57.09-19.919 86.38-18.872 61.667 2.203 78.96 22.563 109.73 31.453l.238-3.03-18.367-12.173c-6.25-3.449-4.801-2.02-8.25-8.289-10.243-18.039-24.274-25.879-24.453-68.36-.188-44.19 15.03-64.058 15.062-79.44-31.91-1.22-130.352-7.38-153.64 4.1-12.54 19.602-20.282 77.852-30.583 104.11-11.578 29.532-40.41 51.192-78.609 54.442-6.488 20.148-6.738 53.379 3.29 69.62 11.862-.41 18.632-1.55 31.022-.64 6.067-9.422 10.067-19.699 16.7-29.101 8.3-11.758 13.27-14.54 21.23-24.09M435.204 1668.159l5.09 6.09c18.07 32.867 34.39 40.847 30.16 90.89 25.418-10.547 25.399-51.473 14.41-79.117-10.32-25.95-25.511-43.95-42.8-65.738l-40.602-67.926c-38.488-61.676-103.277-133.992-184.297-140.727-61.898-5.14-128.066 14.332-129.535 86.614 11.274-6.16 7.309-9.582 20.844-19.895 24.719-18.836 56.8-25.594 89.281-23.922 140.5 7.23 213.18 191.965 237.45 213.73M239.915 601.018c-4.55 3.32-7.043 3.223-12.453 5.14l3.18 10.403c.973 9.168 24.043 51.879 29.23 61.059l3.782 8.078 33.37 60.03c20.801 38.442 48.739 85.731 71.5 121.673 13.329 21.058 25.77 37.61 38.84 57.129 5.45 2.187 3.27 2.039 9.66.699 2.79-11.43 30.11-35.719 35.669-46.738-3.13-7.211-8.2-10.043-9.258-17.723-5.43-3.02-1.55.7-5.473-2.91-3.36-3.098-.937-.039-2.808-4.11l-7.11-1.98-2.199-5.559-20.68-16.84-5.902-4.87c-22.379-21.008-41.398-41.23-57.2-70.758-18.019-33.672-20.878-61.102-23.148-105.711l-7.273-9.04c-9.067-31.05 7.91-41.902-7.567-59.652-16.101 7.903-43.84 19.211-64.16 21.68"/><path fill="#fdfdfd" fill-rule="evenodd" d="m761.884 1117.678-8 7.973c-82.672 52.758-140.96-53.73-84.398-110 28.308-28.172 69.726-28.031 94.058 1.738 23.508 28.77 18.36 68.18-1.66 100.29m-49.43-204.508-4.941 7.11c-22.18 21.668-54.75 81.449-65.559 118.82-16.34 56.48-1.05 111.117 53.29 121.559 62.05 11.922 92.82-34.848 94.109-89.34 1.492-63.352-16.988-81.758.41-173.629-14.008 3.68-21.418 7.43-37 10.277-8.57 1.563-35.828 3.242-40.309 5.203"/><path fill="#0f0f0f" fill-rule="evenodd" d="M732.525 532.12c-6.102-19.903 10.07-36.692 19-26.082 5.02 5.972.508 31.671-19 26.082m-28.39 31.43c10.85 6.98 7.987 6.898 8.07 6.988l2.238 3.062 13.16 5.75c-15.59 16.93-38.809 6.027-45.75-14.41-7.07-20.82-.59-47.77 7.722-65.43 25.829-54.949 76.758-53.672 81.817-20.39 1.082 1.64 2.441-2.782 2.691 7.14.141 5.801-2.058 6.02-3.168 7.38l-5.32-6.74c-20.512-32.98-76.39 21.278-61.46 76.65m-18.083-114.782 6.082-6.11c14.691-4.327 20.191-17.077 46.14-12.398 15.15 2.73 27.41 14.18 31.438 28.117-10.59-3.066-13.57-9.898-29.187-9.027-24.973 1.379-46.422 25.34-56.18 47.117-11.652 26-21.473 73.813 7.207 92.063l9.633 6.59c-85.832 4.558-49.402-119.262-15.133-146.352m-34.43 144.781 6.364 5.301c11.297 7.918 24.117 12.34 40.558 11.41 19.418-1.101 23.77-8.8 37.059-14.39 3.152-5.211-.778-1.282 4.5-5.95 3.34-2.953 4.2-2.53 6.43-3.761 13.03-22.848 26.5-30.52 37.77-72.11 4.151-15.308 5.933-30.859 2.651-47.351-4.082-20.528-10.671-22.738-18.05-36.258-4.73-2.04-1.82-.23-5.329-2.55-2.722-1.81-2.16-2.02-3.96-4.02-44.641-26.47-87.23 15.12-105.54 44.379-11.84 18.921-20.152 39.23-21.542 62.28-1.52 25.122 3.78 52.4 19.09 63.02"/><path fill="#fafafa" fill-rule="evenodd" d="M1143.943 1614.99c1.48 17.77 4.332 29.567 4.941 47.887.602 17.961-.45 33.676-2.86 50.497-2.78 19.3-7.632 23.18-4.511 44.945 6.82 47.605 11.32 102.37 3.352 149.05-7.473 43.723-13.52 45.59-28.45 77.462 43.957-3.25 57.11-53.868 59.989-96.141 6.789-99.59-13.63-123.149-13.668-139.356 13.988-8.859 18.699-8.835 19.43-28.687.546-14.945-.262-32.941-2.173-46.922-3.3-24.055-10.98-53.371-32.351-63.363l-4.067-1.367zM635.033 151.69l14.46 7.777c15.641-9.656 63.04-60.02 77.84-65.258l7.79 46.86c17.19-5.93 38.902-22.758 56.742-25.621l16.148 136.781-25.219 5.5c1.45 7.398 12.559 17.121 17.64 21.07 39.411-14.68 62.25-117.32-5.089-170.73-39.66-31.461-98.48-32.738-136.781 3.68-6.29 5.98-23.36 25.992-23.531 39.941"/><path fill="#fdfdfd" fill-rule="evenodd" d="m912.962 590.4-8.699 8.079c-8.57 5.05-13.508 10.371-23.758 14.36-12.512 4.859-23.363 1.21-36.941 3.39-12 1.91-19.43 7.539-24.02 15.34-7.058 11.992-.52 21.422 1.828 31.98-8.199 12.942-20.168 21.29-17.168 42.051 3.032 20.961 22.891 21.711 39.051 13.758 22.93-11.29 37.418-42.29 61.04-57.207 2.507-5.07.609-3.223 6.34-5.242 14.378-9.168 12.87-6.059 11.14-28.848-1.02-13.41-2.82-26.344-4.39-39.961-4.852 1.29-1.47-1.121-4.423 2.3M723.595 1106.33c-1.633 1.32 3.57 3.208-7.062 3.231-6.02.01-4.5-2.773-5.02-3.691l7.742-3.493c21.918-19.43 21.95-29.16 19.93-60.296 12.45 6.48 11.789 27.769 7.789 40.097-3.95 12.192-11.559 20.64-23.379 24.152m-30.902-88.519c-2.95 3.77.152 2.559-7.48 4.438-8.88 11.789-14.66 13.07-19.66 31.468-14.45 53.16 33.183 86.922 73.042 66.64 52.45-26.687 23.398-134.288-45.902-102.546M448.185 916.94c-3.332 9.687-.5 3.738-5.582 6.578-1.77 4.293-13.64 18.64-17.738 24.91-5.762 8.813-10.91 17.192-16.43 26.352l-2.41 7.86 6.11 6.077c26.757 27.871 13.94 98.121-18.63 125.442-20.652 17.332-30.93 10.8-39.332 16.941 5.762 13.461 20.582 14.09 33.54 8.23 32.581-14.722 42.73-53.12 51.761-85.703 6.351-22.898 13.59-43.359 23.851-68.847l27.77-64.18c-5.39-8.73-14.973-17.101-23.723-22.95zM639.404 764.46c-10.22-.372-63.27 20.07-70.942 26.101-14.32 11.258-41.437 37.219-16.168 59.098 21.66 18.761 51.5 12.468 66.54-6.61 16.058-20.37 19.788-48.43 20.57-78.59"/><path fill="#fafafa" fill-rule="evenodd" d="m664.575 169.05 7.31 3.949 6.69.78c5.637-10.339 27.06-35.241 35.438-41.96l6.79 41.512c13.651-2.711 33.19-15.223 47.972-20.082l-2.11 73.8c-.75 20 .578 33.168 34.977 18.782l-13.5-107.84c-3.656-4.211-2.899-6.742-5.438-10.692l-7.761 2.461-42.778 21.328-3.793-10.187c-.648-2.762-1.367-7.84-1.82-10.582-1.277-7.68-2.18-16.602-3.387-23.238-8.75 2.558-9.043 5.23-17.082 12.347-11.02 9.762-42.238 34.77-48.02 43.34 3.38 5.922-.66 2.352 6.512 6.281"/><path fill="#0f0f0f" fill-rule="evenodd" d="m685.212 1022.249 7.48-4.438c69.301-31.742 98.352 75.86 45.903 102.547-39.86 20.281-87.492-13.48-73.043-66.64 5-18.4 10.781-19.68 19.66-31.47m68.672 103.402c2.27-4.07.18-2.242 3.07-4.902 3.309-3.04.168-.489 4.93-3.07 20.02-32.11 25.168-71.52 1.66-100.29-24.332-29.77-65.75-29.91-94.058-1.738-56.563 56.27 1.726 162.758 84.398 110"/><path fill="#fdfdfd" fill-rule="evenodd" d="M824.595 351.127c15.547 36.352 16.297 28.993 8.09 72.141-12.402-5.937-9.86-18.05-28.371-24.2l-3.899-1.257 1.25 4.117c7.758 20.992 21.559 49.48 32.188 66.48 14.062 22.5 36.91 34.352 65.222 38.743-1.34-24.422-20.5-65.992-29.851-85.621-5.75-12.07-29.32-61.653-43.18-70.29zM667.642 935.561l1.601-3.402-3.98 1.261c-7.238.418-26.36 7.778-36.61 10.059-70.71 15.73-104.35-9.531-120.718-11.129-7.942 14.688-16.692 27.527-21.36 45.418 21.84 1.8 55.04-1.27 78.977-.89 25.652.402 52.3 4.75 76.473 4.34 3.96-10.868 24.36-39.098 25.617-45.657"/><path fill="#fafafa" fill-rule="evenodd" d="m386.642 1081.659-4.68 6.73c-5.988 7.23-8.238 10.531-18.27 12.648 5.032-11.117 12.044-17.82 17.34-30.328 4.16-9.84 8.922-25.011 8.75-36.691-.07-1.957-.558-10.027-.34-11.66 1.782-13.5-.238-2.688 3.27-7.547 5.473 5.93 3.192 2.418 4.121 11.738.59 28.621-3.75 34.121-10.191 55.11m-1.02 26.242c2.582-4.653.07-1.864 3.133-5.082 2.25-2.371 1.738-1.489 4.438-3.418 12.36-16.934 22.281-40.281 20.32-70.371-.86-13.02-4.938-26.32-16.719-28.75-63.36-13.04-77.87 158.597-11.172 107.62M692.134 442.659c-3.05 7.672-.57 3.87-6.082 6.11-34.27 27.089-70.7 150.91 15.133 146.35l-9.633-6.59c-28.68-18.25-18.86-66.062-7.207-92.062 9.758-21.777 31.207-45.738 56.18-47.117 15.617-.871 18.597 5.961 29.187 9.027-4.027-13.937-16.289-25.386-31.437-28.117-25.95-4.68-31.45 8.07-46.14 12.399"/><path fill="#fafafa" fill-rule="evenodd" d="M714.443 573.6c-7.309-3.781-6.618-2.82-10.309-10.05-14.93-55.372 40.95-109.63 61.461-76.65l5.52 3.048.277-10.828c-5.059-33.282-55.988-34.559-81.817 20.39-8.312 17.66-14.792 44.61-7.722 65.43 6.941 20.437 30.16 31.34 45.75 14.41zM703.564 151.838c-5.489 11.41-17.39 17.473-20.899 28.653l76.938 57.039 1.98-72.992c-16.379 3.972-30.98 16.59-45.359 18.152l-4.41-25.66-2.352-7.59z"/><path fill="#0f0f0f" fill-rule="evenodd" d="m901.275 767.588 9.027-8.418c11.582-10.992 34.242-4.293 47.293.668 10.328 3.2 2.578 1.371 4.508-1l-5.02-9.82c-12.347-10.238-9.691-7.238-27.37-12.34 5.042-7.46 18.179-13.55 30.41-15.48 20.831-3.297 25.37 2.781 40.952 7.34-8.03-33.418-57.292-27.68-81.57-7.93-14.3 11.64-49.62 53.5-30.441 77.973 2.91-3.383 9.699-24.57 12.21-30.993"/><path fill="#fafafa" fill-rule="evenodd" d="M500.122 762.55c-1.078 33.949 87.262 5.929 108.77-2.321 9.871-3.781 26.812-7.27 26.812-20.809-43.511-9.082-53.62 22.598-135.582 23.13M509.372 448.08c12.743-2.43-2.379 3.2 3.73-.953 1.391-.949 3.411-3.078 3.86-3.699 7.863-19.46 28.242-55.008 58.582-44.418-3.539-20.37-32.082-22.492-48.199-8.46-10.973 9.538-25.043 30.91-28.922 46.98 4.031 5.347 6.192 6.308 10.95 10.55"/><path fill="#0c0c0c" fill-rule="evenodd" d="m1297.372 925.9 7.82 18.15c1.973 1.788 2.11 1.46 4.02 3.85 1.723 2.13 2.102 3.079 3.942 6.09 17.109 13.68 39.02-.882 29.359-21.57-5.309-11.382-27.289-24.402-39.68-25.73l-10.71-1.711zM1314.994 865.42l6.699 4.559c8.332 5.32 17.37 11.95 29.39 14.27 42.672 8.23 42.36-57.31-39.508-26.56 2.29 9-.902 2.31 3.418 7.731"/><path fill="#f5f5f5" fill-rule="evenodd" d="M530.095 466.26c5.52-16.332 13.148-40.86 31.469-44.242 13.68-2.527 10.261 3.293 20.02 7.692 1.261-37.692-25.54-30.66-41.65-13.399-6.6 7.066-34.421 44.848-9.839 49.95"/><path fill="#0f0f0f" fill-rule="evenodd" d="M1330.103 803.518c-2.867 4.973-.23 1.883-3.211 5.16-1.79 1.973-2.656 2.352-5.45 4.262l-1.84 4.379c86.224 8.66 70.872-41.988 36.833-29.73-11 3.972-18.66 12.87-26.332 15.93M719.255 1102.377l-2.91 3.582c-.262.418-.73 1.68-1.32 2.352l8.57-1.98c11.82-3.512 19.43-11.961 23.379-24.153 4-12.328 4.66-33.617-7.79-40.097 2.02 31.136 1.99 40.867-19.929 60.296"/><path fill="#0c0c0c" fill-rule="evenodd" d="M389.783 1034.018c.171 11.68-4.59 26.852-8.75 36.691-5.297 12.508-12.309 19.211-17.34 30.328 10.031-2.117 12.281-5.417 18.27-12.648 2.41-8.121 1.12-4.371 4.679-6.73 6.441-20.989 10.781-26.489 10.191-55.11l-4.37-7.91c-1.45 12.98 1.46 7.77-2.68 15.379"/><path fill="#f8f8f8" fill-rule="evenodd" d="M732.525 532.12c19.508 5.59 24.02-20.11 19-26.082-8.93-10.61-25.102 6.18-19 26.082"/><path fill="#f5f5f5" fill-rule="evenodd" d="M434.154 410.94c6.218 3.488 13.73 4.219 20.601 4.937l7.918-14.199c-9.539-5.52-6.82-6.8-16.781-11.64-3.7 3.55-9.817 14.82-11.738 20.902M549.474 468.87c.219.12.11 5.02 8.16 1.007 3.11-1.546 13.09-17.058 5.969-23.91-6.738-6.468-19.328 11.243-14.129 22.903"/><path fill="#e6e6e6" fill-rule="evenodd" d="m570.712 733.409 19.113-5.192c-2.062-5.59-2.953-5.578-8.761-9.488-5.989 3.871-9.551 9.89-10.352 14.68"/><path fill="#7f7f7f" fill-rule="evenodd" d="M116.048 244.811c-.418-.371-1.055-1.523-1.27-1.102l-4.187-2.648c-1.582-.852-3.074-1.273-5.09-2.5l19.727-.062c-2.434-1.48 2.293-.598-5.11-2.418-13.625-3.352-14.449-.782-18.398 2.027 4.563 5.93 6.68 5.203 14.328 6.703M1297.372 925.9l-5.25-20.921 10.711 1.71c-5.52-6.23-3.84-4.589-12.3-3.448-.207 11.07.59 15.84 6.84 22.66"/><path fill="#757575" fill-rule="evenodd" d="M389.783 1034.018c4.14-7.61 1.23-2.398 2.68-15.379l4.37 7.91c-.93-9.32 1.352-5.808-4.12-11.738-3.509 4.86-1.489-5.953-3.27 7.547-.219 1.633.27 9.703.34 11.66"/><path fill="#707070" fill-rule="evenodd" d="m230.642 616.561-3.18-10.402c5.41-1.918 7.903-1.82 12.453-5.14l-14.64 3.01c-.61 9.411-.723 7.938 5.367 12.532"/><path fill="#a3a3a3" fill-rule="evenodd" d="M1374.193 1107.51c3.82-1.82 6.68-3.32 9-5.293.152-.129 3.351-3.43 3.39-3.527 4.57-12.313 1.11-2.86-1.55-6.262-2.778 9.54-.79 3.04-8.79 11.922-.257.29-.84 1.91-1.03 1.52-.2-.403-.68 1.09-1.02 1.64"/><path fill="#666" fill-rule="evenodd" d="m198.493 617.87-3.57-9.34-15.64-3.11c14.972 10.48-.528-6.05 19.21 12.45"/><path fill="#999" fill-rule="evenodd" d="m774.943 129.76 7.761-2.46c2.54 3.949 1.782 6.48 5.438 10.69l-2.367-13.702c-5.301 1.113-.25-1.88-6.52 1.773-3.172 1.84-2.441 1.867-4.312 3.7"/><path fill="#8f8f8f" fill-rule="evenodd" d="M957.595 759.838c3.688 4.301-4.3 2.09 4.598 3.852 1.422-2.621 4.011-.34 1.332-8.082-2.442-7.07-4.371-5.149-6.442-6.59l5.02 9.82c-1.93 2.371 5.82 4.2-4.508 1"/><path fill="#707070" fill-rule="evenodd" d="m765.595 486.9 5.32 6.74c1.11-1.36 3.309-1.579 3.168-7.38-.25-9.922-1.609-5.5-2.691-7.14l-.277 10.828z"/><path fill="#8c8c8c" fill-rule="evenodd" d="m723.595 1106.33-8.57 1.981c.59-.672 1.058-1.934 1.32-2.352l2.91-3.582-7.742 3.493c.52.917-1 3.699 5.02 3.691 10.632-.024 5.43-1.91 7.062-3.23"/><path fill="#828282" fill-rule="evenodd" d="m412.134 988.717-6.11-6.078 2.41-7.86c-2.589 2.65-1.151-.03-3.679 4.36-3.23 5.59-.781 2.059-1.851 6.192z"/><path fill="#949494" fill-rule="evenodd" d="M901.122 1432.428c4.133-2.191 3.621-1.144 7.442-4.844 3.922-3.785 2.75-3.242 4.988-7.312-5.957 3.414-8.957 6.273-12.43 12.156"/><path fill="#878787" fill-rule="evenodd" d="m274.564 253.51-5.012 1.39c-.258-.472-2.078-4.523-2.11-4.57-4.84-7.12-.277-1.472-5.097-5.43l5.918 13.25z"/><path fill="#828282" fill-rule="evenodd" d="M555.552 532.409c-.668-.16-1.68-1.02-2.008-.489-.332.508-1.492-.43-1.91-.66-1.57-.851-3.66-2.281-4.898-3.32l2.547 7.96c12.011-.241 1.84.329 6.27-3.491M700.892 1231.659c2.512 3.808-1.317 1.39 4.262 5.03 6.332-2.741 3.21.06 7.582-8.46-4.012 3.488-1.75-4.191-4.453 5.898z"/><path fill="#8c8c8c" fill-rule="evenodd" d="m801.665 401.928-1.25-4.117 3.899 1.258c-2.45-4.031 3.148-2.48-7.442-4.86 2.32 13.16.75 4.38 4.793 7.72"/><path fill="#848284" fill-rule="evenodd" d="M667.642 935.561c5.691-3.953 2.582 2.75 5.594-7.262-9.364 2.239-4-.582-7.973 5.121l3.98-1.261z"/><path fill="#686868" fill-rule="evenodd" d="M1524.533 939.979c3.722 4.54-6.07 5.012 5.382 3.672l1.7-8.371c-6.38 7.89.14 2.699-7.082 4.699"/><path fill="#878787" fill-rule="evenodd" d="M509.372 448.08c2.711 3.938-4.199 3.54 5.211 3.188l2.38-7.84c-.45.621-2.47 2.75-3.86 3.7-6.11 4.152 9.012-1.477-3.73.953"/><path fill="#787878" fill-rule="evenodd" d="M306.283 172.909c-4.528-5.52-5.149-5.598-11.77-8.739 3.75 5.649-3.23.059 4.75 5.61 3.312 2.308 3.34 1.57 7.02 3.129"/><path fill="#7f7f7f" fill-rule="evenodd" d="M1011.622 209.588c-2.078-6.937-2.046-7.148-6.59-12.988-.277-.36-.847-.973-1.269-1.45 2.27 8.278 2.73 9.2 7.86 14.438"/><path fill="#848284" fill-rule="evenodd" d="M479.325 428.35c-3.07-8.121-3.652.52-.28-10.86-6.071 4.618-.731-4.132-5.84 6.598z"/><path fill="#828282" fill-rule="evenodd" d="m714.443 573.6-2.239-3.062c-.082-.09 2.782-.01-8.07-6.989 3.691 7.23 3 6.27 10.309 10.051"/><path fill="#787878" fill-rule="evenodd" d="M590.552 1615.666c-8.418-.417-4.34.758-11.848-6.566l6.79 9.95c9.242-.466 2.378.542 5.058-3.384"/><path fill="#848484" fill-rule="evenodd" d="m1496.544 1048.217-4.402 1.293c-1.258-13.383.07-3.062-3.36-7.32l3 9.719c7.993.07 2.372.89 4.762-3.692"/><path fill="#828282" fill-rule="evenodd" d="M728.193 1590.26c-3.219-6.164 1.902.5-2.66-5.094-4.739-5.816-1.368-1.921-5.868-4.996 1.168 2.192 2.547 5.106 3.989 6.793 2.718 3.192.89.942 4.539 3.297"/><path fill="#878787" fill-rule="evenodd" d="M1177.603 1109.967c-1.117-2.699-1.86-5.066-3.328-7.226-2.25-3.301-1.41-1.532-4.082-3.774 1.41 3.653 1.39 4.57 3.191 7.203 2.629 3.86.961 1.141 4.219 3.797"/><path fill="#848484" fill-rule="evenodd" d="M1543.415 861.46c-2.972-6.41 1.707.23-2.562-5.262-5.668-7.278-.91-1.48-5.64-4.989 3.292 6.31-1.477-.261 2.812 5.239 4.39 5.633 2.379 2.62 5.39 5.011M666.642 1421.565c7.781-6.18-.11-2.59 7.883-2.899-2.77-4.41 2.98-2.73-4.832-3.828z"/><path fill="#828282" fill-rule="evenodd" d="M647.736 1161.217c-2.473-5.34-.07-1.77-3.102-5.09-2.96-3.218-.82-.558-5.148-3.199 3.449 6.27 2 4.84 8.25 8.29"/><path fill="#8c8c8c" fill-rule="evenodd" d="M896.212 1125.229c-2.328-3.531-.879-1.941-3.226-4.64-.442-.5-1.711-1.821-2.223-2.25-3.988-3.43-3.46-2.43-8.039-4.52z"/><path fill="#898989" fill-rule="evenodd" d="M94.193 500.76c-2.817-3.883-.54-1.633-3.645-4.601-.55-.532-4.008-3.059-5.3-4.008 3.171 7.309-.18 3.809 8.945 8.61"/><path fill="#686868" fill-rule="evenodd" d="M385.622 1107.9c5.391-3.062 5.73-2.062 7.57-8.5-2.699 1.93-2.187 1.048-4.437 3.419-3.062 3.218-.55.43-3.133 5.082"/><path fill="#7f7f7f" fill-rule="evenodd" d="M1313.154 953.99c-1.84-3.011-2.22-3.96-3.942-6.09-1.91-2.39-2.047-2.062-4.02-3.85 2.43 5.82-1.3.667 2.391 5.44 4.04 5.239 1.551 1.919 5.57 4.5"/><path fill="#848484" fill-rule="evenodd" d="M807.044 613.51c4.04-2.25.13.969 4.64-2.77l4.95-5.3c-8.48 3.758-5.742 1.73-9.59 8.07"/><path fill="#7d7d7d" fill-rule="evenodd" d="M1008.615 1531.733c-1.723-5.742.52-5.852-6.832-8.672 2.609 4.39 2 4.059 6.832 8.672"/><path fill="#878787" fill-rule="evenodd" d="M417.025 925.229c-6.39 1.34-4.211 1.488-9.66-.7l5.757 5.821z"/><path fill="#8f8f8f" fill-rule="evenodd" d="M456.525 1209.788c6.527-3.637 4.687-1.899 8.61-7.57-4.79 2.03-2.142.25-5.27 2.78-4.063 3.27-.29-.308-3.34 4.79"/><path fill="#828282" fill-rule="evenodd" d="M674.595 1574.815c-1.68-3.516-1.621-3.996-3.562-6.434-2.547-3.21-1.391-1.336-4.399-3.71 1.711 3.222 2.078 4.374 3.86 6.616 2.171 2.735 1.351 1.317 4.101 3.528"/><path fill="#878787" fill-rule="evenodd" d="M799.325 315.76c-2.433-4.082 1.348-.43-2.972-4.68-4.418-4.363-2.11-1.91-6.488-4.402 2.05 2.52 3.16 4.031 4.98 5.762 2.23 2.121 1.68 1.309 4.48 3.32"/><path fill="#848484" fill-rule="evenodd" d="M356.943 147.229c-5.118-6.281-4.219-5.16-9.93-8.379 2.09 2.848-.469.969 3.223 4.16 6.578 5.7.43.86 6.707 4.219"/><path fill="#7d7d7d" fill-rule="evenodd" d="M439.505 1183.569c4.91-1.801 1.93.059 5.508-2.461 4.832-3.41.2.84 3.629-4.63-6.277 3.34-4.828 1.99-9.137 7.09"/><path fill="#898989" fill-rule="evenodd" d="M1321.443 812.94c2.793-1.91 3.66-2.29 5.449-4.262 2.98-3.277.344-.187 3.21-5.16-6.698 5.02-5.077 3.05-8.66 9.422"/><path fill="#878787" fill-rule="evenodd" d="M536.673 857.698c-1.578-2.797.211-2.219-3.937-6.188-6.203-5.93.398-.48-6.512-3.992z"/><path fill="#949494" fill-rule="evenodd" d="m435.154 853.749-9.309-7.54 2.2 5.56zm0 0"/><path fill="#848284" fill-rule="evenodd" d="m1143.943 1614.99-.367-5.995 4.066 1.367c-3.438-3.66 2.113-1.703-7.098-3.836z"/><path fill="#828282" fill-rule="evenodd" d="m703.564 151.838 5.898-2.398 2.352 7.59-.211-10.29z"/><path fill="#8c8c8c" fill-rule="evenodd" d="M895.954 2012.006c-3.011-4.957-1.05-2.832-5.359-7.16-4.21-4.226-1.992-2.18-6.941-5.203z"/><path fill="#898989" fill-rule="evenodd" d="m172.622 1297.967 11.782-6.617c-5.649 1.461-2.051-.812-8.012 2.598-4.938 2.832-.555.03-3.77 4.02"/><path fill="#828282" fill-rule="evenodd" d="m1112.833 731.967 10.13-8.379c-5.56 2.051-1.91-.507-5.4 2.29-5.78 4.62-1.69.831-4.73 6.09M325.615 1768.838l-10.88-7.566c3.829 6.125-2.331.602 5.098 5.531 3.762 2.496.692.309 5.782 2.035"/><path fill="#7f7f7f" fill-rule="evenodd" d="m373.794 1481.346-9.449-10.726c1.629 3.074.957 3.183 3.73 6.468 5.29 6.29 1.09 1.442 5.72 4.258"/><path fill="#949494" fill-rule="evenodd" d="m735.603 595.87 10.93-9.711c-2.23 1.23-3.09.808-6.43 3.761-5.278 4.668-1.348.739-4.5 5.95"/><path fill="#7d7d7d" fill-rule="evenodd" d="m744.615 1654.19-8.02-8.258c2.957 8.773.488 4.2 8.02 8.258"/><path fill="#898989" fill-rule="evenodd" d="m360.763 616.8-7.871-8.423c3.613 7.32-.52 4.75 7.871 8.422"/><path fill="#757575" fill-rule="evenodd" d="M318.915 648.03c-2.863-7.422.559-4.692-7.273-9.04z"/><path fill="#7d7d7d" fill-rule="evenodd" d="M89.286 182.717c7.512-3.797 5.075.453 8.567-7.699z"/><path fill="#878787" fill-rule="evenodd" d="M778.802 1162.21c7.39-3.942 4.422-.762 9.563-9.36z"/><path fill="#9b9b9b" fill-rule="evenodd" d="m301.642 1751.288-9.02-7.204c3.961 7.817 1.282 3.848 9.02 7.203"/><path fill="#848484" fill-rule="evenodd" d="m283.243 350.99-7.59-7.87c3.602 7.25-.73 4.41 7.59 7.87"/><path fill="#878787" fill-rule="evenodd" d="m577.115 1713.374 6.789-11.317c-2.68 2.43-1.649-.082-4.809 5.395-2.383 4.097.02-.196-1.98 5.922"/><path fill="#8f8f8f" fill-rule="evenodd" d="m567.755 630.358-9.05-7.559c2.84 4.891-.743 1.578 3.269 4.641 3.512 2.68.11.57 5.781 2.918"/><path fill="#828282" fill-rule="evenodd" d="M297.943 1515.561c-2.82-4.652 3.39-3.758-2.918-4.227l-4.23-.832z"/><path fill="#7d7d7d" fill-rule="evenodd" d="m695.013 298.01-7.77-8.5c3.711 8.278 1.032 4.48 7.77 8.5"/><path fill="#848484" fill-rule="evenodd" d="m218.013 219.6-1.469-4.152c-.8-4.328-.16.043-4.789-1.86z"/><path fill="#828282" fill-rule="evenodd" d="M292.685 188.499c-4.352-7.961-.332-3.872-8.16-7.961z"/><path fill="#7d7d7d" fill-rule="evenodd" d="M99.013 173.627c3.988-2.277 2.102.16 4.89-2.898 3.301-3.621.442.691 3.169-5.23z"/><path fill="#848484" fill-rule="evenodd" d="m904.263 598.479 8.7-8.078c-4.938 2.617-1.95-.203-5.27 3.137-3.04 3.03-.938.93-3.43 4.941"/><path fill="#898989" fill-rule="evenodd" d="m292.583 269.588 9.172-6.46c-3.05 1.19-2.992.363-5.62 2.363-4.083 3.11-.243-.582-3.552 4.097"/><path fill="#848484" fill-rule="evenodd" d="m753.884 1125.65 8-7.972c-4.762 2.582-1.621.031-4.93 3.07-2.89 2.66-.8.832-3.07 4.903"/><path fill="#898989" fill-rule="evenodd" d="M368.943 117.178c-2.899-5 3.84-2.43-6.809-5.097zM443.435 860.768l-8.281-7.02c1.87 4.07-.551 1.012 2.808 4.11 3.922 3.61.043-.11 5.473 2.91"/><path fill="#848484" fill-rule="evenodd" d="m707.513 920.28 4.941-7.11c-4.68 3.028-2.011-4.28-4.941 7.11"/><path fill="#878787" fill-rule="evenodd" d="M44.447 454.62c-3.106-10.54-.243-3.88-5.274-6.72zM112.81 1618.83l-6.3-5.777c2.476 5.317-3.509 2.145 6.3 5.777"/><path fill="#828282" fill-rule="evenodd" d="m133.708 581.76-4.742-6.27c.875 5.958-.02 4.618 4.742 6.27"/><path fill="#878787" fill-rule="evenodd" d="M39.103 201.15c4.941-2.792 2.234 3.45 5.344-6.75z"/><path fill="#828282" fill-rule="evenodd" d="M686.052 448.768c5.512-2.238 3.031 1.563 6.082-6.11z"/><path fill="#7d7d7d" fill-rule="evenodd" d="M898.384 687.8c10.078-3.083 4.219-.63 6.738-5.173z"/><path fill="#848284" fill-rule="evenodd" d="M586.173 207.85c-2.699-3.832 3.219-2.25-7.32-4.61z"/><path fill="#7f7f7f" fill-rule="evenodd" d="M442.603 923.518c5.082-2.84 2.25 3.11 5.582-6.578z"/><path fill="#878787" fill-rule="evenodd" d="m657.986 598.85-6.364-5.3c2.422 4.89-2.039 2.82 6.364 5.3"/><path fill="#828282" fill-rule="evenodd" d="M922.775 90.909c-2.59-4.98 3.25-2.14-6.352-5.43z"/><path fill="#7d7d7d" fill-rule="evenodd" d="m571.372 333.338-8.699-7.359c2.7 3.879-.09 1.602 3.54 4.461 2.882 2.27 1.112.789 5.16 2.898"/><path fill="#848484" fill-rule="evenodd" d="M712.165 233.08c-2.441-5.562.7-3.34-6.113-5.82z"/><path fill="#848284" fill-rule="evenodd" d="m467.236 368.608-5.91-5.707c2.257 5.328-1.672 2.879 5.91 5.707"/><path fill="#878787" fill-rule="evenodd" d="m1174.404 799.65 5.808-5.14c-8.82 2.668-3.488.117-5.808 5.14"/><path fill="#848484" fill-rule="evenodd" d="m847.384 338.819-4.25-6.899c2.469 11.93-.289 3.329 4.25 6.899M949.095 67.811c-2.5-6.094.438-2.902-6.012-5.07z"/><path fill="#898989" fill-rule="evenodd" d="m945.615 112.069-5.743-6.219c2.801 7.078.801 3.918 5.743 6.219"/><path fill="#848484" fill-rule="evenodd" d="M199.275 391.67c4.847-3.312 1.488 4.489 4.84-6.671zM607.064 108.268c4.789-3.148 1.91 4.172 4.691-6.277zM1139.744 1021.819c-2.31-5.738-.282-3.79-5.739-6.16z"/><path fill="#828282" fill-rule="evenodd" d="M1505.095 1077.33c8.758-1.992 4.77-1.042 7.559-4.519z"/><path fill="#7f7f7f" fill-rule="evenodd" d="m364.283 156.499-5.11-6.079c2.13 5.778-2.41 2.41 5.11 6.079"/><path fill="#898989" fill-rule="evenodd" d="M339.075 1016.64c3.63-2.61 2.458 1.128 4.649-7.4z"/><path fill="#828282" fill-rule="evenodd" d="m813.462 888.588 6.274-5.039c-8.89 2.95-3.942.95-6.274 5.04M343.193 1450.01l-6.309-5.07c2.328 4.156-2.71 1.93 6.309 5.07"/><path fill="#8c8c8c" fill-rule="evenodd" d="m768.904 430.44-9.29-6.57c1.801 2 1.239 2.21 3.961 4.02 3.508 2.32.598.51 5.329 2.55"/><path fill="#7d7d7d" fill-rule="evenodd" d="m305.314 1521.053-6.031-5.398c2.222 4.781-.79 2.847 6.03 5.398"/><path fill="#7f7f7f" fill-rule="evenodd" d="m819.275 102.768-5.762-5.828c2.262 5.14-.75 3.027 5.762 5.828"/><path fill="#848484" fill-rule="evenodd" d="m440.294 1674.249-5.09-6.09c2.68 7.785.801 3.902 5.09 6.09M904.294 662.15l6.34-5.241c-5.73 2.02-3.832.172-6.34 5.242"/><path fill="#828282" fill-rule="evenodd" d="m32.052 436.088-4.223-7.41c1.786 8.461 1.008 4.82 4.223 7.41"/><path fill="#898989" fill-rule="evenodd" d="m915.283 2026.006-6.47-3.922c2 3.168-3.94 1.555 6.47 3.922"/><path fill="#848484" fill-rule="evenodd" d="M901.275 767.588c2.5-1.66 2.43-1.09 5.77-4.238 3.57-3.371 1.09-1.21 3.257-4.18z"/><path fill="#828282" fill-rule="evenodd" d="m967.134 85.311-5.36-5.742c2.618 5.539-2.902 1.93 5.36 5.742"/><path fill="#7f7f7f" fill-rule="evenodd" d="M685.212 1022.249c7.633-1.88 4.531-.668 7.48-4.438z"/><path fill="#8c8c8c" fill-rule="evenodd" d="m723.915 1632.42-5.351-5.511c3.422 8.554.148 2.765 5.351 5.511"/><path fill="#848284" fill-rule="evenodd" d="M718.083 1626.354c-2.109-5.215-.34-3.324-5.691-5.695z"/><path fill="#828282" fill-rule="evenodd" d="m381.962 1088.39 4.68-6.731c-3.559 2.359-2.27-1.391-4.68 6.73"/><path fill="#757575" fill-rule="evenodd" d="M1516.013 926.46c-2.7-5.29.02-1.711-2.84-5-1.848-2.13-1.781-1.641-4.12-3.52z"/><path fill="#828282" fill-rule="evenodd" d="m239.763 356.44 6.262-4.84c-8.633 2.961-3.922 1.129-6.262 4.84"/><path fill="#898989" fill-rule="evenodd" d="M363.415 1587.233c-2.25-8.23-1.25-4.61-4.5-7.055z"/><path fill="#828282" fill-rule="evenodd" d="m630.005 81.877 5.938-5.5c-5.32 2.211-3.38.172-5.938 5.5"/><path fill="#848484" fill-rule="evenodd" d="M700.462 1606.561c-3-7.645-1.347-3.91-5.039-6.09z"/><path fill="#828282" fill-rule="evenodd" d="m830.236 1703.338-5.512-5.593c4.238 8.77.262 2.55 5.512 5.593"/><path fill="#848484" fill-rule="evenodd" d="M399.263 134.83c4.82-3.011-.379 1.399 4.422-2.992l4.7-5.43zM908.814 2022.084c-1.5-2.953 1.52-1.804-5.692-4.316zM450.712 1344.26l-4.437-7.05c1.918 6.167.847 4.12 4.437 7.05"/><path fill="#848284" fill-rule="evenodd" d="m450.275 1602.284-3.73-8.051c.718 3.96 1.23 5.308 3.73 8.05"/><path fill="#898989" fill-rule="evenodd" d="m1321.693 869.979-6.7-4.559z"/><path fill="#7d7d7d" fill-rule="evenodd" d="m263.654 685.698-3.782-8.078z"/><path fill="#848284" fill-rule="evenodd" d="m547.622 864.58-7.18-4.203z"/><path fill="#7d7d7d" fill-rule="evenodd" d="m416.615 1668.979-4.711-6.184z"/><path fill="#898989" fill-rule="evenodd" d="m403.915 1522.159-3.851-7.582z"/><path fill="#848484" fill-rule="evenodd" d="m1161.552 781.69 6.211-4.64zM405.165 829.37l-5.902-4.871z"/><path fill="#7f7f7f" fill-rule="evenodd" d="m671.884 172.999-7.309-3.95z"/><path fill="#828282" fill-rule="evenodd" d="m742.685 321.858-4.18-6.98z"/><path fill="#848484" fill-rule="evenodd" d="m458.962 1615.846-4.43-6.539z"/><path fill="#878787" fill-rule="evenodd" d="m92.427 143.249 5.66-5.168z"/><path fill="#848484" fill-rule="evenodd" d="m895.642 1437.616 6.152-4.79z"/><path fill="#898989" fill-rule="evenodd" d="m964.833 1428.897-4.89-7.152z"/><path fill="#7f7f7f" fill-rule="evenodd" d="m789.802 676.4 4.273-6.48zM187.353 1649.752l-7.36-3.921z"/></svg>