<?xml version="1.0" encoding="UTF-8" standalone="no"?>
<svg
   width="1558.1588"
   height="2049.4915"
   viewBox="0 0 1558.1588 2049.4914"
   version="1.1"
   id="svg181"
   sodipodi:docname="vecteezy_cute-illustration-designs-for-the-characters-in-the-super_27969806.svg"
   inkscape:version="1.3 (0e150ed6c4, 2023-07-21)"
   xmlns:inkscape="http://www.inkscape.org/namespaces/inkscape"
   xmlns:sodipodi="http://sodipodi.sourceforge.net/DTD/sodipodi-0.dtd"
   xmlns="http://www.w3.org/2000/svg"
   xmlns:svg="http://www.w3.org/2000/svg">
  <defs
     id="defs181" />
  <sodipodi:namedview
     id="namedview181"
     pagecolor="#ffffff"
     bordercolor="#000000"
     borderopacity="0.25"
     inkscape:showpageshadow="2"
     inkscape:pageopacity="0.0"
     inkscape:pagecheckerboard="0"
     inkscape:deskcolor="#d1d1d1"
     inkscape:zoom="0.18589065"
     inkscape:cx="594.43548"
     inkscape:cy="72.62334"
     inkscape:window-width="1366"
     inkscape:window-height="705"
     inkscape:window-x="-8"
     inkscape:window-y="-8"
     inkscape:window-maximized="1"
     inkscape:current-layer="svg181" />
  <path
     fill-rule="evenodd"
     fill="#0f0f0f"
     fill-opacity="1"
     d="m 873.57549,1822.8813 c 80.6875,-0.2891 124.3164,-20.7305 161.03911,-67.6094 34.0781,-43.5 52.6797,-109.6836 44.1484,-183.789 31.8125,5.789 50.5508,31.3007 53.9492,66.9921 6.0899,64.043 -9.25,92.2657 -6.4882,115.0938 8.25,68.1211 16.6679,157.4101 -19.9219,210.707 -47.4492,69.125 -189.19921,78.918 -226.75001,-34.6758 -13.6797,-41.3984 -9.418,-65.3515 -5.9766,-106.7187 z m 274.06641,-212.5195 c 21.3711,9.9921 29.0508,39.3086 32.3516,63.3632 1.9101,13.9805 2.7187,31.9766 2.1719,46.9219 -0.7305,19.8516 -5.4414,19.8281 -19.4297,28.6875 0.039,16.207 20.457,39.7656 13.6679,139.3555 -2.8789,42.2734 -16.0312,92.8906 -59.9882,96.1406 14.9297,-31.8711 20.9765,-33.7383 28.4492,-77.4609 7.9687,-46.6797 3.4687,-101.4453 -3.3516,-149.0508 -3.1211,-21.7656 1.7305,-25.6445 4.5117,-44.9453 2.4102,-16.8203 3.461,-32.5352 2.8594,-50.4961 -0.6094,-18.3203 -3.4609,-30.1172 -4.9414,-47.8867 l -3.3984,-8.4649 c 9.2109,2.1328 3.6601,0.1758 7.0976,3.836 z m -856.84761,-99.8594 4.2304,0.832 c 6.3086,0.4688 0.098,-0.4258 2.918,4.2266 l 1.3399,0.094 6.0312,5.3985 c 8.3203,9.0507 17.5781,16.3164 28.3086,28.0742 8.1133,8.8945 18.4922,21.0859 25.293,31.0508 3.25,2.4453 2.25,-1.1758 4.5,7.0547 16.0781,14.3632 33.4101,56.789 48.4882,75.5625 l 4.711,6.1835 c 16.8008,17.1954 60.7695,79.7188 31.9609,107.4375 -13.5,12.9844 -41.4531,13.7579 -64.2109,12.0313 -24.1719,-1.832 -42.8789,-8.9883 -58.75,-19.6094 -5.0899,-1.7265 -2.0195,0.461 -5.7813,-2.0351 -7.4297,-4.9297 -1.2695,0.5937 -5.0976,-5.5313 -5.6836,-2.0234 -9.6719,-5.875 -13.0938,-9.9844 -7.7383,-3.3554 -5.0586,0.6133 -9.0195,-7.2031 -7.5586,-5.7305 -34.8984,-34.7148 -37.8398,-47.9609 22.7421,-4.4649 44.3007,-10.5391 69.7929,-14.8086 11.4883,-1.9258 70.6094,-7.875 73.7578,-9.5391 -19.1211,-18.6562 -111.1914,-6.1679 -144.6992,7.1289 -13.2617,5.2657 -13.1484,3.3008 -24.539,-3.2773 -14.8711,-8.5938 -29.211,-16.0664 -41.7422,-25.875 l -7.3594,-3.9219 c -11.38673,-13.0859 -126.343756,-89.4687 -69.84767,-145.8633 45.27734,-45.1914 146.31637,-27.5859 180.64847,10.5352 z m 710.98831,12.5586 c 7.3515,2.8203 5.1093,2.9297 6.832,8.6719 12.8984,11.1875 31.2695,-3.9766 41.6094,30.1054 17.1289,56.4805 -1.3711,136.1055 -38.1797,177.543 -21.55081,24.2539 -56.64071,48.1367 -98.58211,52.1875 -55.6796,5.3828 -72.0703,-28.0313 -72.1093,-78.6758 l -11.1172,-9.5547 c -5.25,-3.0429 -1.2735,3.1758 -5.5117,-5.5937 -35.6993,-33.9297 -69.0391,-73.4297 -96.5313,-107.4844 -3.6484,-2.3555 -1.8203,-0.1055 -4.5391,-3.2969 -1.4414,-1.6875 -2.8203,-4.6015 -3.9882,-6.7929 -6.211,-10.6407 -28.8633,-38.2149 -37.1211,-51.8829 -3.4219,-5.6484 -2.8594,-4.7773 -5.211,-10.7578 92.5899,3.4766 174.4414,-3.582 248.3594,-63.8906 5.0508,-4.125 7.6016,-6.8047 12.1211,-10.3437 8.8594,4.5039 54.6484,67.0898 63.96881,79.7656 z m -561.48831,151.1875 c -4.2891,-2.1875 -2.4102,1.6953 -5.0899,-6.0899 -24.2695,-21.7656 -96.9492,-206.5 -237.4492,-213.7304 -32.48046,-1.6719 -64.56249,5.0859 -89.28124,23.9218 -13.535156,10.3125 -9.570316,13.7344 -20.843746,19.8946 1.46875,-72.2813 67.636706,-91.7539 129.535186,-86.6133 81.0195,6.7344 145.8086,79.0508 184.2968,140.7266 l 40.6016,67.9257 c 17.2891,21.7891 32.4805,39.7891 42.8008,65.7383 10.9883,27.6445 11.0078,68.5703 -14.4102,79.1172 4.2305,-50.043 -12.0898,-58.0234 -30.1601,-90.8906 z M 172.62238,1297.9672 c 3.21485,-3.9883 -1.16797,-1.1875 3.76951,-4.0195 5.961,-3.4102 2.3633,-1.1367 8.0117,-2.5977 134.1797,-61.2421 232.9102,34.2188 281.4493,132.2305 24.5117,49.4766 35.1797,100.2617 66.4414,159.5664 21.25,40.3008 38.3476,49.1211 33.4414,79.8477 -4.543,28.4179 -30,60.0234 -52.4805,61.2031 -2.6133,-28.8398 -5.3008,-42.0117 -18.3125,-63.6367 -9.1992,-15.3047 -23.75,-33.6406 -35.9805,-44.7149 l -4.4296,-6.539 -4.2579,-7.0235 c -2.5,-2.7422 -3.0117,-4.0898 -3.7304,-8.0507 -13.3516,-24.1563 -26.4414,-50.4649 -42.6289,-72.0743 l -3.8516,-7.582 -26.2695,-33.2305 c -4.6289,-2.8164 -0.4297,2.0313 -5.7188,-4.2578 -2.7734,-3.2851 -2.1015,-3.3945 -3.7304,-6.4687 -4.8125,-3.5703 -18.5508,-17.1602 -21.1524,-20.6094 -9.0195,-3.1406 -3.9805,-0.9141 -6.3086,-5.0703 -62.8008,-51.3633 -151.7812,-71.3828 -220.93358,-30.086 -9.45703,5.6485 -15.16797,14.5118 -24.937496,17.9844 -2.41797,-55.2695 45.171866,-120.9179 81.609366,-134.8711 z m 220.57031,-198.5664 c -1.8398,6.4375 -2.1797,5.4375 -7.5703,8.5 -66.6992,50.9766 -52.1875,-120.66005 11.1719,-107.6211 11.7812,2.4297 15.8593,15.7305 16.7187,28.75 1.961,30.0899 -7.9609,53.4375 -20.3203,70.3711 z m 246.293,53.5274 c 4.3281,2.6406 2.1875,-0.02 5.1484,3.1992 3.0313,3.3203 0.6289,-0.25 3.1016,5.0898 l 18.3672,12.1719 c 9.9023,2.9609 14.6797,6.9805 26.9297,9.6484 10.4296,2.2813 22.1015,3.4102 34.2226,2.4922 20.7188,-1.5625 38.8086,-8.9101 51.5469,-23.3203 l 9.5625,-9.3594 c 24.1484,-40.5625 19.3281,-45.2304 22.2578,-97.8906 7.582,2.6797 66.8711,50.4688 72.1016,58.8594 4.5781,2.0898 4.0507,1.0898 8.039,4.5195 0.5117,0.4297 1.7813,1.75 2.2227,2.25 2.3476,2.6992 0.8984,1.1094 3.2265,4.6406 5.6524,4.7618 4.2813,5.2618 10.5821,8.211 l 28.6211,-21.6914 c 0.5781,0.8008 1.0586,1 1.2187,2.0312 l 3.0781,7.168 18.3321,67.6914 c 21.1992,76.6094 15.0312,175.4844 -44.4922,231.6328 -2.2383,4.0703 -1.0664,3.5274 -4.9883,7.3125 -3.8203,3.6992 -3.3086,2.6524 -7.4414,4.8438 l 0.6719,0.3984 -6.1524,4.7891 c -27.6093,20.7539 -54.0898,34.414 -90.9375,43.7578 -30.2812,7.6758 -93.8593,11.3281 -123.7812,-0.1602 -0.1211,-16.9844 12.4492,-35.082 12.1406,-55.3984 l -9.3203,-5.711 c -5.3086,-2.0859 -4.1406,-2.1953 -9.2188,-1.4375 -7.9921,0.3086 -0.1015,-3.2812 -7.8828,2.8985 -4.2968,23.3203 -29.2187,76.1758 -42.207,91.9101 -18.4023,22.2852 -4.582,18.0508 -9.0703,59.8672 -2.2227,20.7461 -12.4024,33 -24.8125,42.3242 -2.6797,3.9258 4.1836,2.918 -5.0586,3.3829 l -6.7891,-9.9493 c -28.3125,-30.8242 -51.5,-86.8554 -66.6406,-129.7265 -8.9219,-25.2539 -15,-50.043 -25.3789,-72.3516 -10.9922,-23.6133 -23.25,-43.5703 -35.9727,-62.7617 -3.5898,-2.9297 -2.5195,-0.8828 -4.4375,-7.0508 -3.0117,-2.4297 -25.9921,-30.832 -43.789,-47.5 -4.8633,-4.5508 -11.7305,-9.4297 -16.3516,-14.5703 14.9102,-16.4805 36.5195,-6.3789 54.6992,-3.1406 -0.6093,-11.6406 -7.4297,-15.6797 -12.1211,-23.4492 6.4532,-15.6407 19.1016,-30.461 27.8125,-38.7618 3.0508,-5.0976 -0.7226,-1.5195 3.3399,-4.789 3.1289,-2.5313 0.4805,-0.75 5.2695,-2.7813 9.7891,-11.9062 37.2578,-22.1875 52.1211,-25.9179 22.457,-5.6211 52.1484,-5.0313 75.5,0.9882 21.0977,5.4414 40.8477,12.8125 58.8594,22.7227 19.8476,10.9102 31.4609,21.4883 49.2773,31.6484 l 7.3907,2.4688 c 2.7031,-10.0899 0.4414,-2.4102 4.4531,-5.8985 2.2969,-4.1289 4.6367,-7.2695 6.9375,-12.9179 -4.8203,-8.1133 -30.168,-24.4727 -39.9297,-30 -2.5703,-1.461 -4.2578,-2.0821 -7.3711,-3.8321 l -6.5078,-5.0585 c -30.7695,-8.8907 -48.0625,-29.25 -109.7305,-31.4532 -29.289,-1.0468 -60.539,6.043 -86.3789,18.8711 -8.2617,4.1016 -13.9297,9.1094 -21.1133,12.6406 -3.4297,5.4688 1.2032,1.2188 -3.6289,4.629 -3.5781,2.5195 -0.5976,0.6601 -5.5078,2.4609 -7.9609,9.5508 -12.9297,12.332 -21.2305,24.0898 -6.6328,9.4024 -10.6328,19.6797 -16.6992,29.1016 -12.3906,-0.9102 -19.1601,0.2305 -31.0234,0.6406 -10.0274,-16.2422 -9.7774,-49.4726 -3.2891,-69.6211 38.1992,-3.25 67.0313,-24.9101 78.6094,-54.4414 10.3008,-26.2578 18.043,-84.5078 30.582,-104.1094 23.2891,-11.48035 121.7305,-5.3203 153.6407,-4.1015 -0.031,15.3828 -15.25,35.25 -15.0625,79.4414 0.1796,42.4805 14.2109,50.3203 24.4531,68.3594 z m 25.7773,-219.50775 c 3.9727,-5.7032 -1.3906,-2.8829 7.9727,-5.1211 -3.0117,10.0117 0.098,3.3086 -5.5938,7.2617 -1.2578,6.5586 -21.6562,34.789 -25.6172,45.6562 -24.1718,0.4102 -50.8203,-3.9375 -76.4726,-4.3398 -23.9375,-0.3789 -57.1367,2.6914 -78.9766,0.8906 4.668,-17.8906 13.418,-30.7305 21.3594,-45.418 16.3672,1.5977 50.0078,26.8594 120.7187,11.1289 10.25,-2.2812 29.3711,-9.6406 36.6094,-10.0585 z m -253.1289,55.2968 -9.2305,-3.3867 c 1.0704,-4.1328 -1.3789,-0.6016 1.8516,-6.1914 2.5274,-4.3906 1.0899,-1.7109 3.6797,-4.3594 5.5195,-9.1601 10.668,-17.539 16.4297,-26.3515 4.0976,-6.2696 15.9687,-20.6172 17.7383,-24.9102 l 5.582,-6.5781 19.1875,-19.2891 c 8.75,5.8477 18.332,14.2188 23.7227,22.9492 l -27.7696,64.1797 c -10.2617,25.48825 -17.5,45.94915 -23.8515,68.84765 -9.0313,32.582 -19.1797,70.9805 -51.7618,85.7031 -12.957,5.8594 -27.7773,5.2305 -33.539,-8.2305 8.4023,-6.1406 18.6797,0.3907 39.332,-16.9414 32.5703,-27.3203 45.3867,-97.5703 18.6289,-125.44135 z m 295.3789,-68.4375 c 2.9297,-11.3906 0.2617,-4.082 4.9414,-7.1093 4.4805,-1.961 31.7383,-3.6407 40.3086,-5.2032 15.5821,-2.8476 22.9922,-6.5976 37,-10.2773 -17.3984,91.8711 1.0821,110.27725 -0.4101,173.62885 -1.2891,54.4922 -32.0586,101.2617 -94.1094,89.3398 -54.3399,-10.4414 -69.6289,-65.0781 -53.2891,-121.5586 10.8086,-37.3711 43.3789,-97.15225 65.5586,-118.82025 z m 105.9492,-31.6914 c 2.3321,-4.0898 -2.6171,-2.0898 6.2735,-5.039 28.3594,-22.4102 20.9687,-8.2696 54.1484,-1.1719 64.5508,13.8398 136.14851,-18.4688 172.50781,-69.3867 23.0625,-3.7813 59,-2.4102 83.0508,-1.793 -7.5391,23.8516 -17.8281,26.5117 -30.0898,79.832 -7.2383,31.4492 -8.0703,66.8789 -3.2188,101.1211 -37.1406,-1.3008 -72.7812,-5.6719 -109.44141,1.168 -26.4492,4.9414 -65.418,17.96865 -79.9883,35.85155 0.211,8.5273 4.1875,18.457 8.9492,24.4882 8.3516,-2.9101 8.5821,-4.9609 16.4219,-7.3711 0.5196,15.5704 2.9688,24.6407 -6.1601,33.1016 -4.961,4.6016 -14.2813,12.4688 -21.3399,16.5586 -8.9609,-3.9883 -13.2617,-10.8867 -20.4219,-17.5273 -15.3789,-14.2813 -48.121,-41.6524 -66.1484,-53.5196 -13.0625,-8.6015 -13.3203,-6.9922 -14.1016,-26.67185 -1.1992,-30.2109 -0.5781,-83.8085 9.5586,-109.6406 z m -174.0586,-124.1289 c -0.7812,30.1602 -4.5117,58.2188 -20.5703,78.5899 -15.039,19.0781 -44.8789,25.3711 -66.539,6.6093 -25.2696,-21.8789 1.8476,-47.8398 16.1679,-59.0976 7.6719,-6.0313 60.7227,-26.4727 70.9414,-26.1016 z m 892.21101,170.8203 -1.6992,8.3711 c -11.4532,1.3399 -1.6602,0.8672 -5.3828,-3.6719 -1.8594,-6.3007 -4.6094,-9.6601 -8.5196,-13.5195 l -6.9609,-8.5195 c -4.8867,-4.4024 -10.8867,-10.7422 -19.8086,-12.9024 1.8711,7.5704 13.0586,23.4219 16.9219,32.0899 17.3281,38.9805 18.8789,82.27335 -9.6211,111.08975 -2.3907,4.5821 3.2304,3.7617 -4.7617,3.6914 l -3,-9.7187 c -1.6875,-15.3125 -15.9375,-33.9414 -28.5,-39.8711 2.8593,21.5195 28.7617,63.7617 -8.129,111.3086 -22.0898,28.4726 -67.371,34.2031 -108.3007,19.6914 -0.8203,-7.3516 6.1797,-24.75 7.3711,-39.0195 11.8515,1.2617 10.3593,10.539 22.9687,13.2109 0.3399,-0.5508 0.8203,-2.043 1.0195,-1.6406 0.1914,0.3906 0.7735,-1.2305 1.0313,-1.5196 8,-8.8828 6.0117,-2.3828 8.7891,-11.9218 -11.1094,-9.3907 -17.3282,-17.2774 -34.9883,-23.9375 -12.3086,-4.6524 -36.25,-11.8321 -50.3907,-9.9532 l -2.1914,17.1211 29.2305,7.6016 c 10.2813,86.9102 -186.5898,83.3203 -155.1172,-147.69135 -8.2734,4.25 -1.2617,-3.1484 -7.082,7.7187 -10.8594,20.2618 -13.7813,59.04295 -13.8008,81.48045 -9.3476,-0.668 -4.25,-0.078 -10.9492,-2.9492 l -5.7383,-6.1602 c -40.1601,-58.48035 -5.9023,-184.49995 40.3984,-216.00775 2.3204,-5.0234 -3.0117,-2.4726 5.8086,-5.1406 17.4414,-9.3906 29.6407,-16.9297 53.6407,-11.3008 0.3828,9.1797 2.75,-0.2812 -9.3907,18.3906 -4.3789,6.7383 -9.2187,11.8985 -9.1289,21.1797 4.2422,-1.4414 22.7188,-18.1914 40.1211,-27.6992 16.5977,-9.082 30.1875,-14.8008 48.6875,-20.1406 69.9219,-20.2227 177.3438,-9.3711 201.6602,54.1094 10.0117,26.1289 -6.8281,-0.4883 14.6523,36.4296 13.1485,22.5821 15.7696,41.379 11.1602,69.8008 z M 500.12239,762.54935 c 81.9609,-0.5313 92.0703,-32.211 135.582,-23.1289 0,13.539 -16.9414,17.0273 -26.8125,20.8085 -21.5078,8.25 -109.8476,36.2696 -108.7695,2.3204 z m 70.5898,-29.1407 c 0.8008,-4.789 4.3633,-10.8086 10.3516,-14.6797 5.8086,3.9102 6.6992,3.8985 8.7617,9.4883 z m 333.5508,-134.9297 c 2.4922,-4.0117 0.3906,-1.9101 3.4297,-4.9414 3.3203,-3.3398 0.332,-0.5195 5.2695,-3.1367 2.9532,-3.4219 -0.4296,-1.0117 4.4219,-2.3008 1.5703,13.6172 3.3711,26.5508 4.3906,39.961 1.7305,22.789 3.2383,19.6797 -11.1406,28.8476 l -6.3398,5.2422 c -23.6211,14.918 -38.1094,45.918 -61.0391,57.2071 -16.1601,7.9531 -36.0195,7.2031 -39.0508,-13.7579 -3,-20.7617 8.9688,-29.1093 17.168,-42.0507 -2.3477,-10.5586 -8.8867,-19.9883 -1.8281,-31.9805 4.5898,-7.8008 12.0195,-13.4297 24.0195,-15.3399 13.5781,-2.1796 24.4297,1.4688 36.9414,-3.3906 10.25,-3.9883 15.1875,-9.3086 23.7578,-14.3594 z m -592.6211,40.5118 c 7.8321,4.3476 4.4102,1.6172 7.2735,9.039 2.2695,44.6094 5.1289,72.0391 23.1484,105.711 15.8008,29.5273 34.8203,49.75 57.1992,70.7578 l 5.9024,4.8711 20.6797,16.8398 9.3085,7.5391 8.2813,7.0195 c 1.0586,7.6797 6.1289,10.5117 9.2578,17.7227 -5.5586,11.0195 -32.8789,35.3086 -35.668,46.7382 l -3.9023,5.1211 -5.7578,-5.8203 c -13.0703,-19.5195 -25.5117,-36.0703 -38.8399,-57.1289 -22.7617,-35.9414 -50.6992,-83.2304 -71.5,-121.6719 l -33.3711,-60.0312 -3.7812,-8.0781 c -5.1875,-9.1797 -28.2578,-51.8907 -29.2305,-61.0586 -6.0898,-4.5938 -5.9765,-3.1211 -5.3672,-12.5313 l 14.6407,-3.0117 c 20.3203,-2.4687 48.0586,-13.7773 64.1601,-21.6797 15.4766,17.75 -1.5,28.6016 7.5664,59.6524 z m 237.8321,-170.12109 c -5.1993,-11.66016 7.3906,-29.3711 14.1289,-22.90235 7.1211,6.85157 -2.8594,22.36329 -5.9688,23.91016 -8.0508,4.01172 -7.9414,-0.88672 -8.1601,-1.00781 z m -19.3789,-2.60938 c -24.5821,-5.10156 3.2382,-42.88281 9.8398,-49.94922 16.1094,-17.26171 42.9102,-24.29296 41.6484,13.39844 -9.7578,-4.39844 -6.3398,-10.21875 -20.0195,-7.6914 -18.3203,3.38281 -25.9492,27.91015 -31.4687,44.24218 z m -95.9415,-55.32031 c 1.9219,-6.08203 8.0391,-17.35156 11.7383,-20.90234 9.961,4.83984 7.2422,6.12109 16.7813,11.64062 l -7.918,14.19922 c -6.8711,-0.71875 -14.3828,-1.44922 -20.6016,-4.9375 z m 82.8086,32.48828 -2.3789,7.83985 c -9.4101,0.35156 -2.5,0.75 -5.2109,-3.1875 -4.7578,-4.24219 -6.918,-5.20313 -10.9492,-10.55079 3.8789,-16.07031 17.9492,-37.4414 28.9219,-46.98046 16.1171,-14.03125 44.6601,-11.91016 48.1992,8.46093 -30.3399,-10.58984 -50.7188,24.95703 -58.5821,44.41797 z m 299.6719,162.0117 -4.9492,5.3008 c -4.5117,3.7382 -0.6016,0.5195 -4.6406,2.7695 -4.7813,6.207 -9.25,12.0586 -10.8907,21.5195 -2.9101,16.7383 2.25,17.2891 4.129,28.6602 l -6.2071,6.2305 -4.2734,6.4804 c -22.0977,28.0664 -4.9102,77.5781 38.2812,69.8594 16.8594,-3.0117 30.5391,-14.832 40.9688,-25.1914 7.8398,-7.7813 24.6133,-26.1992 29.332,-33.2695 l 6.7383,-5.1719 c 29.5195,-21.4297 71.082,-38.8477 108.13281,-10.2383 67.6172,52.2109 5.4375,191.3516 -122.08201,185.75 -15.0781,-0.6602 -27.7813,-4.8711 -40.6797,-12.0586 -18.8086,-10.4922 -11.3281,-1.2812 -46,16.25 -68.5899,34.6602 -91.5391,15.6094 -124.2109,35.4883 -46.0586,28.0195 -114.0704,40.1289 -164.9688,6.3984 -38.9414,-25.7968 -40.6016,-45.8593 -50.3203,-58.2383 -10.3399,-13.1601 -93.5703,-53.6992 -115.6914,-149.6601 -1.7969,-7.8008 -3.0977,-15.5899 -3.9297,-23.9297 -2.418,-24.1289 -1.5586,-17.8984 3.0312,-19.8203 0.3907,45.1211 16.8321,51.3086 49.4883,48.1484 1.25,17.8633 15.0821,31.6836 30.961,35.1719 25.6601,5.6406 33.4297,-10.7109 49.25,-16.1406 5.5898,16.2812 14.2617,15.4922 21.9101,27.4023 l -46.75,-1.3008 c 3.3516,16.168 17.0703,11 24.4024,18.918 1.7187,1.8516 11.8984,25.2813 14.3281,30.1524 11.6797,23.3281 33.1484,49.9804 34.2305,52.5976 6.9101,3.5117 0.3086,-1.9375 6.5117,3.9922 4.1484,3.9687 2.3594,3.3906 3.9375,6.1875 l 3.7695,2.6797 7.1797,4.2031 c 20,19.3086 67.543,15.9805 88.6914,-19.5 21.2617,-35.6406 16.3398,-66.7617 15.6602,-110.9023 18.5781,-9.418 20.0703,-13.0078 28.8007,-34.5586 33.3399,-0.1914 52.3985,-3.9922 63.3985,-28.2813 11.4023,-25.1679 6.039,-50.8086 -7.7578,-69.8594 -8.9532,2.2618 -15.9922,10.6915 -34.4727,18.9883 -35.2305,15.8203 -99.8476,24.9024 -138.8672,21.1602 2.8594,-5.8164 3.5391,-4.1797 4.6797,-11.2695 -5.6719,-2.3477 -2.2695,-0.2383 -5.7812,-2.918 -4.0118,-3.0625 -0.4297,0.25 -3.2696,-4.6406 l -8.6718,-4.9102 c -35.2579,27.1289 -41.7774,33.1094 -95.3282,31.5313 -37.332,-1.1016 -70.2812,-13.6915 -93.9414,-32.6211 -8.3906,-3.6719 -4.2578,-1.1016 -7.8711,-8.4219 -20.8164,-19.2383 -29.1172,-63.2774 -19.8398,-97.98826 8.9023,-33.26953 28.7226,-57.35938 58.6719,-67.60156 62.3593,-21.3086 138.9882,36.03125 155.0117,85.15232 1.2383,1.039 3.3281,2.4687 4.8984,3.3203 0.418,0.2305 1.5781,1.168 1.9102,0.6601 0.3281,-0.5312 1.3398,0.3282 2.0078,0.4883 l 11.4531,-6.2383 c -1.4297,-17.4921 -11.6601,-13.65225 0.6094,-31.08194 16.8086,-23.89063 30.9492,-74.08985 16.0781,-104.33985 -24.6484,-50.16796 -80.7187,-13.07031 -95.4492,39.3125 l -8.918,-1.71093 -6.1211,-4.26172 c 5.1094,-10.73047 -0.2304,-1.98047 5.8399,-6.59766 0.1914,-9.01172 24.9492,-48.13281 30.9414,-57.62109 9.5898,-15.17969 26.7969,-43.58203 52.6875,-33.89063 l 8.6992,7.35938 c 6.3633,9.5 9.1719,15.33203 14.2812,26.71094 7.9805,17.75 6.2891,24.51171 13.129,26.10937 6.4414,-17.71875 4.0195,-39.84766 4.7421,-59.23828 24.9297,-1.45313 89.7383,21.30859 108.0391,33.05859 -5.1719,12.58985 -35.25,26.3086 -39.8203,49 13.8203,-2.89843 29.2891,-10.66015 45.6719,-14.71875 15.9687,-3.96093 33.6797,-6.53125 52,-4.75 16.2968,8.46875 32.4492,99.03907 82.9687,129.05077 37.8906,22.5078 51.0195,5 57.3281,24.207 3.3907,10.3399 1.6329,19.0899 -4.1601,26.3906 -32.3086,40.7188 -58.9883,23.7813 -88.918,36.2813 z m -113.0703,-453.60154 8.0391,-5.09766 0.2109,10.28906 4.4102,25.66016 c 14.3789,-1.5625 28.9804,-14.17969 45.3593,-18.15234 l -1.9804,72.99218 -76.9375,-57.03906 c 3.5078,-11.17969 15.4101,-17.24219 20.8984,-28.65234 z m -124.7109,51.40234 c 10.539,2.35938 4.6211,0.77735 7.3203,4.60938 14.539,7.60937 38.1797,25.98828 52.8594,38.92968 7.0703,6.23047 44.3906,40.9375 48.2109,42.73047 l 7.7695,8.5 c 10.9805,12.14844 36.9219,36.33985 40.211,48.33985 -4.0586,0.0391 -46.9102,-19.39063 -62.5821,-24.65235 -86.8164,-29.16015 -60.957,0.72266 -79.4883,-35.94922 -3.1679,-6.28125 -6,-9.89062 -9.871,-14.3789 -31.879,-37 -78.0899,19.25 -81.8282,42.07812 5.9102,2.65235 6.4492,0.44141 10.6407,4.42969 -10.0704,13.66016 -30,50.79297 -37.4024,57.66016 -4.8086,-2.76953 -4.25,-1.52735 -7.457,-6.92969 -7.5821,-2.82813 -3.6524,-0.37891 -5.9102,-5.70703 -10.5508,-7.42188 -30.4336,-36.49219 -37.7109,-49.32031 -33.1602,-58.46094 -47.9922,-161.73047 30.3906,-182.17969 43.5195,-11.36328 115.2774,13.3164 146.3867,27.58984 35.293,16.19922 72.793,40.77735 105.6602,68.26953 6.8125,2.48047 3.6719,0.25782 6.1133,5.82032 7.3398,2.77734 72.0703,61.23046 77.6992,73.59765 4.3789,2.49219 2.0703,0.0391 6.4883,4.40235 4.3203,4.25 0.539,0.59765 2.9726,4.67968 l 21.4883,26.0586 c 6.0508,7.67968 4.5586,6.1914 5.2305,9.42187 13.8593,8.63672 37.4297,58.21875 43.1797,70.28906 9.3515,19.62891 28.5117,61.19922 29.8515,85.6211 -28.3125,-4.39063 -51.1601,-16.24219 -65.2226,-38.74219 -10.6289,-17 -24.4297,-45.48828 -32.1875,-66.48047 -4.043,-3.33984 -2.4727,5.44141 -4.793,-7.71875 10.5898,2.37891 4.9922,0.82813 7.4414,4.85938 18.5117,6.14843 15.9688,18.26172 28.3711,24.19922 8.207,-43.14844 7.457,-35.78907 -8.0898,-72.14063 -14.8907,-2 -7.2032,-26.64844 -68.4805,-15.02734 -4.0899,-3.6211 -7.9024,-9.58203 -13.4297,-14.24219 l -4.1797,-6.98047 c -8.6328,-7.58984 -14.9414,-16.29687 -24.4414,-25.80859 -44.3086,-44.41016 -160.0391,-140.23828 -218.2109,-127.25 2.9609,7.87109 61.75,22.91015 83,41.42187 z m -294.3282,-22.70312 c 7.8282,4.08984 3.8086,0 8.1602,7.96093 7.8398,10.01172 16.7305,21.66016 17.7305,38.53125 -12.6211,9.58985 -29.6524,14.8711 -35.8516,26.48047 l -6.3008,4.64063 -5.9179,-13.25 c -7.211,-29.47266 -65.1719,-73.65235 -101.94146,-59.98047 2.66407,5.19922 7.58594,4.6875 14.50782,7.29687 13.32424,5.02344 25.32424,12.44141 36.84374,21.3711 4.6289,1.90234 3.9883,-2.46875 4.7891,1.85937 l 1.4687,4.15235 c 15.6016,8.33984 31.8008,39.21875 33.2617,56.32031 0.8282,9.73828 -7.1015,23.25 -8.1328,37.71875 -1,14.10937 4.1914,31.96875 2.8828,37.96094 l -6.2617,4.83984 c -9.6289,3.44922 -17.0508,8.25781 -30.8906,8.14844 0.793,-40.00781 -2.3477,-58.23047 -21.0195,-85.67969 -13.14457,-19.32812 -37.16801,-39.64844 -62.62504,-40.41016 l -19.72656,0.0625 c 2.01562,1.22657 3.50781,1.64844 5.08984,2.5 l 4.1875,2.64844 c 0.21485,-0.42187 0.85157,0.73047 1.26953,1.10156 36.7461,10.22657 82.31643,63.71875 71.12503,115.75782 -4.8711,22.64843 -30.58987,42.80859 -61.13284,30.87109 -26.527336,-10.37109 -30.894526,-39.08203 -45.328116,-49.3125 -0.82032,29.28125 13.97656,61.98047 37.773426,70.5 30.85938,11.05078 59.72653,1.36328 80.78903,-20.95703 l 4.8399,-6.67188 c 12.3476,0.74219 24.4609,1.26172 35.9687,-2.78125 10.1407,-3.55859 16.7813,-10.1289 24.1094,-12.72656 38.0313,28.79688 93.2305,-1.03125 97.7422,-29.75 -19.6797,6.12891 -49.1719,36.70703 -78.6914,11.25 -8.3203,-3.46094 -3.9883,-0.62109 -7.5899,-7.87109 -20.0117,-25.49219 2.7813,-59.21094 16.9297,-73.53125 3.3086,-4.67969 -0.5312,-0.98828 3.5508,-4.09766 2.6289,-2 2.5703,-1.17187 5.6211,-2.36328 7.9805,-8.50781 49.25,-27.16797 65.9375,-18.1875 4.2305,3.42969 4.75,15.77734 7.3125,24.48828 2.4375,8.35156 4.4805,14.33985 8.0781,22.80078 14.9024,35 41.2422,67.08203 38.8203,80.60157 -11.371,63.48828 -52.1406,22.73046 -95.9296,84.38671 -27.0196,38.04297 -22.211,58.08204 -25.4688,94.24994 -37.2812,20.9532 -156.94921,55.0235 -156.76953,-26.0781 22.45704,0.1914 51.92973,1.1992 69.70703,-10.3008 l -8.2695,-3.039 c -1.918,-0.32032 -5.5899,-0.33985 -7.6485,-0.48047 -35.23824,-2.30078 -63.68746,-13.37891 -91.80465,-35.25 C 27.692704,415.60794 5.1262937,310.86966 60.395824,222.56888 l 28.89063,-39.85157 8.5664,-7.69921 1.16016,-1.39063 8.058586,-8.12891 c 6.20703,-2.76953 47.3086,-43.96093 108.83199,-57.80078 48.1211,-10.820315 101.1719,3.15235 131.1094,31.15235 5.711,3.21875 4.8125,2.09765 9.9297,8.3789 l 2.2305,3.19141 5.1094,6.07812 c 14.8203,22.16016 7.6718,17.39063 3.9921,61.66016 l -33.1796,1.51172 -13.2227,-25.76953 c -4.4375,-8.02344 -12.0195,-14.40235 -15.5898,-20.99219 -3.6797,-1.55859 -3.7071,-0.82031 -7.0196,-3.12891 -7.9804,-5.55078 -1,0.0391 -4.75,-5.60937 -16.3906,-11.67188 -34.8711,-19.04297 -60.3711,-18.26172 8.7227,11.35156 37.3203,15.05859 50.3828,34.62891 z m 387.3594,-7.53907 -7.3086,-3.94921 c -7.1719,-3.92969 -3.1328,-0.35938 -6.5117,-6.28125 5.7813,-8.57032 37,-33.57813 48.0195,-43.33985 8.0391,-7.11719 8.3321,-9.78906 17.0821,-12.34765 1.207,6.63671 2.1093,15.55859 3.3867,23.23828 0.4531,2.74218 1.1719,7.82031 1.8203,10.58203 l 3.793,10.1875 42.7773,-21.32813 c 1.8711,-1.83203 1.1406,-1.85937 4.3125,-3.69922 6.2695,-3.65234 1.2188,-0.66015 6.5195,-1.77343 l 2.3672,13.70312 13.5,107.83985 c -34.3984,14.38671 -35.7265,1.21875 -34.9765,-18.78125 l 2.1093,-73.80079 c -14.7812,4.85938 -34.3203,17.3711 -47.9726,20.08204 l -6.7891,-41.51172 c -8.3789,6.71875 -29.8008,31.62109 -35.4375,41.96093 z m -36.8515,-21.30859 c 0.1718,-13.94922 17.2421,-33.96094 23.5312,-39.94141 38.3008,-36.417965 97.1211,-35.140625 136.7813,-3.67968 67.3398,53.41015 44.5,156.05078 5.0898,170.73047 -5.082,-3.94922 -16.1914,-13.67188 -17.6406,-21.07032 l 25.2187,-5.5 -16.1484,-136.78125 c -17.8399,2.86328 -39.5508,19.69141 -56.7422,25.6211 l -7.7891,-46.859385 c -14.8007,5.23828 -62.1992,55.601565 -77.8398,65.257815 z m -27.9688,-43.42187 4.6914,-6.27735 18.25,-20.113285 c 2.5586,-5.32812 0.6172,-3.28906 5.9375,-5.5 11.043,-14.37891 38.0313,-28.85937 58.9024,-37 71.0468,-27.71875 171.9804,-6.77734 221.5781,46.10156 9.6015,3.28907 3.7617,0.44922 6.3515,5.42969 3.6602,2.19922 11.1602,9.468755 17.0977,14.941415 l 5.7422,6.21875 c 20.039,22.01953 46.539,56.30859 58.14841,83.08203 0.4219,0.47656 0.9922,1.08984 1.2696,1.44922 4.5429,5.83984 4.5117,6.05078 6.5898,12.98828 9.2695,24.53906 19.2695,46.01953 26.7812,71.78906 18.3008,62.83203 25.7305,104.23047 29.1915,171.19141 2.3671,45.89843 -2.1602,71.26947 -1.0899,95.37887 12.0586,-4.2773 14.4375,-22.1094 19.7774,-36.08981 20.121,3.06245 70.3828,51.94141 65.6718,114.07031 -3.5898,47.3007 -52.3789,91.4922 -80.5117,98.9023 -7.5898,-48.6914 -29.9297,-80.8633 -76.59761,-89.6601 -22.5821,-4.2696 -31.7305,1.3984 -50.3008,1.7187 -4.4688,-99.4688 -44.8907,-217.82809 -97.1602,-298.07027 -4.539,-3.57032 -1.7812,5.03125 -4.25,-6.89844 l -31.3711,-40.63281 c 8.0508,-10.32032 19.6094,-14.07032 31.6016,-37.08985 17.539,-33.6875 15.5273,-77.21875 1.4101,-111.28906 -7.4023,-17.84766 -12.9804,-24.67969 -25.5,-40.14062 -6.5117,-2.800795 -3.5,-0.6875 -5.7617,-5.828135 -32.8594,-22.17187 -62.789,-40.98047 -114.4687,-24.67187 -50.961,16.08203 -59.3907,42.089845 -78.1016,69.832035 -6.457,-1.3711 -22.0781,-9.08985 -28.3203,-13.17969 z m -198.6797,18.14062 -4.6992,5.42969 c -4.8008,4.39062 0.3984,-0.0195 -4.4219,2.99219 -2.9375,2.95703 -4.2109,5.54687 -8.7695,8.09765 -8.918,-9.69922 -11.1992,-16.76953 -21.5508,-25.75 l -6.8086,-5.09765 c -26.7617,-26.902355 -97.25,-39.179695 -141.5195,-30.871105 -27.3321,5.14063 -44.92971,10.60938 -68.25393,23.007815 -30.57031,16.25 -37.85546,24.45313 -54.273426,33.86329 l -5.66016,5.16796 c -17.05469,18.03125 -35.22656,31.16016 -47.98047,51.15235 -3.10937,10.19922 -0.40234,3.95703 -5.34375,6.75 -2.78515,9.09765 -19.71875,34.5 -24.98437,48.82812 C 7.1653537,268.90091 1.6223837,287.85013 0.36457365,308.94778 -2.0572963,349.60794 7.6419137,404.86966 27.829414,428.67825 l 4.22266,7.41016 7.12109,11.8125 c 5.03125,2.83984 2.16797,-3.82031 5.27344,6.71875 11.76172,13.26953 25.58985,27.94922 40.80078,37.53125 1.29297,0.94922 4.75,3.47656 5.30078,4.00781 3.10547,2.96875 0.82813,0.71875 3.64454,4.60156 2.69921,0.96875 19.156246,11.51953 23.359366,14.32807 3.78125,21.1797 -5.11328,38.6524 11.41406,60.4024 l 4.74219,6.2695 c 9.15234,9.8984 27.51172,22.8672 45.57417,23.6602 l 15.6407,3.1093 3.5703,9.3399 c 2.6601,12.7109 35.6484,74.6797 43.8203,89.8281 15.25,28.2617 31.3398,57.793 47.9688,84.6328 8.6796,14.0195 102.1015,162.9805 101.6406,165.9375 -6.25,10.7109 -12.2305,22.1328 -21.9883,28.2305 -22.043,13.78115 -17.8203,17.16005 -26.2109,22.74215 -2.1914,8.5273 -1.0196,4.789 -4.6485,7.3984 -11.3125,24.1211 -25.4101,50.3906 -15.0234,83.7383 4.6406,14.9023 4.3828,10.8906 5.2734,28.4023 0.7188,14.3594 5.6602,12.9492 4.1602,31.0782 -4.9219,59.7031 4.3594,60.9101 8.9062,93.6914 -57.707,-14.5196 -98.6875,-18.1485 -153.5,3.8593 -71.59763,28.7422 -133.156226,101.5118 -128.882786,181.7891 0.84375,15.875 7.1875,26.6602 7.78125,37.5117 3.88281,70.711 -10.57422,70.5274 38.718746,136.3438 l 6.30078,5.7773 c 15.7461,26.0274 86.63281,63.0469 110.43361,78.4336 6.1914,4.0039 27.3008,37.6484 41.8203,53.4297 67.1406,72.9609 174.75,86.8594 230.6211,21.8359 14.9805,-17.4375 4.5391,-9.5937 27.457,-19.2187 25.5821,-10.7461 37.7227,-19.461 53.9727,-39.9375 2,-6.1172 -0.4024,-1.8242 1.9805,-5.9219 3.1601,-5.4766 2.1289,-2.9648 4.8085,-5.3945 4.3321,-15.4375 8.6915,-22.0977 9.7305,-39.9961 20.7578,-4.4727 35.0899,-23.6992 43.5781,-42.8516 16.7735,-37.8281 10.0235,-58.582 14.75,-71.3594 7.0704,2.8829 10.3204,10.6954 14.6719,16.8204 3.0078,2.375 1.8516,0.5 4.3985,3.7109 1.9414,2.4375 1.8828,2.918 3.5625,6.4336 5.9882,7.8633 15.8671,19.6328 20.8281,25.6562 3.6914,2.1797 2.039,-1.5547 5.039,6.0899 l 11.9297,14.0976 c 5.3516,2.3711 3.5821,0.4805 5.6914,5.6953 l 0.4805,0.5547 5.3516,5.5118 c 3.0976,3.8945 8.8281,10.3007 12.6797,13.5117 l 8.0195,8.2578 c 6.2305,12.168 49.1992,52.375 59.8711,62.3672 13.7695,12.8945 6.1289,17.9843 12.8984,48.4804 3.961,17.8321 10.3086,28.3399 20.3203,40.0704 8.6211,10.1015 5.7383,11.164 4.2578,25.2226 -1.039,9.8711 -1.5195,19.875 -1.5898,29.8047 -0.1484,19.2344 1.5117,39.5391 5.0898,56.9258 9.3321,45.3086 16.9297,50.3086 38.1914,82.582 4.9493,3.0234 2.7305,0.9766 6.9415,5.2031 4.3085,4.3282 2.3476,2.2032 5.3593,7.1602 l 7.168,5.7617 c 7.2109,2.5117 4.1914,1.3633 5.6914,4.3164 l 6.4688,3.9219 c 31.6015,21.3789 78.8593,29.8789 124.91011,18.2695 28.082,-7.0781 42.4922,-19.9062 51.9297,-22.6445 25,-7.25 35.5312,-0.5274 59.6211,-16.3594 51.9922,-34.1601 53.8789,-117.043 48.7422,-176.2539 -2.9414,-33.8984 -13.6016,-55.8984 -13.7813,-61.957 13.8711,-7.9414 18.3008,-12.3672 19.6289,-28.8438 4.3594,-54.082 1.1407,-113.9961 -43.1797,-147.7304 -9.7617,-7.4258 -21.4179,-11.1211 -29.6796,-16.9649 -14.961,-10.5937 -24.3321,-32.1289 -60.5391,-34.789 -6.5508,-22.8438 -24.6719,-28.2071 -50.9102,-30.125 l -57.19141,-79.711 -4.8906,-7.1523 c -1.7695,-9.3008 23.8008,-38.7422 34.1914,-84.086 17.60161,-76.8086 1.5313,-129.9297 -19.5586,-200.6484 -8.2109,-27.5508 -13.1719,-75.6094 -10.1836,-107.9414 35.3438,-14.0078 96.55081,-15.2813 135.35161,-6.8789 21.6797,4.6992 7.6992,24.6289 54.0703,34.6211 4.75,17.3594 10.2891,27.9492 16.3789,42.1562 2.6719,2.2422 1.832,0.4727 4.082,3.7735 1.4688,2.1601 2.211,4.5273 3.3282,7.2265 19.3906,37.1133 82,67.9922 128.6718,52.6133 33.9493,-11.1797 7.3477,-10.3711 44.2579,-0.5508 43.0117,11.4375 113.4023,-1.6992 135.6796,-43.3593 18.2305,-34.0899 0.4532,-30.043 18.8829,-41.3399 l 7.5585,-4.5195 c 12.0821,-6.4922 23,-24.7735 26.8711,-39.7813 4.5,-17.4414 -0.5,-50.42965 6.5196,-62.49995 10.9804,-18.9023 12.6992,-31.082 11.9687,-56.6601 -0.7578,-27.0391 -6.9804,-31.2617 -14.5976,-52.4102 -3.0118,-2.3906 -1,0.6211 -5.3907,-5.0117 -4.289,-5.5 0.4805,1.0703 -2.8125,-5.2383 -7.8398,-38.1601 -21.1679,-62.7187 -49.2773,-82.1914 -42.7227,-29.5781 -112.6797,-33.1289 -165.6328,-21.9492 -31.25,6.6016 -28.3594,9.1797 -49.8672,16.7187 -10.9922,3.8399 -67.9219,-16.7578 -102.6719,13.2618 l -6.2109,4.6406 -98.957,1.0078 c 2.6093,-19.5703 7.7304,-27.0195 19.0585,-32.7383 7.1915,-3.6211 25.8008,-16.8515 31.1797,-17.9922 3.0391,-5.2578 -1.0507,-1.4687 4.7305,-6.0898 3.4883,-2.7969 -0.1602,-0.2383 5.3984,-2.2891 35.5,-27.3281 66.2227,-68.2304 52.7735,-132.25 -7.3321,-34.8789 -28.75,-68.0273 -55.5703,-88.01947 -43.2305,-32.21875 -25.5703,-2.33985 -27.9727,-81.3711 -0.5976,-19.63672 -2.3086,-41.23047 -5.0703,-60.03906 -15.1875,-103.37109 -50.0469,-201.82031 -119.98831,-276.597665 -8.2617,-3.8125 -2.7422,-0.20312 -5.3594,-5.74218 l -12.6796,-11.75782 -6.0118,-5.07031 c -15.9882,-18.27344 -60.4179,-40.75 -87.9687,-50.08203 -70.9219,-24.03125 -161.7305,-14.3789098 -222.0508,33.51953 -37.3906,29.69922 -41.0312,43.30078 -65.3008,74.589855 -12.8281,-1.83985 -25.6484,-7.25782 -38.4804,-9.70704 -49.2383,-9.41015 -81.2774,-7.67187 -120.8985,15.34766"
     id="path2" />
  <path
     fill-rule="evenodd"
     fill="#fdfdfd"
     fill-opacity="1"
     d="m 957.08329,749.01805 c 2.0703,1.4414 4,-0.4805 6.4414,6.5899 2.6797,7.7421 0.09,5.4609 -1.332,8.082 -8.8984,-1.7617 -0.9101,0.4492 -4.5976,-3.8516 -13.0508,-4.9609 -35.711,-11.6601 -47.293,-0.6679 -2.168,2.9687 0.3125,0.8085 -3.2578,4.1796 -3.3399,3.1485 -3.2696,2.5782 -5.7696,4.2383 -2.5117,6.4219 -9.3007,27.6094 -12.2109,30.9922 -19.1797,-24.4726 16.1406,-66.332 30.4414,-77.9726 24.2774,-19.75 73.5391,-25.4883 81.57031,7.9296 -15.58201,-4.5586 -20.12111,-10.6367 -40.95311,-7.3398 -12.2305,1.9297 -25.3672,8.0195 -30.4102,15.4805 17.6797,5.1015 15.0235,2.1015 27.3711,12.3398 z m -210.5507,-162.8594 -10.9297,9.711 c -13.2891,5.5898 -17.6407,13.289 -37.0586,14.3906 -16.4414,0.9297 -29.2617,-3.4922 -40.5586,-11.4102 -8.4024,-2.4804 -3.9414,-0.4101 -6.3633,-5.3007 -15.3086,-10.6211 -20.6094,-37.8985 -19.0898,-63.0196 1.3906,-23.05072 9.7031,-43.35931 21.5429,-62.28119 18.3086,-29.25781 60.8985,-70.84765 105.5391,-44.3789 l 9.289,6.57031 c 7.379,13.51953 13.9688,15.73047 18.0508,36.25781 3.2813,16.49219 1.5,32.04297 -2.6523,47.35157 -11.2695,41.5898 -24.7383,49.2617 -37.7695,72.1093 z m -267.4883,-168.6679 c -3.3711,11.37891 -2.7891,2.73828 0.2812,10.85938 l 8.918,1.71093 c 14.7305,-52.38281 70.8008,-89.48046 95.4492,-39.3125 14.8711,30.25 0.7305,80.44922 -16.0781,104.33985 -12.2695,17.42969 -2.0391,13.58984 -0.6094,31.08194 l -11.4531,6.2383 c -4.4297,3.8203 5.7422,3.25 -6.2695,3.4922 l -2.5469,-7.9609 c -16.0235,-49.12107 -92.6524,-106.46092 -155.0117,-85.15232 -29.9493,10.24218 -49.7696,34.33203 -58.6719,67.60156 -9.2774,34.71086 -0.9766,78.74996 19.8398,97.98826 l 7.8711,8.4219 c 23.6602,18.9296 56.6094,31.5195 93.9414,32.6211 53.5508,1.5781 60.0703,-4.4024 95.3282,-31.5313 l 8.6718,4.9102 9.0508,7.5586 c -1.1406,7.0898 -1.8203,5.4531 -4.6797,11.2695 39.0196,3.7422 103.6367,-5.3399 138.8672,-21.1602 18.4805,-8.2968 25.5195,-16.7265 34.4727,-18.9883 13.7968,19.0508 19.1601,44.6915 7.7578,69.8594 -11,24.2891 -30.0586,28.0899 -63.3985,28.2813 -8.7304,21.5508 -10.2226,25.1406 -28.8007,34.5586 0.6796,44.1406 5.6015,75.2617 -15.6602,110.9023 -21.1484,35.4805 -68.6914,38.8086 -88.6914,19.5 l -7.1797,-4.2031 -3.7695,-2.6797 -10.4492,-10.1797 c -1.0821,-2.6172 -22.5508,-29.2695 -34.2305,-52.5976 -2.4297,-4.8711 -12.6094,-28.3008 -14.3281,-30.1524 -7.3321,-7.918 -21.0508,-2.75 -24.4024,-18.918 l 46.75,1.3008 c -7.6484,-11.9101 -16.3203,-11.1211 -21.9101,-27.4023 -15.8203,5.4297 -23.5899,21.7812 -49.25,16.1406 -15.8789,-3.4883 -29.711,-17.3086 -30.961,-35.1719 -32.6562,3.1602 -49.0976,-3.0273 -49.4883,-48.1484 -4.5898,1.9219 -5.4492,-4.3086 -3.0312,19.8203 0.832,8.3398 2.1328,16.1289 3.9297,23.9297 22.1211,95.9609 105.3515,136.5 115.6914,149.6601 9.7187,12.379 11.3789,32.4415 50.3203,58.2383 50.8984,33.7305 118.9102,21.6211 164.9688,-6.3984 32.6718,-19.8789 55.621,-0.8281 124.2109,-35.4883 34.6719,-17.5312 27.1914,-26.7422 46,-16.25 12.8984,7.1875 25.6016,11.3984 40.6797,12.0586 127.51951,5.6016 189.69921,-133.5391 122.08201,-185.75 -37.05081,-28.6094 -78.61331,-11.1914 -108.13281,10.2383 -2.5195,4.543 3.3398,2.0898 -6.7383,5.1719 -4.7187,7.0703 -21.4922,25.4882 -29.332,33.2695 -10.4297,10.3594 -24.1094,22.1797 -40.9688,25.1914 -43.1914,7.7187 -60.3789,-41.793 -38.2812,-69.8594 l 4.2734,-6.4804 6.2071,-6.2305 c -1.879,-11.3711 -7.0391,-11.9219 -4.129,-28.6602 1.6407,-9.4609 6.1094,-15.3125 10.8907,-21.5195 3.8476,-6.3398 1.1093,-4.3125 9.5898,-8.0703 29.9297,-12.5 56.6094,4.4375 88.918,-36.2813 5.793,-7.3007 7.5508,-16.0507 4.1601,-26.3906 -6.3086,-19.207 -19.4375,-1.6992 -57.3281,-24.207 -50.5195,-30.0117 -66.6719,-120.58202 -82.9687,-129.05077 -18.3203,-1.78125 -36.0313,0.78907 -52,4.75 -16.3828,4.0586 -31.8516,11.82032 -45.6719,14.71875 4.5703,-22.6914 34.6484,-36.41015 39.8203,-49 -18.3008,-11.75 -83.1094,-34.51172 -108.0391,-33.05859 -0.7226,19.39062 1.6993,41.51953 -4.7421,59.23828 -6.8399,-1.59766 -5.1485,-8.35937 -13.129,-26.10937 -5.1093,-11.37891 -7.9179,-17.21094 -14.2812,-26.71094 -4.0469,-2.10938 -2.2773,-0.62891 -5.1602,-2.89844 -3.6289,-2.85937 -0.8398,-0.58203 -3.539,-4.46094 -25.8906,-9.6914 -43.0977,18.71094 -52.6875,33.89063 -5.9922,9.48828 -30.75,48.60937 -30.9414,57.62109"
     id="path3" />
  <path
     fill-rule="evenodd"
     fill="#ffffff"
     fill-opacity="1"
     d="m 788.36459,1152.85 c -5.1406,8.5977 -2.1719,5.418 -9.5625,9.3594 -12.7383,14.4102 -30.8281,21.7578 -51.5469,23.3203 -12.1211,0.918 -23.793,-0.2109 -34.2226,-2.4922 -12.25,-2.6679 -17.0274,-6.6875 -26.9297,-9.6484 l -0.2383,3.0313 6.5078,5.0585 c 3.1133,1.75 4.8008,2.3711 7.3711,3.8321 9.7617,5.5273 35.1094,21.8867 39.9297,30 -2.3008,5.6484 -4.6406,8.789 -6.9375,12.9179 -4.3711,8.5196 -1.25,5.7188 -7.5821,8.461 -5.5781,-3.6406 -1.75,-1.2227 -4.2617,-5.0313 -17.8164,-10.1601 -29.4297,-20.7382 -49.2773,-31.6484 -18.0117,-9.9102 -37.7617,-17.2813 -58.8594,-22.7227 -23.3516,-6.0195 -53.043,-6.6093 -75.5,-0.9882 -14.8633,3.7304 -42.332,14.0117 -52.1211,25.9179 -3.9219,5.6719 -2.082,3.9336 -8.6094,7.5703 -8.7109,8.3008 -21.3593,23.1211 -27.8125,38.7618 4.6914,7.7695 11.5118,11.8086 12.1211,23.4492 -18.1797,-3.2383 -39.789,-13.3399 -54.6992,3.1406 4.6211,5.1406 11.4883,10.0195 16.3516,14.5703 17.7969,16.668 40.7773,45.0703 43.789,47.5 l 4.4375,7.0508 c 12.7227,19.1914 24.9805,39.1484 35.9727,62.7617 10.3789,22.3086 16.457,47.0977 25.3789,72.3516 15.1406,42.8711 38.3281,98.9023 66.6406,129.7265 7.5078,7.3243 3.4297,6.1485 11.8477,6.5664 12.4101,-9.3242 22.5898,-21.5781 24.8125,-42.3242 4.4883,-41.8164 -9.332,-37.582 9.0703,-59.8672 12.9883,-15.7343 37.9102,-68.5898 42.207,-91.9101 l 3.0508,-6.7266 c 7.8125,1.0977 2.0625,-0.582 4.832,3.8281 5.0782,-0.7578 3.9102,-0.6484 9.2188,1.4375 l 9.3203,5.711 c 0.3086,20.3164 -12.2617,38.414 -12.1406,55.3984 29.9219,11.4883 93.5,7.836 123.7812,0.1602 36.8477,-9.3438 63.3282,-23.0039 90.9375,-43.7578 l 6.1524,-4.7891 -0.6719,-0.3984 c 3.4727,-5.8828 6.4727,-8.7422 12.4297,-12.1563 59.5234,-56.1484 65.6914,-155.0234 44.4922,-231.6328 l -18.3321,-67.6914 -3.0781,-7.168 c -0.1601,-1.0312 -0.6406,-1.2304 -1.2187,-2.0312 l -28.6211,21.6914 c -6.3008,-2.9492 -4.9297,-3.4492 -10.5821,-8.211 l -13.4882,-11.4101 c -5.2305,-8.3906 -64.5196,-56.1797 -72.1016,-58.8594 -2.9297,52.6602 1.8906,57.3281 -22.2578,97.8906"
     id="path4" />
  <path
     fill-rule="evenodd"
     fill="#ffffff"
     fill-opacity="1"
     d="m 635.94269,76.377465 -5.9375,5.5 -18.25,20.113285 c -2.7812,10.44922 0.098,3.12891 -4.6914,6.27735 l -14.4414,20.65234 c 6.2422,4.08984 21.8633,11.80859 28.3203,13.17969 18.7109,-27.74219 27.1406,-53.750005 78.1016,-69.832035 51.6797,-16.3086 81.6093,2.5 114.4687,24.67187 l 5.7617,5.828135 c 12.5196,15.46093 18.0977,22.29296 25.5,40.14062 14.1172,34.07031 16.1289,77.60156 -1.4101,111.28906 -11.9922,23.01953 -23.5508,26.76953 -31.6016,37.08985 l 31.3711,40.63281 4.25,6.89844 c 52.2695,80.24218 92.6914,198.60147 97.1602,298.07027 18.5703,-0.3203 27.7187,-5.9883 50.3008,-1.7187 46.66791,8.7968 69.00781,40.9687 76.59761,89.6601 28.1328,-7.4101 76.9219,-51.6016 80.5117,-98.9023 4.711,-62.1289 -45.5508,-111.00786 -65.6718,-114.07031 -5.3399,13.98041 -7.7188,31.81251 -19.7774,36.08981 -1.0703,-24.1094 3.457,-49.48044 1.0899,-95.37887 -3.461,-66.96094 -10.8907,-108.35938 -29.1915,-171.19141 -7.5117,-25.76953 -17.5117,-47.25 -26.7812,-71.78906 -5.1289,-5.23828 -5.5898,-6.16016 -7.8594,-14.4375 -11.60941,-26.77344 -38.10941,-61.0625 -58.14841,-83.08203 -4.9414,-2.30078 -2.9414,0.85937 -5.7422,-6.21875 -5.9375,-5.47266 -13.4375,-12.742195 -17.0977,-14.941415 l -6.3515,-5.42969 c -49.5977,-52.8789 -150.5313,-73.82031 -221.5781,-46.10156 -20.8711,8.14063 -47.8594,22.62109 -58.9024,37"
     id="path5" />
  <path
     fill-rule="evenodd"
     fill="#fdfdfd"
     fill-opacity="1"
     d="m 1302.8333,906.68995 c 12.3907,1.3281 34.3711,14.3476 39.6797,25.7305 9.6602,20.6875 -12.25,35.25 -29.3594,21.5703 -4.0195,-2.5821 -1.5312,0.7382 -5.5703,-4.5 -3.6914,-4.7735 0.039,0.3789 -2.3906,-5.4414 l -7.8203,-18.1485 c -6.25,-6.8203 -7.0469,-11.5898 -6.8398,-22.6601 8.4609,-1.1407 6.7812,-2.7813 12.3007,3.4492 z m 18.8594,-36.711 -6.6992,-4.5585 c -4.3203,-5.4219 -1.1289,1.2695 -3.418,-7.7305 81.8672,-30.75 82.1797,34.789 39.5078,26.5586 -12.0195,-2.3203 -21.0586,-8.9492 -29.3906,-14.2696 z m -0.25,-57.039 c 3.582,-6.3711 1.9609,-4.4024 8.6602,-9.4219 7.6718,-3.0586 15.332,-11.957 26.332,-15.9297 34.0391,-12.2578 49.3906,38.3906 -36.832,29.7305 z m -141.2305,-18.4297 -5.8086,5.1406 c -46.3007,31.5078 -80.5585,157.5274 -40.3984,216.00775 5.457,2.3711 3.4297,0.4219 5.7383,6.1602 6.6992,2.8711 1.6016,2.2812 10.9492,2.9492 0.02,-22.4375 2.9414,-61.21865 13.8008,-81.48045 5.8203,-10.8671 -1.1914,-3.4687 7.082,-7.7187 -31.4726,231.01165 165.3985,234.60155 155.1172,147.69135 l -29.2305,-7.6016 2.1914,-17.1211 c 14.1407,-1.8789 38.0821,5.3008 50.3907,9.9532 17.6601,6.6601 23.8789,14.5468 34.9883,23.9375 2.6601,3.4023 6.121,-6.0508 1.5507,6.2617 -0.039,0.098 -3.2382,3.3984 -3.3906,3.5273 -2.3203,1.9727 -5.1797,3.4727 -9,5.293 -12.6094,-2.6719 -11.1172,-11.9492 -22.9687,-13.2109 -1.1914,14.2695 -8.1914,31.6679 -7.3711,39.0195 40.9297,14.5117 86.2109,8.7812 108.3007,-19.6914 36.8907,-47.5469 10.9883,-89.7891 8.129,-111.3086 12.5625,5.9297 26.8125,24.5586 28.5,39.8711 3.4296,4.2578 2.1015,-6.0625 3.3593,7.3203 l 4.4024,-1.293 c 28.5,-28.8164 26.9492,-72.10925 9.6211,-111.08975 -3.8633,-8.668 -15.0508,-24.5195 -16.9219,-32.0899 8.9219,2.1602 14.9219,8.5 19.8086,12.9024 2.3398,1.8789 2.2734,1.3906 4.1211,3.5195 2.8594,3.2891 0.1406,-0.289 2.8398,5 3.9102,3.8594 6.6602,7.2188 8.5196,13.5195 7.2226,-2 0.7031,3.1915 7.082,-4.6992 4.6094,-28.4218 1.9883,-47.2187 -11.1602,-69.8008 -21.4804,-36.9179 -4.6406,-10.3007 -14.6523,-36.4296 -24.3164,-63.4805 -131.7383,-74.3321 -201.6602,-54.1094 -18.5,5.3398 -32.0898,11.0586 -48.6875,20.1406 -17.4023,9.5078 -35.8789,26.2578 -40.1211,27.6992 -0.09,-9.2812 4.75,-14.4414 9.1289,-21.1797 12.1407,-18.6718 9.7735,-9.2109 9.3907,-18.3906 -24,-5.6289 -36.1993,1.9102 -53.6407,11.3008"
     id="path6" />
  <path
     fill-rule="evenodd"
     fill="#fdfdfd"
     fill-opacity="1"
     d="m 107.0716,165.49856 c -2.72656,5.92188 0.13281,1.60938 -3.16797,5.23047 -2.78906,3.0586 -0.90234,0.6211 -4.890616,2.89844 l -1.16016,1.39063 c -3.49219,8.15234 -1.05469,3.90234 -8.5664,7.69921 l -28.89063,39.85157 c -55.2695303,88.30078 -32.70312,193.03906 45.324216,253.75 28.11719,21.87109 56.56641,32.94922 91.80465,35.25 2.0586,0.14062 5.7305,0.16015 7.6485,0.48047 l 8.2695,3.039 c -17.7773,11.5 -47.24999,10.4922 -69.70703,10.3008 -0.17968,81.1016 119.48833,47.0313 156.76953,26.0781 3.2578,-36.1679 -1.5508,-56.20697 25.4688,-94.24994 43.789,-61.65625 84.5586,-20.89843 95.9296,-84.38671 2.4219,-13.51954 -23.9179,-45.60157 -38.8203,-80.60157 -3.5976,-8.46093 -5.6406,-14.44922 -8.0781,-22.80078 -2.5625,-8.71094 -3.082,-21.05859 -7.3125,-24.48828 -16.6875,-8.98047 -57.957,9.67969 -65.9375,18.1875 l -9.1719,6.46094 c -14.1484,14.32031 -36.9414,48.03906 -16.9297,73.53125 l 7.5899,7.87109 c 29.5195,25.45703 59.0117,-5.12109 78.6914,-11.25 -4.5117,28.71875 -59.7109,58.54688 -97.7422,29.75 -7.3281,2.59766 -13.9687,9.16797 -24.1094,12.72656 -11.5078,4.04297 -23.6211,3.52344 -35.9687,2.78125 -3.3516,11.16016 0.01,3.35938 -4.8399,6.67188 -21.0625,22.32031 -49.92965,32.00781 -80.78903,20.95703 -23.796866,-8.51953 -38.593746,-41.21875 -37.773426,-70.5 14.43359,10.23047 18.80078,38.94141 45.328116,49.3125 30.54297,11.9375 56.26174,-8.22266 61.13284,-30.87109 11.1914,-52.03907 -34.37893,-105.53125 -71.12503,-115.75782 -7.64843,-1.5 -9.76562,-0.77343 -14.32812,-6.70312 3.94922,-2.80859 4.77344,-5.37891 18.39844,-2.02734 7.40234,1.82031 2.67578,0.9375 5.10937,2.41796 25.45703,0.76172 49.48047,21.08204 62.62504,40.41016 18.6718,27.44922 21.8125,45.67188 21.0195,85.67969 13.8398,0.10937 21.2617,-4.69922 30.8906,-8.14844 2.3399,-3.71094 -2.3711,-1.87891 6.2617,-4.83984 1.3086,-5.99219 -3.8828,-23.85157 -2.8828,-37.96094 1.0313,-14.46875 8.961,-27.98047 8.1328,-37.71875 -1.4609,-17.10156 -17.6601,-47.98047 -33.2617,-56.32031 l -6.2578,-6.01172 c -11.5195,-8.92969 -23.5195,-16.34766 -36.84374,-21.3711 -6.92188,-2.60937 -11.84375,-2.09765 -14.50782,-7.29687 36.76956,-13.67188 94.73046,30.50781 101.94146,59.98047 4.8203,3.95703 0.2578,-1.69141 5.0976,5.42969 0.031,0.0469 1.8516,4.09765 2.1094,4.57031 l 5.0117,-1.39063 c 6.1992,-11.60937 23.2305,-16.89062 35.8516,-26.48047 -1,-16.87109 -9.8907,-28.51953 -17.7305,-38.53125 l -8.1602,-7.96093 c -13.0625,-19.57032 -41.6601,-23.27735 -50.3828,-34.62891 25.5,-0.78125 43.9805,6.58984 60.3711,18.26172 6.6211,3.14062 7.2422,3.21875 11.7696,8.73828 3.5703,6.58984 11.1523,12.96875 15.5898,20.99219 l 13.2227,25.76953 33.1796,-1.51172 c 3.6797,-44.26953 10.8282,-39.5 -3.9921,-61.66016 -7.5196,-3.66796 -2.9805,-0.30078 -5.1094,-6.07812 l -2.2305,-3.19141 c -6.2773,-3.35937 -0.1289,1.48047 -6.707,-4.21875 -3.6914,-3.1914 -1.1328,-1.3125 -3.2227,-4.16015 -29.9375,-28 -82.9883,-41.972665 -131.1094,-31.15235 -61.52339,13.83985 -102.62496,55.03125 -108.83199,57.80078"
     id="path7" />
  <path
     fill-rule="evenodd"
     fill="#ffffff"
     fill-opacity="1"
     d="m 719.66539,1580.1704 c 4.5,3.0742 1.1289,-0.8204 5.8672,4.996 4.5625,5.5938 -0.5586,-1.0703 2.6601,5.0938 27.4922,34.0547 60.832,73.5547 96.5313,107.4844 l 5.5117,5.5937 11.1172,9.5547 c 0.039,50.6445 16.4297,84.0586 72.1093,78.6758 41.9414,-4.0508 77.0313,-27.9336 98.58211,-52.1875 36.8086,-41.4375 55.3086,-121.0625 38.1797,-177.543 -10.3399,-34.082 -28.711,-18.9179 -41.6094,-30.1054 -4.832,-4.6133 -4.2227,-4.2813 -6.832,-8.6719 -9.32041,-12.6758 -55.10941,-75.2617 -63.96881,-79.7656 -4.5195,3.539 -7.0703,6.2187 -12.1211,10.3437 -73.918,60.3086 -155.7695,67.3672 -248.3594,63.8906 2.3516,5.9805 1.7891,5.1094 5.211,10.7578 8.2578,13.668 30.9101,41.2422 37.1211,51.8829"
     id="path8" />
  <path
     fill-rule="evenodd"
     fill="#fdfdfd"
     fill-opacity="1"
     d="m 184.40359,1291.35 -11.78121,6.6172 c -36.4375,13.9532 -84.027336,79.6016 -81.609366,134.8711 9.769526,-3.4726 15.480466,-12.3359 24.937496,-17.9844 69.15238,-41.2968 158.13278,-21.2773 220.93358,30.086 l 6.3086,5.0703 c 2.6016,3.4492 16.3399,17.0391 21.1524,20.6094 l 9.4492,10.7265 26.2695,33.2305 3.8516,7.582 c 16.1875,21.6094 29.2773,47.918 42.6289,72.0743 l 3.7304,8.0507 4.2579,7.0235 4.4296,6.539 c 12.2305,11.0743 26.7813,29.4102 35.9805,44.7149 13.0117,21.625 15.6992,34.7969 18.3125,63.6367 22.4805,-1.1797 47.9375,-32.7852 52.4805,-61.2031 4.9062,-30.7266 -12.1914,-39.5469 -33.4414,-79.8477 -31.2617,-59.3047 -41.9297,-110.0898 -66.4414,-159.5664 -48.5391,-98.0117 -147.2696,-193.4726 -281.4493,-132.2305"
     id="path9" />
  <path
     fill-rule="evenodd"
     fill="#ffffff"
     fill-opacity="1"
     d="m 873.57549,1822.8813 c -3.4414,41.3672 -7.7031,65.3203 5.9766,106.7187 37.5508,113.5938 179.30081,103.8008 226.75001,34.6758 36.5898,-53.2969 28.1719,-142.5859 19.9219,-210.707 -2.7618,-22.8281 12.5781,-51.0508 6.4882,-115.0938 -3.3984,-35.6914 -22.1367,-61.2031 -53.9492,-66.9921 8.5313,74.1054 -10.0703,140.289 -44.1484,183.789 -36.72271,46.8789 -80.35161,67.3203 -161.03911,67.6094"
     id="path10" />
  <path
     fill-rule="evenodd"
     fill="#ffffff"
     fill-opacity="1"
     d="m 179.99349,1645.8305 7.3594,3.9219 c 12.5312,9.8086 26.8711,17.2812 41.7422,25.875 11.3906,6.5781 11.2773,8.543 24.539,3.2773 33.5078,-13.2968 125.5781,-25.7851 144.6992,-7.1289 -3.1484,1.6641 -62.2695,7.6133 -73.7578,9.5391 -25.4922,4.2695 -47.0508,10.3437 -69.7929,14.8086 2.9414,13.2461 30.2812,42.2304 37.8398,47.9609 l 9.0195,7.2031 c 3.4219,4.1094 7.4102,7.961 13.0938,9.9844 l 10.8789,7.5664 c 15.8711,10.6211 34.5781,17.7774 58.75,19.6094 22.7578,1.7266 50.7109,0.9531 64.2109,-12.0313 28.8086,-27.7187 -15.1601,-90.2421 -31.9609,-107.4375 l -4.711,-6.1835 c -15.0781,-18.7735 -32.4101,-61.1993 -48.4882,-75.5625 l -4.5,-7.0547 c -6.8008,-9.9649 -17.1797,-22.1563 -25.293,-31.0508 -10.7305,-11.7578 -19.9883,-19.0235 -28.3086,-28.0742 -6.8203,-2.5508 -3.8086,-0.6172 -6.0312,-5.3985 l -1.3399,-0.094 -7.1484,-5.0586 c -34.3321,-38.1211 -135.37113,-55.7266 -180.64847,-10.5352 -56.496086,56.3946 58.46094,132.7774 69.84767,145.8633"
     id="path11" />
  <path
     fill-rule="evenodd"
     fill="#fdfdfd"
     fill-opacity="1"
     d="m 461.32549,362.90091 5.9102,5.70703 c 3.207,5.40234 2.6484,4.16016 7.457,6.92969 7.4024,-6.86719 27.332,-44 37.4024,-57.66016 -4.1915,-3.98828 -4.7305,-1.77734 -10.6407,-4.42969 3.7383,-22.82812 49.9492,-79.07812 81.8282,-42.07812 3.871,4.48828 6.7031,8.09765 9.871,14.3789 18.5313,36.67188 -7.3281,6.78907 79.4883,35.94922 15.6719,5.26172 58.5235,24.69141 62.5821,24.65235 -3.2891,-12 -29.2305,-36.19141 -40.211,-48.33985 -6.7383,-4.01953 -4.0586,-0.22265 -7.7695,-8.5 -3.8203,-1.79297 -41.1406,-36.5 -48.2109,-42.73047 -14.6797,-12.9414 -38.3204,-31.32031 -52.8594,-38.92968 l -7.3203,-4.60938 c -21.25,-18.51172 -80.0391,-33.55078 -83,-41.42187 58.1718,-12.98828 173.9023,82.83984 218.2109,127.25 9.5,9.51172 15.8086,18.21875 24.4414,25.80859 l 4.1797,6.98047 c 5.5273,4.66016 9.3398,10.62109 13.4297,14.24219 61.2773,-11.6211 53.5898,13.02734 68.4805,15.02734 l 1.4492,0.11328 c -0.6719,-3.23047 0.8203,-1.74219 -5.2305,-9.42187 l -21.4883,-26.0586 c -2.8008,-2.01172 -2.25,-1.19922 -4.4804,-3.32031 -1.8204,-1.73047 -2.9297,-3.24219 -4.9805,-5.76172 -5.6289,-12.36719 -70.3594,-70.82031 -77.6992,-73.59765 l -6.1133,-5.82032 c -32.8672,-27.49218 -70.3672,-52.07031 -105.6602,-68.26953 -31.1093,-14.27344 -102.8672,-38.95312 -146.3867,-27.58984 -78.3828,20.44922 -63.5508,123.71875 -30.3906,182.17969 7.2773,12.82812 27.1601,41.89843 37.7109,49.32031"
     id="path12" />
  <path
     fill-rule="evenodd"
     fill="#ffffff"
     fill-opacity="1"
     d="m 819.73569,883.54935 -6.2735,5.039 c -10.1367,25.8321 -10.7578,79.4297 -9.5586,109.6406 0.7813,19.67965 1.0391,18.07035 14.1016,26.67185 18.0274,11.8672 50.7695,39.2383 66.1484,53.5196 7.1602,6.6406 11.461,13.539 20.4219,17.5273 7.0586,-4.0898 16.3789,-11.957 21.3399,-16.5586 9.1289,-8.4609 6.6797,-17.5312 6.1601,-33.1016 -7.8398,2.4102 -8.0703,4.461 -16.4219,7.3711 -4.7617,-6.0312 -8.7382,-15.9609 -8.9492,-24.4882 14.5703,-17.8829 53.5391,-30.91015 79.9883,-35.85155 36.66021,-6.8399 72.30081,-2.4688 109.44141,-1.168 -4.8515,-34.2422 -4.0195,-69.6719 3.2188,-101.1211 12.2617,-53.3203 22.5507,-55.9804 30.0898,-79.832 -24.0508,-0.6172 -59.9883,-1.9883 -83.0508,1.793 -36.3593,50.9179 -107.95701,83.2265 -172.50781,69.3867 -33.1797,-7.0977 -25.789,-21.2383 -54.1484,1.1719"
     id="path13" />
  <path
     fill-rule="evenodd"
     fill="#fdfdfd"
     fill-opacity="1"
     d="m 439.50519,1183.5688 c 4.3086,-5.1016 2.8594,-3.75 9.1367,-7.0899 7.1836,-3.5312 12.8516,-8.539 21.1133,-12.6406 25.8399,-12.8281 57.0899,-19.9179 86.3789,-18.8711 61.668,2.2032 78.961,22.5625 109.7305,31.4532 l 0.2383,-3.0313 -18.3672,-12.1719 c -6.25,-3.4492 -4.8008,-2.0195 -8.25,-8.289 -10.2422,-18.0391 -24.2735,-25.8789 -24.4531,-68.3594 -0.1875,-44.1914 15.0312,-64.0586 15.0625,-79.4414 -31.9102,-1.2188 -130.3516,-7.37885 -153.6407,4.1015 -12.539,19.6016 -20.2812,77.8516 -30.582,104.1094 -11.5781,29.5313 -40.4102,51.1914 -78.6094,54.4414 -6.4883,20.1485 -6.7383,53.3789 3.2891,69.6211 11.8633,-0.4101 18.6328,-1.5508 31.0234,-0.6406 6.0664,-9.4219 10.0664,-19.6992 16.6992,-29.1016 8.3008,-11.7578 13.2696,-14.539 21.2305,-24.0898"
     id="path14" />
  <path
     fill-rule="evenodd"
     fill="#fdfdfd"
     fill-opacity="1"
     d="m 435.20439,1668.1586 5.0899,6.0899 c 18.0703,32.8672 34.3906,40.8476 30.1601,90.8906 25.418,-10.5469 25.3985,-51.4727 14.4102,-79.1172 -10.3203,-25.9492 -25.5117,-43.9492 -42.8008,-65.7383 l -40.6016,-67.9257 c -38.4882,-61.6758 -103.2773,-133.9922 -184.2968,-140.7266 -61.89848,-5.1406 -128.066436,14.332 -129.535186,86.6133 11.27343,-6.1602 7.30859,-9.5821 20.843746,-19.8946 24.71875,-18.8359 56.80078,-25.5937 89.28124,-23.9218 140.5,7.2304 213.1797,191.9648 237.4492,213.7304"
     id="path15" />
  <path
     fill-rule="evenodd"
     fill="#fdfdfd"
     fill-opacity="1"
     d="m 239.91539,601.01805 c -4.5508,3.3203 -7.043,3.2227 -12.4532,5.1406 l 3.1797,10.4024 c 0.9727,9.1679 24.043,51.8789 29.2305,61.0586 l 3.7812,8.0781 33.3711,60.0312 c 20.8008,38.4415 48.7383,85.7305 71.5,121.6719 13.3282,21.0586 25.7696,37.6094 38.8399,57.1289 5.4492,2.1875 3.2695,2.0391 9.6601,0.6992 2.7891,-11.4296 30.1094,-35.7187 35.668,-46.7382 -3.1289,-7.211 -8.1992,-10.043 -9.2578,-17.7227 -5.4297,-3.0195 -1.5508,0.6992 -5.4727,-2.9101 -3.3593,-3.0977 -0.9375,-0.039 -2.8086,-4.1094 l -7.1093,-1.9805 -2.1992,-5.5586 -20.6797,-16.8398 -5.9024,-4.8711 c -22.3789,-21.0078 -41.3984,-41.2305 -57.1992,-70.7578 -18.0195,-33.6719 -20.8789,-61.1016 -23.1484,-105.711 l -7.2735,-9.039 c -9.0664,-31.0508 7.9102,-41.9024 -7.5664,-59.6524 -16.1015,7.9024 -43.8398,19.211 -64.1601,21.6797"
     id="path16" />
  <path
     fill-rule="evenodd"
     fill="#fdfdfd"
     fill-opacity="1"
     d="m 761.88409,1117.6782 -8,7.9726 c -82.6719,52.7578 -140.9609,-53.7304 -84.3984,-110 28.3086,-28.17185 69.7265,-28.03115 94.0586,1.7383 23.5078,28.7695 18.3593,68.1797 -1.6602,100.2891 z m -49.4297,-204.50775 -4.9414,7.1093 c -22.1797,21.668 -54.75,81.44915 -65.5586,118.82025 -16.3398,56.4805 -1.0508,111.1172 53.2891,121.5586 62.0508,11.9219 92.8203,-34.8476 94.1094,-89.3398 1.4922,-63.3516 -16.9883,-81.75775 0.4101,-173.62885 -14.0078,3.6797 -21.4179,7.4297 -37,10.2773 -8.5703,1.5625 -35.8281,3.2422 -40.3086,5.2032"
     id="path17" />
  <path
     fill-rule="evenodd"
     fill="#0f0f0f"
     fill-opacity="1"
     d="m 732.52469,532.11965 c -6.1015,-19.90234 10.0704,-36.6914 19,-26.08202 5.0196,5.97265 0.5079,31.67182 -19,26.08202 z m -28.3906,31.4297 c 10.8516,6.9804 7.9883,6.8984 8.0703,6.9882 l 2.2383,3.0625 13.1602,5.75 c -15.5899,16.9297 -38.8086,6.0274 -45.75,-14.4101 -7.0703,-20.8203 -0.5899,-47.7696 7.7226,-65.42967 25.8281,-54.94922 76.7578,-53.67187 81.8164,-20.39062 1.0821,1.64062 2.4414,-2.78125 2.6914,7.14062 0.1407,5.80078 -2.0586,6.01953 -3.1679,7.37891 l -5.3203,-6.73828 c -20.5118,-32.98047 -76.3907,21.27734 -61.461,76.64844 z m -18.082,-114.78125 6.082,-6.10938 c 14.6914,-4.32812 20.1914,-17.07812 46.1406,-12.39844 15.1485,2.73047 27.4102,14.17969 31.4375,28.11719 -10.5898,-3.06641 -13.5703,-9.89844 -29.1875,-9.02734 -24.9726,1.3789 -46.4218,25.33984 -56.1796,47.11718 -11.6524,25.99994 -21.4727,73.81244 7.207,92.06244 l 9.6328,6.5899 c -85.832,4.5586 -49.4023,-119.26171 -15.1328,-146.35155 z m -34.4297,144.78125 6.3633,5.3007 c 11.2969,7.918 24.1172,12.3399 40.5586,11.4102 19.4179,-1.1016 23.7695,-8.8008 37.0586,-14.3906 3.1523,-5.211 -0.7774,-1.2813 4.5,-5.9492 3.3398,-2.9532 4.1992,-2.5313 6.4297,-3.7618 13.0312,-22.8476 26.5,-30.5195 37.7695,-72.1093 4.1523,-15.3086 5.9336,-30.85938 2.6523,-47.35157 -4.082,-20.52734 -10.6718,-22.73828 -18.0508,-36.25781 -4.7304,-2.03906 -1.8203,-0.23047 -5.3281,-2.55078 -2.7226,-1.80859 -2.1601,-2.01953 -3.9609,-4.01953 -44.6406,-26.46875 -87.2305,15.12109 -105.5391,44.3789 -11.8398,18.92188 -20.1523,39.23047 -21.5429,62.28119 -1.5196,25.1211 3.7812,52.3985 19.0898,63.0196"
     id="path18" />
  <path
     fill-rule="evenodd"
     fill="#fafafa"
     fill-opacity="1"
     d="m 1143.9427,1614.9907 c 1.4805,17.7695 4.332,29.5664 4.9414,47.8867 0.6016,17.9609 -0.4492,33.6758 -2.8594,50.4961 -2.7812,19.3008 -7.6328,23.1797 -4.5117,44.9453 6.8203,47.6055 11.3203,102.3711 3.3516,149.0508 -7.4727,43.7226 -13.5195,45.5898 -28.4492,77.4609 43.957,-3.25 57.1093,-53.8672 59.9882,-96.1406 6.7891,-99.5899 -13.6289,-123.1485 -13.6679,-139.3555 13.9883,-8.8594 18.6992,-8.8359 19.4297,-28.6875 0.5468,-14.9453 -0.2618,-32.9414 -2.1719,-46.9219 -3.3008,-24.0546 -10.9805,-53.3711 -32.3516,-63.3632 l -4.0664,-1.3672 0.3672,5.9961"
     id="path19" />
  <path
     fill-rule="evenodd"
     fill="#fafafa"
     fill-opacity="1"
     d="m 635.03259,151.68997 14.4609,7.77734 c 15.6406,-9.65625 63.0391,-60.019535 77.8398,-65.257815 l 7.7891,46.859385 c 17.1914,-5.92969 38.9023,-22.75782 56.7422,-25.6211 l 16.1484,136.78125 -25.2187,5.5 c 1.4492,7.39844 12.5586,17.1211 17.6406,21.07032 39.4102,-14.67969 62.25,-117.32032 -5.0898,-170.73047 -39.6602,-31.460945 -98.4805,-32.738285 -136.7813,3.67968 -6.2891,5.98047 -23.3594,25.99219 -23.5312,39.94141"
     id="path20" />
  <path
     fill-rule="evenodd"
     fill="#fdfdfd"
     fill-opacity="1"
     d="m 912.96219,590.40085 -8.6992,8.0781 c -8.5703,5.0508 -13.5078,10.3711 -23.7578,14.3594 -12.5117,4.8594 -23.3633,1.211 -36.9414,3.3906 -12,1.9102 -19.4297,7.5391 -24.0195,15.3399 -7.0586,11.9922 -0.5196,21.4219 1.8281,31.9805 -8.1992,12.9414 -20.168,21.289 -17.168,42.0507 3.0313,20.961 22.8907,21.711 39.0508,13.7579 22.9297,-11.2891 37.418,-42.2891 61.0391,-57.2071 2.5078,-5.0703 0.6093,-3.2226 6.3398,-5.2422 14.3789,-9.1679 12.8711,-6.0586 11.1406,-28.8476 -1.0195,-13.4102 -2.8203,-26.3438 -4.3906,-39.961 -4.8515,1.2891 -1.4687,-1.1211 -4.4219,2.3008"
     id="path21" />
  <path
     fill-rule="evenodd"
     fill="#fdfdfd"
     fill-opacity="1"
     d="m 723.59509,1106.3305 c -1.6329,1.3203 3.5703,3.207 -7.0625,3.2305 -6.0196,0.01 -4.5,-2.7735 -5.0196,-3.6914 l 7.7422,-3.4922 c 21.918,-19.4297 21.9492,-29.1602 19.9297,-60.2969 12.4492,6.4805 11.7891,27.7695 7.7891,40.0977 -3.9493,12.1914 -11.5586,20.6406 -23.3789,24.1523 z m -30.9024,-88.5195 c -2.9492,3.7695 0.1524,2.5586 -7.4805,4.4375 -8.8789,11.789 -14.6601,13.0703 -19.6601,31.4687 -14.4492,53.1602 33.1836,86.9219 73.043,66.6407 52.4492,-26.6875 23.3984,-134.28905 -45.9024,-102.5469"
     id="path22" />
  <path
     fill-rule="evenodd"
     fill="#fdfdfd"
     fill-opacity="1"
     d="m 448.18489,916.93995 c -3.332,9.6875 -0.5,3.7383 -5.582,6.5781 -1.7696,4.293 -13.6407,18.6406 -17.7383,24.9102 -5.7617,8.8125 -10.9102,17.1914 -16.4297,26.3515 l -2.4102,7.8594 6.1094,6.0781 c 26.7578,27.87105 13.9414,98.12105 -18.6289,125.44135 -20.6523,17.3321 -30.9297,10.8008 -39.332,16.9414 5.7617,13.461 20.582,14.0899 33.539,8.2305 32.5821,-14.7226 42.7305,-53.1211 51.7618,-85.7031 6.3515,-22.8985 13.5898,-43.3594 23.8515,-68.84765 l 27.7696,-64.1797 c -5.3907,-8.7304 -14.9727,-17.1015 -23.7227,-22.9492 l -19.1875,19.2891"
     id="path23" />
  <path
     fill-rule="evenodd"
     fill="#fdfdfd"
     fill-opacity="1"
     d="m 639.40359,764.45945 c -10.2187,-0.3711 -63.2695,20.0703 -70.9414,26.1016 -14.3203,11.2578 -41.4375,37.2187 -16.1679,59.0976 21.6601,18.7618 51.5,12.4688 66.539,-6.6093 16.0586,-20.3711 19.7891,-48.4297 20.5703,-78.5899"
     id="path24" />
  <path
     fill-rule="evenodd"
     fill="#fafafa"
     fill-opacity="1"
     d="m 664.57549,169.04935 7.3086,3.94921 6.6914,0.78125 c 5.6367,-10.33984 27.0586,-35.24218 35.4375,-41.96093 l 6.7891,41.51172 c 13.6523,-2.71094 33.1914,-15.22266 47.9726,-20.08204 l -2.1093,73.80079 c -0.75,20 0.5781,33.16796 34.9765,18.78125 l -13.5,-107.83985 c -3.6562,-4.21094 -2.8984,-6.74219 -5.4375,-10.6914 l -7.7617,2.46093 -42.7773,21.32813 -3.793,-10.1875 c -0.6484,-2.76172 -1.3672,-7.83985 -1.8203,-10.58203 -1.2774,-7.67969 -2.1797,-16.60157 -3.3867,-23.23828 -8.75,2.55859 -9.043,5.23046 -17.0821,12.34765 -11.0195,9.76172 -42.2382,34.76953 -48.0195,43.33985 3.3789,5.92187 -0.6602,2.35156 6.5117,6.28125"
     id="path25" />
  <path
     fill-rule="evenodd"
     fill="#0f0f0f"
     fill-opacity="1"
     d="m 685.21219,1022.2485 7.4805,-4.4375 c 69.3008,-31.74215 98.3516,75.8594 45.9024,102.5469 -39.8594,20.2812 -87.4922,-13.4805 -73.043,-66.6407 5,-18.3984 10.7812,-19.6797 19.6601,-31.4687 z m 68.6719,103.4023 c 2.2695,-4.0703 0.1797,-2.2422 3.0703,-4.9023 3.3086,-3.0391 0.168,-0.4883 4.9297,-3.0703 20.0195,-32.1094 25.168,-71.5196 1.6602,-100.2891 -24.3321,-29.76945 -65.75,-29.91015 -94.0586,-1.7383 -56.5625,56.2696 1.7265,162.7578 84.3984,110"
     id="path26" />
  <path
     fill-rule="evenodd"
     fill="#fdfdfd"
     fill-opacity="1"
     d="m 824.59509,351.12747 c 15.5468,36.35156 16.2968,28.99219 8.0898,72.14063 -12.4023,-5.9375 -9.8594,-18.05079 -28.3711,-24.19922 l -3.8984,-1.25782 1.25,4.11719 c 7.7578,20.99219 21.5586,49.48047 32.1875,66.48047 14.0625,22.5 36.9101,34.35156 65.2226,38.74219 -1.3398,-24.42188 -20.5,-65.99219 -29.8515,-85.6211 -5.75,-12.07031 -29.3204,-61.65234 -43.1797,-70.28906 l -1.4492,-0.11328"
     id="path27" />
  <path
     fill-rule="evenodd"
     fill="#fdfdfd"
     fill-opacity="1"
     d="m 667.64189,935.56105 1.6016,-3.4024 -3.9805,1.2618 c -7.2383,0.4179 -26.3594,7.7773 -36.6094,10.0585 -70.7109,15.7305 -104.3515,-9.5312 -120.7187,-11.1289 -7.9414,14.6875 -16.6914,27.5274 -21.3594,45.418 21.8399,1.8008 55.0391,-1.2695 78.9766,-0.8906 25.6523,0.4023 52.3008,4.75 76.4726,4.3398 3.961,-10.8672 24.3594,-39.0976 25.6172,-45.6562"
     id="path28" />
  <path
     fill-rule="evenodd"
     fill="#fafafa"
     fill-opacity="1"
     d="m 386.64189,1081.6586 -4.6797,6.7305 c -5.9882,7.2305 -8.2382,10.5313 -18.2695,12.6484 5.0313,-11.1171 12.043,-17.8203 17.3399,-30.3281 4.1601,-9.8398 8.9218,-25.0117 8.75,-36.6914 -0.07,-1.957 -0.5586,-10.0273 -0.3399,-11.6601 1.7813,-13.5 -0.2383,-2.6875 3.2695,-7.5469 5.4727,5.9297 3.1914,2.4179 4.1211,11.7383 0.5899,28.6211 -3.75,34.1211 -10.1914,55.1093 z m -1.0195,26.2422 c 2.582,-4.6523 0.07,-1.8633 3.1328,-5.082 2.25,-2.3711 1.7383,-1.4883 4.4375,-3.418 12.3594,-16.9336 22.2813,-40.2812 20.3203,-70.3711 -0.8594,-13.0195 -4.9375,-26.3203 -16.7187,-28.75 -63.3594,-13.03895 -77.8711,158.5977 -11.1719,107.6211"
     id="path29" />
  <path
     fill-rule="evenodd"
     fill="#fafafa"
     fill-opacity="1"
     d="m 692.13409,442.65872 c -3.0508,7.67188 -0.5703,3.87109 -6.082,6.10938 -34.2695,27.08984 -70.6992,150.91015 15.1328,146.35155 l -9.6328,-6.5899 c -28.6797,-18.25 -18.8594,-66.0625 -7.207,-92.06244 9.7578,-21.77734 31.207,-45.73828 56.1796,-47.11718 15.6172,-0.8711 18.5977,5.96093 29.1875,9.02734 -4.0273,-13.9375 -16.289,-25.38672 -31.4375,-28.11719 -25.9492,-4.67968 -31.4492,8.07032 -46.1406,12.39844"
     id="path30" />
  <path
     fill-rule="evenodd"
     fill="#fafafa"
     fill-opacity="1"
     d="m 714.44269,573.60005 c -7.3086,-3.7812 -6.6172,-2.8203 -10.3086,-10.0507 -14.9297,-55.3711 40.9492,-109.62891 61.461,-76.64844 l 5.5195,3.04687 0.2773,-10.82812 c -5.0586,-33.28125 -55.9883,-34.5586 -81.8164,20.39062 -8.3125,17.66007 -14.7929,44.60937 -7.7226,65.42967 6.9414,20.4375 30.1601,31.3398 45.75,14.4101 l -13.1602,-5.75"
     id="path31" />
  <path
     fill-rule="evenodd"
     fill="#fafafa"
     fill-opacity="1"
     d="m 703.56379,151.83841 c -5.4883,11.41015 -17.3906,17.47265 -20.8984,28.65234 l 76.9375,57.03906 1.9804,-72.99218 c -16.3789,3.97265 -30.9804,16.58984 -45.3593,18.15234 l -4.4102,-25.66016 -2.3516,-7.58984 -5.8984,2.39844"
     id="path32" />
  <path
     fill-rule="evenodd"
     fill="#0f0f0f"
     fill-opacity="1"
     d="m 901.27469,767.58835 9.0274,-8.4179 c 11.582,-10.9922 34.2422,-4.293 47.293,0.6679 10.3281,3.1992 2.5781,1.3711 4.5078,-1 l -5.0196,-9.8203 c -12.3476,-10.2383 -9.6914,-7.2383 -27.3711,-12.3398 5.043,-7.461 18.1797,-13.5508 30.4102,-15.4805 20.832,-3.2969 25.3711,2.7812 40.95311,7.3398 -8.03121,-33.4179 -57.29291,-27.6796 -81.57031,-7.9296 -14.3008,11.6406 -49.6211,53.5 -30.4414,77.9726 2.9102,-3.3828 9.6992,-24.5703 12.2109,-30.9922"
     id="path33" />
  <path
     fill-rule="evenodd"
     fill="#fafafa"
     fill-opacity="1"
     d="m 500.12239,762.54935 c -1.0781,33.9492 87.2617,5.9296 108.7695,-2.3204 9.8711,-3.7812 26.8125,-7.2695 26.8125,-20.8085 -43.5117,-9.0821 -53.6211,22.5976 -135.582,23.1289"
     id="path34" />
  <path
     fill-rule="evenodd"
     fill="#fafafa"
     fill-opacity="1"
     d="m 509.37239,448.0806 c 12.7422,-2.42969 -2.3789,3.19921 3.7305,-0.95313 1.3906,-0.94922 3.4101,-3.07812 3.8593,-3.69922 7.8633,-19.46094 28.2422,-55.00781 58.5821,-44.41797 -3.5391,-20.37109 -32.0821,-22.49218 -48.1992,-8.46093 -10.9727,9.53906 -25.043,30.91015 -28.9219,46.98046 4.0312,5.34766 6.1914,6.3086 10.9492,10.55079"
     id="path35" />
  <path
     fill-rule="evenodd"
     fill="#0c0c0c"
     fill-opacity="1"
     d="m 1297.3724,925.90085 7.8203,18.1485 c 1.9727,1.789 2.1094,1.4609 4.0195,3.8515 1.7227,2.1289 2.1016,3.0781 3.9414,6.0899 17.1094,13.6797 39.0196,-0.8828 29.3594,-21.5703 -5.3086,-11.3829 -27.289,-24.4024 -39.6797,-25.7305 l -10.7109,-1.711 5.25,20.9219"
     id="path36" />
  <path
     fill-rule="evenodd"
     fill="#0c0c0c"
     fill-opacity="1"
     d="m 1314.9935,865.42045 6.6992,4.5585 c 8.332,5.3204 17.3711,11.9493 29.3906,14.2696 42.6719,8.2304 42.3594,-57.3086 -39.5078,-26.5586 2.2891,9 -0.9023,2.3086 3.418,7.7305"
     id="path37" />
  <path
     fill-rule="evenodd"
     fill="#f5f5f5"
     fill-opacity="1"
     d="m 530.09509,466.26028 c 5.5195,-16.33203 13.1484,-40.85937 31.4687,-44.24218 13.6797,-2.52735 10.2617,3.29296 20.0195,7.6914 1.2618,-37.6914 -25.539,-30.66015 -41.6484,-13.39844 -6.6016,7.06641 -34.4219,44.84766 -9.8398,49.94922"
     id="path38" />
  <path
     fill-rule="evenodd"
     fill="#0f0f0f"
     fill-opacity="1"
     d="m 1330.1029,803.51805 c -2.8672,4.9727 -0.2305,1.8828 -3.211,5.1602 -1.789,1.9726 -2.6562,2.3515 -5.4492,4.2617 l -1.8398,4.3789 c 86.2226,8.6601 70.8711,-41.9883 36.832,-29.7305 -11,3.9727 -18.6602,12.8711 -26.332,15.9297"
     id="path39" />
  <path
     fill-rule="evenodd"
     fill="#0f0f0f"
     fill-opacity="1"
     d="m 719.25519,1102.3774 -2.9101,3.582 c -0.2618,0.418 -0.7305,1.6797 -1.3204,2.3516 l 8.5704,-1.9805 c 11.8203,-3.5117 19.4296,-11.9609 23.3789,-24.1523 4,-12.3282 4.6601,-33.6172 -7.7891,-40.0977 2.0195,31.1367 1.9883,40.8672 -19.9297,60.2969"
     id="path40" />
  <path
     fill-rule="evenodd"
     fill="#0c0c0c"
     fill-opacity="1"
     d="m 389.78259,1034.018 c 0.1718,11.6797 -4.5899,26.8516 -8.75,36.6914 -5.2969,12.5078 -12.3086,19.211 -17.3399,30.3281 10.0313,-2.1171 12.2813,-5.4179 18.2695,-12.6484 2.4102,-8.1211 1.1211,-4.3711 4.6797,-6.7305 6.4414,-20.9882 10.7813,-26.4882 10.1914,-55.1093 l -4.3711,-7.9102 c -1.4492,12.9805 1.461,7.7695 -2.6796,15.3789"
     id="path41" />
  <path
     fill-rule="evenodd"
     fill="#f8f8f8"
     fill-opacity="1"
     d="m 732.52469,532.11965 c 19.5079,5.5898 24.0196,-20.10937 19,-26.08202 -8.9296,-10.60938 -25.1015,6.17968 -19,26.08202"
     id="path42" />
  <path
     fill-rule="evenodd"
     fill="#f5f5f5"
     fill-opacity="1"
     d="m 434.15359,410.93997 c 6.2188,3.48828 13.7305,4.21875 20.6016,4.9375 l 7.918,-14.19922 c -9.5391,-5.51953 -6.8203,-6.80078 -16.7813,-11.64062 -3.6992,3.55078 -9.8164,14.82031 -11.7383,20.90234"
     id="path43" />
  <path
     fill-rule="evenodd"
     fill="#f5f5f5"
     fill-opacity="1"
     d="m 549.47399,468.86966 c 0.2187,0.12109 0.1093,5.01953 8.1601,1.00781 3.1094,-1.54687 13.0899,-17.05859 5.9688,-23.91016 -6.7383,-6.46875 -19.3282,11.24219 -14.1289,22.90235"
     id="path44" />
  <path
     fill-rule="evenodd"
     fill="#e6e6e6"
     fill-opacity="1"
     d="m 570.71219,733.40865 19.1133,-5.1914 c -2.0625,-5.5898 -2.9531,-5.5781 -8.7617,-9.4883 -5.9883,3.8711 -9.5508,9.8907 -10.3516,14.6797"
     id="path45" />
  <path
     fill-rule="evenodd"
     fill="#7f7f7f"
     fill-opacity="1"
     d="m 116.04816,244.81106 c -0.41796,-0.37109 -1.05468,-1.52343 -1.26953,-1.10156 l -4.1875,-2.64844 c -1.58203,-0.85156 -3.07422,-1.27343 -5.08984,-2.5 l 19.72656,-0.0625 c -2.43359,-1.48046 2.29297,-0.59765 -5.10937,-2.41796 -13.625,-3.35157 -14.44922,-0.78125 -18.39844,2.02734 4.5625,5.92969 6.67969,5.20312 14.32812,6.70312"
     id="path46" />
  <path
     fill-rule="evenodd"
     fill="#7f7f7f"
     fill-opacity="1"
     d="m 1297.3724,925.90085 -5.25,-20.9219 10.7109,1.711 c -5.5195,-6.2305 -3.8398,-4.5899 -12.3007,-3.4492 -0.2071,11.0703 0.5898,15.8398 6.8398,22.6601"
     id="path47" />
  <path
     fill-rule="evenodd"
     fill="#757575"
     fill-opacity="1"
     d="m 389.78259,1034.018 c 4.1406,-7.6094 1.2304,-2.3984 2.6796,-15.3789 l 4.3711,7.9102 c -0.9297,-9.3204 1.3516,-5.8086 -4.1211,-11.7383 -3.5078,4.8594 -1.4882,-5.9531 -3.2695,7.5469 -0.2187,1.6328 0.2695,9.7031 0.3399,11.6601"
     id="path48" />
  <path
     fill-rule="evenodd"
     fill="#707070"
     fill-opacity="1"
     d="m 230.64189,616.56105 -3.1797,-10.4024 c 5.4102,-1.9179 7.9024,-1.8203 12.4532,-5.1406 l -14.6407,3.0117 c -0.6093,9.4102 -0.7226,7.9375 5.3672,12.5313"
     id="path49" />
  <path
     fill-rule="evenodd"
     fill="#a3a3a3"
     fill-opacity="1"
     d="m 1374.1927,1107.5102 c 3.8203,-1.8203 6.6797,-3.3203 9,-5.293 0.1524,-0.1289 3.3516,-3.4297 3.3906,-3.5273 4.5703,-12.3125 1.1094,-2.8594 -1.5507,-6.2617 -2.7774,9.539 -0.7891,3.039 -8.7891,11.9218 -0.2578,0.2891 -0.8399,1.9102 -1.0313,1.5196 -0.1992,-0.4024 -0.6796,1.0898 -1.0195,1.6406"
     id="path50" />
  <path
     fill-rule="evenodd"
     fill="#666666"
     fill-opacity="1"
     d="m 198.49349,617.86965 -3.5703,-9.3399 -15.6407,-3.1093 c 14.9727,10.4804 -0.5273,-6.0508 19.211,12.4492"
     id="path51" />
  <path
     fill-rule="evenodd"
     fill="#999999"
     fill-opacity="1"
     d="m 774.94269,129.76028 7.7617,-2.46093 c 2.5391,3.94921 1.7813,6.48046 5.4375,10.6914 l -2.3672,-13.70312 c -5.3007,1.11328 -0.25,-1.87891 -6.5195,1.77343 -3.1719,1.83985 -2.4414,1.86719 -4.3125,3.69922"
     id="path52" />
  <path
     fill-rule="evenodd"
     fill="#8f8f8f"
     fill-opacity="1"
     d="m 957.59509,759.83835 c 3.6875,4.3008 -4.3008,2.0899 4.5976,3.8516 1.4219,-2.6211 4.0117,-0.3399 1.332,-8.082 -2.4414,-7.0704 -4.3711,-5.1485 -6.4414,-6.5899 l 5.0196,9.8203 c -1.9297,2.3711 5.8203,4.1992 -4.5078,1"
     id="path53" />
  <path
     fill-rule="evenodd"
     fill="#707070"
     fill-opacity="1"
     d="m 765.59509,486.90091 5.3203,6.73828 c 1.1093,-1.35938 3.3086,-1.57813 3.1679,-7.37891 -0.25,-9.92187 -1.6093,-5.5 -2.6914,-7.14062 l -0.2773,10.82812 -5.5195,-3.04687"
     id="path54" />
  <path
     fill-rule="evenodd"
     fill="#8c8c8c"
     fill-opacity="1"
     d="m 723.59509,1106.3305 -8.5704,1.9805 c 0.5899,-0.6719 1.0586,-1.9336 1.3204,-2.3516 l 2.9101,-3.582 -7.7422,3.4922 c 0.5196,0.9179 -1,3.6992 5.0196,3.6914 10.6328,-0.024 5.4296,-1.9102 7.0625,-3.2305"
     id="path55" />
  <path
     fill-rule="evenodd"
     fill="#828282"
     fill-opacity="1"
     d="m 412.13409,988.71725 -6.1094,-6.0781 2.4102,-7.8594 c -2.5898,2.6485 -1.1523,-0.031 -3.6797,4.3594 -3.2305,5.5898 -0.7812,2.0586 -1.8516,6.1914 l 9.2305,3.3867"
     id="path56" />
  <path
     fill-rule="evenodd"
     fill="#949494"
     fill-opacity="1"
     d="m 901.12239,1432.4282 c 4.1328,-2.1914 3.6211,-1.1446 7.4414,-4.8438 3.9219,-3.7851 2.75,-3.2422 4.9883,-7.3125 -5.957,3.4141 -8.957,6.2735 -12.4297,12.1563"
     id="path57" />
  <path
     fill-rule="evenodd"
     fill="#878787"
     fill-opacity="1"
     d="m 274.56379,253.51028 -5.0117,1.39063 c -0.2578,-0.47266 -2.0781,-4.52344 -2.1094,-4.57031 -4.8398,-7.1211 -0.2773,-1.47266 -5.0976,-5.42969 l 5.9179,13.25 6.3008,-4.64063"
     id="path58" />
  <path
     fill-rule="evenodd"
     fill="#828282"
     fill-opacity="1"
     d="m 555.55209,532.40865 c -0.668,-0.1601 -1.6797,-1.0195 -2.0078,-0.4883 -0.3321,0.5079 -1.4922,-0.4296 -1.9102,-0.6601 -1.5703,-0.8516 -3.6601,-2.2813 -4.8984,-3.3203 l 2.5469,7.9609 c 12.0117,-0.2422 1.8398,0.3281 6.2695,-3.4922"
     id="path59" />
  <path
     fill-rule="evenodd"
     fill="#828282"
     fill-opacity="1"
     d="m 700.89189,1231.6586 c 2.5117,3.8086 -1.3164,1.3907 4.2617,5.0313 6.3321,-2.7422 3.211,0.059 7.5821,-8.461 -4.0117,3.4883 -1.75,-4.1914 -4.4531,5.8985 l -7.3907,-2.4688"
     id="path60" />
  <path
     fill-rule="evenodd"
     fill="#8c8c8c"
     fill-opacity="1"
     d="m 801.66539,401.92825 -1.25,-4.11719 3.8984,1.25782 c -2.4492,-4.03125 3.1484,-2.48047 -7.4414,-4.85938 2.3203,13.16016 0.75,4.37891 4.793,7.71875"
     id="path61" />
  <path
     fill-rule="evenodd"
     fill="#848284"
     fill-opacity="1"
     d="m 667.64189,935.56105 c 5.6914,-3.9531 2.5821,2.75 5.5938,-7.2617 -9.3633,2.2382 -4,-0.5821 -7.9727,5.1211 l 3.9805,-1.2618 -1.6016,3.4024"
     id="path62" />
  <path
     fill-rule="evenodd"
     fill="#686868"
     fill-opacity="1"
     d="m 1524.5326,939.97895 c 3.7226,4.5391 -6.0704,5.0118 5.3828,3.6719 l 1.6992,-8.3711 c -6.3789,7.8907 0.1406,2.6992 -7.082,4.6992"
     id="path63" />
  <path
     fill-rule="evenodd"
     fill="#878787"
     fill-opacity="1"
     d="m 509.37239,448.0806 c 2.7109,3.9375 -4.1992,3.53906 5.2109,3.1875 l 2.3789,-7.83985 c -0.4492,0.6211 -2.4687,2.75 -3.8593,3.69922 -6.1094,4.15234 9.0117,-1.47656 -3.7305,0.95313"
     id="path64" />
  <path
     fill-rule="evenodd"
     fill="#787878"
     fill-opacity="1"
     d="m 306.28259,172.90872 c -4.5274,-5.51953 -5.1485,-5.59766 -11.7696,-8.73828 3.75,5.64844 -3.2304,0.0586 4.75,5.60937 3.3125,2.3086 3.3399,1.57032 7.0196,3.12891"
     id="path65" />
  <path
     fill-rule="evenodd"
     fill="#7f7f7f"
     fill-opacity="1"
     d="m 1011.6224,209.58841 c -2.0781,-6.9375 -2.0469,-7.14844 -6.5898,-12.98828 -0.2774,-0.35938 -0.8477,-0.97266 -1.2696,-1.44922 2.2696,8.27734 2.7305,9.19922 7.8594,14.4375"
     id="path66" />
  <path
     fill-rule="evenodd"
     fill="#848284"
     fill-opacity="1"
     d="m 479.32549,428.35013 c -3.0703,-8.1211 -3.6523,0.51953 -0.2812,-10.85938 -6.0703,4.61719 -0.7305,-4.13281 -5.8399,6.59766 l 6.1211,4.26172"
     id="path67" />
  <path
     fill-rule="evenodd"
     fill="#828282"
     fill-opacity="1"
     d="m 714.44269,573.60005 -2.2383,-3.0625 c -0.082,-0.09 2.7813,-0.01 -8.0703,-6.9882 3.6914,7.2304 3,6.2695 10.3086,10.0507"
     id="path68" />
  <path
     fill-rule="evenodd"
     fill="#787878"
     fill-opacity="1"
     d="m 590.55209,1615.6664 c -8.418,-0.4179 -4.3399,0.7579 -11.8477,-6.5664 l 6.7891,9.9493 c 9.2422,-0.4649 2.3789,0.5429 5.0586,-3.3829"
     id="path69" />
  <path
     fill-rule="evenodd"
     fill="#848484"
     fill-opacity="1"
     d="m 1496.5443,1048.2172 -4.4024,1.293 c -1.2578,-13.3828 0.07,-3.0625 -3.3593,-7.3203 l 3,9.7187 c 7.9921,0.07 2.371,0.8907 4.7617,-3.6914"
     id="path70" />
  <path
     fill-rule="evenodd"
     fill="#828282"
     fill-opacity="1"
     d="m 728.19269,1590.2602 c -3.2187,-6.1641 1.9024,0.5 -2.6601,-5.0938 -4.7383,-5.8164 -1.3672,-1.9218 -5.8672,-4.996 1.1679,2.1914 2.5468,5.1054 3.9882,6.7929 2.7188,3.1914 0.8907,0.9414 4.5391,3.2969"
     id="path71" />
  <path
     fill-rule="evenodd"
     fill="#878787"
     fill-opacity="1"
     d="m 1177.6029,1109.9672 c -1.1172,-2.6992 -1.8594,-5.0664 -3.3282,-7.2265 -2.25,-3.3008 -1.4101,-1.5313 -4.082,-3.7735 1.4102,3.6524 1.3906,4.5703 3.1914,7.2032 2.6289,3.8593 0.961,1.1406 4.2188,3.7968"
     id="path72" />
  <path
     fill-rule="evenodd"
     fill="#848484"
     fill-opacity="1"
     d="m 1543.4154,861.45945 c -2.9727,-6.4101 1.707,0.2305 -2.5625,-5.2617 -5.668,-7.2773 -0.9102,-1.4805 -5.6407,-4.9883 3.293,6.3086 -1.4765,-0.2617 2.8125,5.2383 4.3907,5.6328 2.3789,2.6211 5.3907,5.0117"
     id="path73" />
  <path
     fill-rule="evenodd"
     fill="#848484"
     fill-opacity="1"
     d="m 666.64189,1421.5649 c 7.7813,-6.1797 -0.1093,-2.5899 7.8828,-2.8985 -2.7695,-4.4101 2.9805,-2.7304 -4.832,-3.8281 l -3.0508,6.7266"
     id="path74" />
  <path
     fill-rule="evenodd"
     fill="#828282"
     fill-opacity="1"
     d="m 647.73569,1161.2172 c -2.4727,-5.3398 -0.07,-1.7695 -3.1016,-5.0898 -2.9609,-3.2188 -0.8203,-0.5586 -5.1484,-3.1992 3.4492,6.2695 2,4.8398 8.25,8.289"
     id="path75" />
  <path
     fill-rule="evenodd"
     fill="#8c8c8c"
     fill-opacity="1"
     d="m 896.21219,1125.2289 c -2.3281,-3.5312 -0.8789,-1.9414 -3.2265,-4.6406 -0.4414,-0.5 -1.711,-1.8203 -2.2227,-2.25 -3.9883,-3.4297 -3.4609,-2.4297 -8.039,-4.5195 l 13.4882,11.4101"
     id="path76" />
  <path
     fill-rule="evenodd"
     fill="#898989"
     fill-opacity="1"
     d="m 94.192704,500.76028 c -2.81641,-3.88281 -0.53907,-1.63281 -3.64454,-4.60156 -0.55078,-0.53125 -4.00781,-3.05859 -5.30078,-4.00781 3.17188,7.30859 -0.17968,3.80859 8.94532,8.60937"
     id="path77" />
  <path
     fill-rule="evenodd"
     fill="#686868"
     fill-opacity="1"
     d="m 385.62239,1107.9008 c 5.3906,-3.0625 5.7305,-2.0625 7.5703,-8.5 -2.6992,1.9297 -2.1875,1.0469 -4.4375,3.418 -3.0625,3.2187 -0.5508,0.4297 -3.1328,5.082"
     id="path78" />
  <path
     fill-rule="evenodd"
     fill="#7f7f7f"
     fill-opacity="1"
     d="m 1313.1536,953.99075 c -1.8398,-3.0118 -2.2187,-3.961 -3.9414,-6.0899 -1.9101,-2.3906 -2.0468,-2.0625 -4.0195,-3.8515 2.4297,5.8203 -1.3008,0.6679 2.3906,5.4414 4.0391,5.2382 1.5508,1.9179 5.5703,4.5"
     id="path79" />
  <path
     fill-rule="evenodd"
     fill="#848484"
     fill-opacity="1"
     d="m 807.04429,613.51025 c 4.039,-2.25 0.1289,0.9687 4.6406,-2.7695 l 4.9492,-5.3008 c -8.4805,3.7578 -5.7422,1.7305 -9.5898,8.0703"
     id="path80" />
  <path
     fill-rule="evenodd"
     fill="#7d7d7d"
     fill-opacity="1"
     d="m 1008.6146,1531.7329 c -1.7227,-5.7422 0.5195,-5.8516 -6.832,-8.6719 2.6093,4.3906 2,4.0586 6.832,8.6719"
     id="path81" />
  <path
     fill-rule="evenodd"
     fill="#878787"
     fill-opacity="1"
     d="m 417.02469,925.22895 c -6.3906,1.3399 -4.2109,1.4883 -9.6601,-0.6992 l 5.7578,5.8203 3.9023,-5.1211"
     id="path82" />
  <path
     fill-rule="evenodd"
     fill="#8f8f8f"
     fill-opacity="1"
     d="m 456.52469,1209.7875 c 6.5274,-3.6367 4.6875,-1.8984 8.6094,-7.5703 -4.789,2.0313 -2.1406,0.25 -5.2695,2.7813 -4.0625,3.2695 -0.2891,-0.3086 -3.3399,4.789"
     id="path83" />
  <path
     fill-rule="evenodd"
     fill="#828282"
     fill-opacity="1"
     d="m 674.59509,1574.8149 c -1.6797,-3.5156 -1.6211,-3.9961 -3.5625,-6.4336 -2.5469,-3.2109 -1.3907,-1.3359 -4.3985,-3.7109 1.711,3.2226 2.0781,4.375 3.8594,6.6171 2.1719,2.7344 1.3516,1.3164 4.1016,3.5274"
     id="path84" />
  <path
     fill-rule="evenodd"
     fill="#878787"
     fill-opacity="1"
     d="m 799.32549,315.76028 c -2.4336,-4.08203 1.3477,-0.42968 -2.9726,-4.67968 -4.418,-4.36329 -2.1094,-1.91016 -6.4883,-4.40235 2.0508,2.51953 3.1601,4.03125 4.9805,5.76172 2.2304,2.12109 1.6796,1.30859 4.4804,3.32031"
     id="path85" />
  <path
     fill-rule="evenodd"
     fill="#848484"
     fill-opacity="1"
     d="m 356.94269,147.22903 c -5.1172,-6.28125 -4.2187,-5.16015 -9.9297,-8.3789 2.0899,2.84765 -0.4687,0.96875 3.2227,4.16015 6.5781,5.69922 0.4297,0.85938 6.707,4.21875"
     id="path86" />
  <path
     fill-rule="evenodd"
     fill="#7d7d7d"
     fill-opacity="1"
     d="m 439.50519,1183.5688 c 4.9102,-1.8008 1.9297,0.059 5.5078,-2.4609 4.8321,-3.4102 0.1992,0.8398 3.6289,-4.629 -6.2773,3.3399 -4.8281,1.9883 -9.1367,7.0899"
     id="path87" />
  <path
     fill-rule="evenodd"
     fill="#898989"
     fill-opacity="1"
     d="m 1321.4427,812.93995 c 2.793,-1.9102 3.6602,-2.2891 5.4492,-4.2617 2.9805,-3.2774 0.3438,-0.1875 3.211,-5.1602 -6.6993,5.0195 -5.0782,3.0508 -8.6602,9.4219"
     id="path88" />
  <path
     fill-rule="evenodd"
     fill="#878787"
     fill-opacity="1"
     d="m 536.67319,857.69775 c -1.5781,-2.7969 0.2109,-2.2188 -3.9375,-6.1875 -6.2031,-5.9297 0.3984,-0.4805 -6.5117,-3.9922 l 10.4492,10.1797"
     id="path89" />
  <path
     fill-rule="evenodd"
     fill="#949494"
     fill-opacity="1"
     d="m 435.15359,853.74855 -9.3085,-7.5391 2.1992,5.5586 z m 0,0"
     id="path90" />
  <path
     fill-rule="evenodd"
     fill="#848284"
     fill-opacity="1"
     d="m 1143.9427,1614.9907 -0.3672,-5.9961 4.0664,1.3672 c -3.4375,-3.6602 2.1133,-1.7032 -7.0976,-3.836 l 3.3984,8.4649"
     id="path91" />
  <path
     fill-rule="evenodd"
     fill="#828282"
     fill-opacity="1"
     d="m 703.56379,151.83841 5.8984,-2.39844 2.3516,7.58984 -0.2109,-10.28906 -8.0391,5.09766"
     id="path92" />
  <path
     fill-rule="evenodd"
     fill="#8c8c8c"
     fill-opacity="1"
     d="m 895.95439,2012.0063 c -3.0117,-4.957 -1.0508,-2.832 -5.3593,-7.1602 -4.211,-4.2265 -1.9922,-2.1797 -6.9415,-5.2031 l 12.3008,12.3633"
     id="path93" />
  <path
     fill-rule="evenodd"
     fill="#898989"
     fill-opacity="1"
     d="m 172.62238,1297.9672 11.78121,-6.6172 c -5.6484,1.461 -2.0507,-0.8125 -8.0117,2.5977 -4.93748,2.832 -0.55466,0.031 -3.76951,4.0195"
     id="path94" />
  <path
     fill-rule="evenodd"
     fill="#828282"
     fill-opacity="1"
     d="m 1112.8333,731.96725 10.1289,-8.3789 c -5.5586,2.0508 -1.9101,-0.5078 -5.3984,2.2891 -5.7812,4.6211 -1.6914,0.832 -4.7305,6.0898"
     id="path95" />
  <path
     fill-rule="evenodd"
     fill="#828282"
     fill-opacity="1"
     d="m 325.61459,1768.8383 -10.8789,-7.5664 c 3.8281,6.125 -2.3321,0.6016 5.0976,5.5313 3.7618,2.4961 0.6914,0.3086 5.7813,2.0351"
     id="path96" />
  <path
     fill-rule="evenodd"
     fill="#7f7f7f"
     fill-opacity="1"
     d="m 373.79429,1481.3461 -9.4492,-10.7265 c 1.6289,3.0742 0.957,3.1836 3.7304,6.4687 5.2891,6.2891 1.0899,1.4414 5.7188,4.2578"
     id="path97" />
  <path
     fill-rule="evenodd"
     fill="#949494"
     fill-opacity="1"
     d="m 735.60289,595.86965 10.9297,-9.711 c -2.2305,1.2305 -3.0899,0.8086 -6.4297,3.7618 -5.2774,4.6679 -1.3477,0.7382 -4.5,5.9492"
     id="path98" />
  <path
     fill-rule="evenodd"
     fill="#7d7d7d"
     fill-opacity="1"
     d="m 744.61459,1654.1899 -8.0195,-8.2578 c 2.957,8.7734 0.4882,4.1992 8.0195,8.2578"
     id="path99" />
  <path
     fill-rule="evenodd"
     fill="#898989"
     fill-opacity="1"
     d="m 360.76299,616.79935 -7.8711,-8.4219 c 3.6133,7.3203 -0.5195,4.75 7.8711,8.4219"
     id="path100" />
  <path
     fill-rule="evenodd"
     fill="#757575"
     fill-opacity="1"
     d="m 318.91539,648.02975 c -2.8633,-7.4218 0.5586,-4.6914 -7.2735,-9.039 l 7.2735,9.039"
     id="path101" />
  <path
     fill-rule="evenodd"
     fill="#7d7d7d"
     fill-opacity="1"
     d="m 89.286454,182.71731 c 7.51171,-3.79687 5.07421,0.45313 8.5664,-7.69921 l -8.5664,7.69921"
     id="path102" />
  <path
     fill-rule="evenodd"
     fill="#878787"
     fill-opacity="1"
     d="m 778.80209,1162.2094 c 7.3906,-3.9414 4.4219,-0.7617 9.5625,-9.3594 l -9.5625,9.3594"
     id="path103" />
  <path
     fill-rule="evenodd"
     fill="#9b9b9b"
     fill-opacity="1"
     d="m 301.64189,1751.2875 -9.0195,-7.2031 c 3.9609,7.8164 1.2812,3.8477 9.0195,7.2031"
     id="path104" />
  <path
     fill-rule="evenodd"
     fill="#848484"
     fill-opacity="1"
     d="m 283.24349,350.99075 -7.5899,-7.87109 c 3.6016,7.25 -0.7304,4.41015 7.5899,7.87109"
     id="path105" />
  <path
     fill-rule="evenodd"
     fill="#878787"
     fill-opacity="1"
     d="m 577.11459,1713.3735 6.789,-11.3164 c -2.6796,2.4297 -1.6484,-0.082 -4.8085,5.3945 -2.3829,4.0977 0.019,-0.1953 -1.9805,5.9219"
     id="path106" />
  <path
     fill-rule="evenodd"
     fill="#8f8f8f"
     fill-opacity="1"
     d="m 567.75519,630.35795 -9.0508,-7.5586 c 2.8399,4.8906 -0.7422,1.5781 3.2696,4.6406 3.5117,2.6797 0.1093,0.5703 5.7812,2.918"
     id="path107" />
  <path
     fill-rule="evenodd"
     fill="#828282"
     fill-opacity="1"
     d="m 297.94269,1515.561 c -2.8203,-4.6524 3.3906,-3.7578 -2.918,-4.2266 l -4.2304,-0.832 7.1484,5.0586"
     id="path108" />
  <path
     fill-rule="evenodd"
     fill="#7d7d7d"
     fill-opacity="1"
     d="m 695.01299,298.01028 -7.7695,-8.5 c 3.7109,8.27735 1.0312,4.48047 7.7695,8.5"
     id="path109" />
  <path
     fill-rule="evenodd"
     fill="#848484"
     fill-opacity="1"
     d="m 218.01299,219.60013 -1.4687,-4.15235 c -0.8008,-4.32812 -0.1602,0.043 -4.7891,-1.85937 l 6.2578,6.01172"
     id="path110" />
  <path
     fill-rule="evenodd"
     fill="#828282"
     fill-opacity="1"
     d="m 292.68489,188.49856 c -4.3516,-7.96093 -0.332,-3.87109 -8.1602,-7.96093 l 8.1602,7.96093"
     id="path111" />
  <path
     fill-rule="evenodd"
     fill="#7d7d7d"
     fill-opacity="1"
     d="m 99.013014,173.62747 c 3.988276,-2.27734 2.101556,0.16016 4.890616,-2.89844 3.30078,-3.62109 0.44141,0.69141 3.16797,-5.23047 l -8.058586,8.12891"
     id="path112" />
  <path
     fill-rule="evenodd"
     fill="#848484"
     fill-opacity="1"
     d="m 904.26299,598.47895 8.6992,-8.0781 c -4.9375,2.6172 -1.9492,-0.2031 -5.2695,3.1367 -3.0391,3.0313 -0.9375,0.9297 -3.4297,4.9414"
     id="path113" />
  <path
     fill-rule="evenodd"
     fill="#898989"
     fill-opacity="1"
     d="m 292.58329,269.58841 9.1719,-6.46094 c -3.0508,1.19141 -2.9922,0.36328 -5.6211,2.36328 -4.082,3.10938 -0.2422,-0.58203 -3.5508,4.09766"
     id="path114" />
  <path
     fill-rule="evenodd"
     fill="#848484"
     fill-opacity="1"
     d="m 753.88409,1125.6508 8,-7.9726 c -4.7617,2.582 -1.6211,0.031 -4.9297,3.0703 -2.8906,2.6601 -0.8008,0.832 -3.0703,4.9023"
     id="path115" />
  <path
     fill-rule="evenodd"
     fill="#898989"
     fill-opacity="1"
     d="m 368.94269,117.17825 c -2.8984,-5 3.8399,-2.42969 -6.8086,-5.09765 l 6.8086,5.09765"
     id="path116" />
  <path
     fill-rule="evenodd"
     fill="#898989"
     fill-opacity="1"
     d="m 443.43489,860.76805 -8.2813,-7.0195 c 1.8711,4.0703 -0.5507,1.0117 2.8086,4.1094 3.9219,3.6093 0.043,-0.1094 5.4727,2.9101"
     id="path117" />
  <path
     fill-rule="evenodd"
     fill="#848484"
     fill-opacity="1"
     d="m 707.51299,920.27975 4.9414,-7.1093 c -4.6797,3.0273 -2.0117,-4.2813 -4.9414,7.1093"
     id="path118" />
  <path
     fill-rule="evenodd"
     fill="#878787"
     fill-opacity="1"
     d="m 44.446604,454.61966 c -3.10547,-10.53906 -0.24219,-3.87891 -5.27344,-6.71875 l 5.27344,6.71875"
     id="path119" />
  <path
     fill-rule="evenodd"
     fill="#878787"
     fill-opacity="1"
     d="m 112.80988,1618.8305 -6.30078,-5.7773 c 2.47656,5.3164 -3.50781,2.1445 6.30078,5.7773"
     id="path120" />
  <path
     fill-rule="evenodd"
     fill="#828282"
     fill-opacity="1"
     d="m 133.70832,581.76025 -4.74219,-6.2695 c 0.875,5.957 -0.0195,4.6172 4.74219,6.2695"
     id="path121" />
  <path
     fill-rule="evenodd"
     fill="#878787"
     fill-opacity="1"
     d="m 39.102854,201.15091 c 4.94141,-2.79297 2.23438,3.44922 5.34375,-6.75 l -5.34375,6.75"
     id="path122" />
  <path
     fill-rule="evenodd"
     fill="#828282"
     fill-opacity="1"
     d="m 686.05209,448.7681 c 5.5117,-2.23829 3.0312,1.5625 6.082,-6.10938 l -6.082,6.10938"
     id="path123" />
  <path
     fill-rule="evenodd"
     fill="#7d7d7d"
     fill-opacity="1"
     d="m 898.38409,687.79935 c 10.0781,-3.0821 4.2188,-0.6289 6.7383,-5.1719 l -6.7383,5.1719"
     id="path124" />
  <path
     fill-rule="evenodd"
     fill="#848284"
     fill-opacity="1"
     d="m 586.17319,207.85013 c -2.6992,-3.83203 3.2187,-2.25 -7.3203,-4.60938 l 7.3203,4.60938"
     id="path125" />
  <path
     fill-rule="evenodd"
     fill="#7f7f7f"
     fill-opacity="1"
     d="m 442.60289,923.51805 c 5.082,-2.8398 2.25,3.1094 5.582,-6.5781 l -5.582,6.5781"
     id="path126" />
  <path
     fill-rule="evenodd"
     fill="#878787"
     fill-opacity="1"
     d="m 657.98569,598.85005 -6.3633,-5.3007 c 2.4219,4.8906 -2.0391,2.8203 6.3633,5.3007"
     id="path127" />
  <path
     fill-rule="evenodd"
     fill="#828282"
     fill-opacity="1"
     d="m 922.77469,90.908715 c -2.5898,-4.98047 3.25,-2.14062 -6.3515,-5.42969 l 6.3515,5.42969"
     id="path128" />
  <path
     fill-rule="evenodd"
     fill="#7d7d7d"
     fill-opacity="1"
     d="m 571.37239,333.33841 -8.6992,-7.35938 c 2.6992,3.87891 -0.09,1.60157 3.539,4.46094 2.8829,2.26953 1.1133,0.78906 5.1602,2.89844"
     id="path129" />
  <path
     fill-rule="evenodd"
     fill="#848484"
     fill-opacity="1"
     d="m 712.16539,233.0806 c -2.4414,-5.5625 0.6992,-3.33985 -6.1133,-5.82032 l 6.1133,5.82032"
     id="path130" />
  <path
     fill-rule="evenodd"
     fill="#848284"
     fill-opacity="1"
     d="m 467.23569,368.60794 -5.9102,-5.70703 c 2.2578,5.32812 -1.6719,2.8789 5.9102,5.70703"
     id="path131" />
  <path
     fill-rule="evenodd"
     fill="#878787"
     fill-opacity="1"
     d="m 1174.4036,799.65085 5.8086,-5.1406 c -8.8203,2.668 -3.4882,0.1172 -5.8086,5.1406"
     id="path132" />
  <path
     fill-rule="evenodd"
     fill="#848484"
     fill-opacity="1"
     d="m 847.38409,338.81888 -4.25,-6.89844 c 2.4688,11.92969 -0.289,3.32812 4.25,6.89844"
     id="path133" />
  <path
     fill-rule="evenodd"
     fill="#848484"
     fill-opacity="1"
     d="m 949.09509,67.811055 c -2.5,-6.09375 0.4375,-2.90234 -6.0118,-5.07031 l 6.0118,5.07031"
     id="path134" />
  <path
     fill-rule="evenodd"
     fill="#898989"
     fill-opacity="1"
     d="m 945.61459,112.06888 -5.7422,-6.21875 c 2.8008,7.07812 0.8008,3.91797 5.7422,6.21875"
     id="path135" />
  <path
     fill-rule="evenodd"
     fill="#848484"
     fill-opacity="1"
     d="m 199.27469,391.67044 c 4.8477,-3.3125 1.4883,4.48828 4.8399,-6.67188 l -4.8399,6.67188"
     id="path136" />
  <path
     fill-rule="evenodd"
     fill="#848484"
     fill-opacity="1"
     d="m 607.06379,108.2681 c 4.7891,-3.14844 1.9102,4.17187 4.6914,-6.27735 l -4.6914,6.27735"
     id="path137" />
  <path
     fill-rule="evenodd"
     fill="#848484"
     fill-opacity="1"
     d="m 1139.7435,1021.8188 c -2.3086,-5.7383 -0.2813,-3.7891 -5.7383,-6.1602 l 5.7383,6.1602"
     id="path138" />
  <path
     fill-rule="evenodd"
     fill="#828282"
     fill-opacity="1"
     d="m 1505.0951,1077.3305 c 8.7578,-1.9922 4.7695,-1.043 7.5585,-4.5195 l -7.5585,4.5195"
     id="path139" />
  <path
     fill-rule="evenodd"
     fill="#7f7f7f"
     fill-opacity="1"
     d="m 364.28259,156.49856 -5.1094,-6.07812 c 2.1289,5.77734 -2.4102,2.41016 5.1094,6.07812"
     id="path140" />
  <path
     fill-rule="evenodd"
     fill="#898989"
     fill-opacity="1"
     d="m 339.07549,1016.6391 c 3.6289,-2.6094 2.4571,1.1289 4.6485,-7.3984 l -4.6485,7.3984"
     id="path141" />
  <path
     fill-rule="evenodd"
     fill="#828282"
     fill-opacity="1"
     d="m 813.46219,888.58835 6.2735,-5.039 c -8.8906,2.9492 -3.9414,0.9492 -6.2735,5.039"
     id="path142" />
  <path
     fill-rule="evenodd"
     fill="#828282"
     fill-opacity="1"
     d="m 343.19269,1450.0102 -6.3086,-5.0703 c 2.3281,4.1562 -2.7109,1.9297 6.3086,5.0703"
     id="path143" />
  <path
     fill-rule="evenodd"
     fill="#8c8c8c"
     fill-opacity="1"
     d="m 768.90359,430.43997 -9.289,-6.57031 c 1.8008,2 1.2383,2.21094 3.9609,4.01953 3.5078,2.32031 0.5977,0.51172 5.3281,2.55078"
     id="path144" />
  <path
     fill-rule="evenodd"
     fill="#7d7d7d"
     fill-opacity="1"
     d="m 305.31379,1521.0532 -6.0312,-5.3985 c 2.2226,4.7813 -0.7891,2.8477 6.0312,5.3985"
     id="path145" />
  <path
     fill-rule="evenodd"
     fill="#7f7f7f"
     fill-opacity="1"
     d="m 819.27469,102.7681 -5.7617,-5.828135 c 2.2617,5.140635 -0.75,3.02734 5.7617,5.828135"
     id="path146" />
  <path
     fill-rule="evenodd"
     fill="#848484"
     fill-opacity="1"
     d="m 440.29429,1674.2485 -5.0899,-6.0899 c 2.6797,7.7852 0.8008,3.9024 5.0899,6.0899"
     id="path147" />
  <path
     fill-rule="evenodd"
     fill="#848484"
     fill-opacity="1"
     d="m 904.29429,662.15085 6.3398,-5.2422 c -5.7305,2.0196 -3.832,0.1719 -6.3398,5.2422"
     id="path148" />
  <path
     fill-rule="evenodd"
     fill="#828282"
     fill-opacity="1"
     d="m 32.052074,436.08841 -4.22266,-7.41016 c 1.78516,8.46094 1.00782,4.82031 4.22266,7.41016"
     id="path149" />
  <path
     fill-rule="evenodd"
     fill="#898989"
     fill-opacity="1"
     d="m 915.28259,2026.0063 -6.4688,-3.9219 c 2,3.168 -3.9414,1.5547 6.4688,3.9219"
     id="path150" />
  <path
     fill-rule="evenodd"
     fill="#848484"
     fill-opacity="1"
     d="m 901.27469,767.58835 c 2.5,-1.6601 2.4297,-1.0898 5.7696,-4.2383 3.5703,-3.3711 1.0898,-1.2109 3.2578,-4.1796 l -9.0274,8.4179"
     id="path151" />
  <path
     fill-rule="evenodd"
     fill="#828282"
     fill-opacity="1"
     d="m 967.13409,85.311055 -5.3594,-5.74218 c 2.6172,5.53906 -2.9023,1.92968 5.3594,5.74218"
     id="path152" />
  <path
     fill-rule="evenodd"
     fill="#7f7f7f"
     fill-opacity="1"
     d="m 685.21219,1022.2485 c 7.6329,-1.8789 4.5313,-0.668 7.4805,-4.4375 l -7.4805,4.4375"
     id="path153" />
  <path
     fill-rule="evenodd"
     fill="#8c8c8c"
     fill-opacity="1"
     d="m 723.91539,1632.4204 -5.3516,-5.5118 c 3.4219,8.5547 0.1484,2.7657 5.3516,5.5118"
     id="path154" />
  <path
     fill-rule="evenodd"
     fill="#848284"
     fill-opacity="1"
     d="m 718.08329,1626.3539 c -2.1093,-5.2148 -0.3398,-3.3242 -5.6914,-5.6953 l 5.6914,5.6953"
     id="path155" />
  <path
     fill-rule="evenodd"
     fill="#828282"
     fill-opacity="1"
     d="m 381.96219,1088.3891 4.6797,-6.7305 c -3.5586,2.3594 -2.2695,-1.3906 -4.6797,6.7305"
     id="path156" />
  <path
     fill-rule="evenodd"
     fill="#757575"
     fill-opacity="1"
     d="m 1516.013,926.45945 c -2.6992,-5.289 0.02,-1.7109 -2.8398,-5 -1.8477,-2.1289 -1.7813,-1.6406 -4.1211,-3.5195 l 6.9609,8.5195"
     id="path157" />
  <path
     fill-rule="evenodd"
     fill="#828282"
     fill-opacity="1"
     d="m 239.76299,356.43997 6.2617,-4.83984 c -8.6328,2.96093 -3.9218,1.1289 -6.2617,4.83984"
     id="path158" />
  <path
     fill-rule="evenodd"
     fill="#898989"
     fill-opacity="1"
     d="m 363.41539,1587.2329 c -2.25,-8.2305 -1.25,-4.6094 -4.5,-7.0547 l 4.5,7.0547"
     id="path159" />
  <path
     fill-rule="evenodd"
     fill="#828282"
     fill-opacity="1"
     d="m 630.00519,81.877465 5.9375,-5.5 c -5.3203,2.21094 -3.3789,0.17188 -5.9375,5.5"
     id="path160" />
  <path
     fill-rule="evenodd"
     fill="#848484"
     fill-opacity="1"
     d="m 700.46219,1606.561 c -3,-7.6446 -1.3476,-3.9102 -5.039,-6.0899 l 5.039,6.0899"
     id="path161" />
  <path
     fill-rule="evenodd"
     fill="#828282"
     fill-opacity="1"
     d="m 830.23569,1703.3383 -5.5117,-5.5937 c 4.2382,8.7695 0.2617,2.5508 5.5117,5.5937"
     id="path162" />
  <path
     fill-rule="evenodd"
     fill="#848484"
     fill-opacity="1"
     d="m 399.26299,134.8306 c 4.8203,-3.01172 -0.3789,1.39843 4.4219,-2.99219 l 4.6992,-5.42969 -9.1211,8.42188"
     id="path163" />
  <path
     fill-rule="evenodd"
     fill="#848484"
     fill-opacity="1"
     d="m 908.81379,2022.0844 c -1.5,-2.9531 1.5195,-1.8047 -5.6914,-4.3164 l 5.6914,4.3164"
     id="path164" />
  <path
     fill-rule="evenodd"
     fill="#848484"
     fill-opacity="1"
     d="m 450.71219,1344.2602 -4.4375,-7.0508 c 1.918,6.168 0.8477,4.1211 4.4375,7.0508"
     id="path165" />
  <path
     fill-rule="evenodd"
     fill="#848284"
     fill-opacity="1"
     d="m 450.27469,1602.2836 -3.7304,-8.0507 c 0.7187,3.9609 1.2304,5.3085 3.7304,8.0507"
     id="path166" />
  <path
     fill-rule="evenodd"
     fill="#898989"
     fill-opacity="1"
     d="m 1321.6927,869.97895 -6.6992,-4.5585 6.6992,4.5585"
     id="path167" />
  <path
     fill-rule="evenodd"
     fill="#7d7d7d"
     fill-opacity="1"
     d="m 263.65359,685.69775 -3.7812,-8.0781 3.7812,8.0781"
     id="path168" />
  <path
     fill-rule="evenodd"
     fill="#848284"
     fill-opacity="1"
     d="m 547.62239,864.58055 -7.1797,-4.2031 7.1797,4.2031"
     id="path169" />
  <path
     fill-rule="evenodd"
     fill="#7d7d7d"
     fill-opacity="1"
     d="m 416.61459,1668.9789 -4.711,-6.1835 4.711,6.1835"
     id="path170" />
  <path
     fill-rule="evenodd"
     fill="#898989"
     fill-opacity="1"
     d="m 403.91539,1522.1586 -3.8516,-7.582 3.8516,7.582"
     id="path171" />
  <path
     fill-rule="evenodd"
     fill="#848484"
     fill-opacity="1"
     d="m 1161.5521,781.68995 6.2109,-4.6406 -6.2109,4.6406"
     id="path172" />
  <path
     fill-rule="evenodd"
     fill="#848484"
     fill-opacity="1"
     d="m 405.16539,829.36965 -5.9024,-4.8711 5.9024,4.8711"
     id="path173" />
  <path
     fill-rule="evenodd"
     fill="#7f7f7f"
     fill-opacity="1"
     d="m 671.88409,172.99856 -7.3086,-3.94921 7.3086,3.94921"
     id="path174" />
  <path
     fill-rule="evenodd"
     fill="#828282"
     fill-opacity="1"
     d="m 742.68489,321.85794 -4.1797,-6.98047 4.1797,6.98047"
     id="path175" />
  <path
     fill-rule="evenodd"
     fill="#848484"
     fill-opacity="1"
     d="m 458.96219,1615.8461 -4.4296,-6.539 4.4296,6.539"
     id="path176" />
  <path
     fill-rule="evenodd"
     fill="#878787"
     fill-opacity="1"
     d="m 92.427074,143.24856 5.66016,-5.16796 -5.66016,5.16796"
     id="path177" />
  <path
     fill-rule="evenodd"
     fill="#848484"
     fill-opacity="1"
     d="m 895.64189,1437.6157 6.1524,-4.7891 -6.1524,4.7891"
     id="path178" />
  <path
     fill-rule="evenodd"
     fill="#898989"
     fill-opacity="1"
     d="m 964.83329,1428.8969 -4.8906,-7.1523 4.8906,7.1523"
     id="path179" />
  <path
     fill-rule="evenodd"
     fill="#7f7f7f"
     fill-opacity="1"
     d="m 789.80209,676.40085 4.2734,-6.4804 -4.2734,6.4804"
     id="path180" />
  <path
     fill-rule="evenodd"
     fill="#7f7f7f"
     fill-opacity="1"
     d="m 187.35289,1649.7524 -7.3594,-3.9219 7.3594,3.9219"
     id="path181" />
</svg>
